<svg width="17" height="21" viewBox="0 0 17 21" fill="none" xmlns="http://www.w3.org/2000/svg">
<path fill-rule="evenodd" clip-rule="evenodd" d="M13.5351 6.092C13.5351 8.95026 11.282 11.2673 8.50258 11.2673C5.7232 11.2673 3.47007 8.95026 3.47007 6.092C3.47007 3.23374 5.7232 0.916656 8.50258 0.916656C11.282 0.916656 13.5351 3.23374 13.5351 6.092ZM12.8221 14.1833C14.4222 14.5073 15.4668 15.0359 15.9145 15.8885C16.2508 16.5539 16.2508 17.3461 15.9145 18.0115C15.4668 18.8641 14.4637 19.4268 12.8055 19.7167C12.0666 19.8657 11.3187 19.9626 10.567 20.0066C9.87056 20.0833 9.17413 20.0833 8.46942 20.0833H7.20093C6.93562 20.0492 6.67861 20.0322 6.42988 20.0322C5.67813 19.9935 4.93005 19.8995 4.19137 19.7508C2.59125 19.4439 1.54661 18.8982 1.09891 18.0456C0.926078 17.7153 0.834962 17.3464 0.833602 16.9713C0.83 16.594 0.91836 16.2217 1.09062 15.8885C1.53003 15.0359 2.57467 14.4817 4.19137 14.1833C4.9333 14.0376 5.68394 13.9436 6.43817 13.9019C7.81786 13.7907 9.20388 13.7907 10.5836 13.9019C11.3349 13.9457 12.0826 14.0397 12.8221 14.1833Z" fill="#2C3550"/>
</svg>
