<svg width="18" height="18" viewBox="0 0 18 18" fill="none" xmlns="http://www.w3.org/2000/svg">
<path d="M8.22658 0.10977C7.16955 0.2043 5.90626 0.556644 4.99533 1.01211C1.49337 2.76954 -0.470302 6.6711 0.195714 10.5469C0.492198 12.2871 1.3172 13.8856 2.59767 15.2047C3.39259 16.0254 4.11017 16.5496 5.11134 17.0352C7.21681 18.0621 9.58869 18.2125 11.8488 17.4606C16.0942 16.0512 18.6551 11.6039 17.7442 7.2211C17.4004 5.55821 16.584 4.02422 15.3809 2.77813C13.5289 0.848831 10.9078 -0.126558 8.22658 0.10977ZM9.64455 1.48047C10.6672 1.57071 11.4492 1.79414 12.3731 2.25391C13.1594 2.64493 13.675 3.01875 14.3067 3.65039C16.6098 5.95352 17.1985 9.30938 15.8149 12.2441C14.818 14.3582 12.8844 15.8879 10.5899 16.382C8.13205 16.9148 5.61837 16.2059 3.80939 14.4785C1.32579 12.1109 0.732823 8.52305 2.32267 5.47657C2.67931 4.79336 3.07032 4.27344 3.69337 3.65039C4.53986 2.79961 5.4465 2.23243 6.5508 1.86289C7.61212 1.51055 8.58752 1.39024 9.64455 1.48047Z" fill="#120D26"/>
<path d="M8.03754 4.63869C7.16097 4.86213 6.47347 5.51525 6.18558 6.40041C6.07816 6.72267 6.06956 6.78713 6.11253 6.93322C6.28441 7.50041 6.95043 7.63361 7.32855 7.18244C7.37152 7.13088 7.4059 7.07502 7.41019 7.05783C7.41449 6.92463 7.61644 6.52502 7.76254 6.36174C8.05043 6.03088 8.20941 5.97072 8.76371 5.97072C9.18051 5.97072 9.26215 5.98361 9.4727 6.08244C10.027 6.34025 10.2762 6.83439 10.0957 7.31135C10.0356 7.47463 9.85942 7.68088 9.28364 8.26955C8.69496 8.86681 8.51449 9.08166 8.38988 9.32228C8.16215 9.76056 8.0977 10.027 8.0977 10.4996C8.0977 10.8692 8.11059 10.9293 8.20082 11.0668C8.48012 11.475 9.14614 11.4449 9.36528 11.0153C9.40395 10.9465 9.44692 10.7188 9.4684 10.5125C9.48559 10.3063 9.53715 10.0699 9.58012 9.9883C9.61879 9.90666 9.95395 9.54142 10.3192 9.17619C10.6844 8.81525 11.0625 8.39846 11.1528 8.25666C11.4793 7.75392 11.604 7.08361 11.475 6.53361C11.2774 5.69572 10.6457 5.02541 9.76489 4.71603C9.49848 4.6215 9.36098 4.60431 8.87113 4.59142C8.46293 4.58283 8.21801 4.59572 8.03754 4.63869Z" fill="#120D26"/>
<path d="M8.40703 12.1754C8.20508 12.3043 8.09766 12.5063 8.09766 12.7598C8.09766 13.5547 9.25351 13.675 9.42968 12.8973C9.47695 12.6695 9.4039 12.4289 9.23203 12.2613C9.10312 12.1367 9.05156 12.1195 8.81523 12.1023C8.60469 12.0938 8.51875 12.1066 8.40703 12.1754Z" fill="#120D26"/>
</svg>
