<svg width="50" height="50" viewBox="0 0 50 50" fill="none" xmlns="http://www.w3.org/2000/svg">
<path d="M22.8025 0.146477C20.1365 0.556633 17.7537 1.82616 15.8884 3.80859C13.8377 5.98632 12.7732 8.50585 12.6267 11.5234C12.4216 15.7422 14.492 19.7754 18.0662 22.1094C19.824 23.2617 21.5134 23.8476 23.5642 24.0137C27.3631 24.3066 30.6052 23.1152 33.2224 20.4492C35.3025 18.3398 36.3572 16.0351 36.6111 13.0957C36.9627 9.16991 35.4783 5.51757 32.5193 2.95898C30.6052 1.31835 28.8474 0.498039 26.4158 0.146477C25.2439 -0.0195389 23.8767 -0.0293045 22.8025 0.146477Z" fill="#E1E1E1"/>
<path d="M13.9355 24.2285C9.52148 24.6973 6.45508 27.8613 5.0293 33.4473C4.08203 37.168 3.83789 41.6406 4.44336 44.0918C4.9414 46.0547 6.57226 48.0469 8.45703 49.0039C9.30664 49.4336 10.5273 49.7852 11.5527 49.9023C12.1582 49.9805 16.7676 50 25.5859 49.9805L38.7207 49.9512L39.5508 49.7168C42.6367 48.877 44.7461 46.8066 45.5176 43.8965C45.918 42.3828 45.8691 38.7695 45.4004 35.918C44.375 29.5703 41.7773 25.7617 37.666 24.5703C36.7285 24.2969 35.0488 24.0918 34.5508 24.1895C34.0723 24.2773 33.4082 24.6289 31.9043 25.5957C30.3027 26.6309 30.0781 26.748 28.8769 27.1973C27.4902 27.7148 26.3477 27.9395 25.0098 27.9395C23.6426 27.9395 22.5879 27.7441 21.2012 27.2559C19.8926 26.7871 19.834 26.7578 17.7832 25.459C16.709 24.7754 15.9082 24.3359 15.5957 24.248C15.0488 24.1113 15.0488 24.1113 13.9355 24.2285Z" fill="#E1E1E1"/>
</svg>
