<svg width="22" height="22" viewBox="0 0 22 22" fill="none" xmlns="http://www.w3.org/2000/svg">
<path d="M10.6174 0.047266C10.1705 0.133204 9.94278 0.292189 9.07481 1.12148C8.52911 1.64141 8.18965 1.9336 8.08223 1.97227C7.93184 2.02813 7.82872 2.01953 6.93496 1.89922C6.39356 1.82188 5.82207 1.75742 5.66739 1.75742C5.02285 1.74883 4.43848 2.0582 4.07754 2.59102C3.8627 2.91758 3.81543 3.07656 3.60918 4.2625C3.51465 4.80391 3.40723 5.30235 3.37285 5.37539C3.29121 5.52578 3.17949 5.59883 2.29863 6.05859C1.09981 6.68594 0.893555 6.84922 0.644336 7.36914C0.506836 7.66133 0.468164 7.86758 0.463867 8.25859C0.463867 8.61953 0.52832 8.8 1.06113 9.89141C1.40918 10.609 1.5166 10.8668 1.5166 11C1.5166 11.1332 1.40918 11.391 1.06113 12.1086C0.52832 13.2 0.463867 13.3805 0.463867 13.7414C0.468164 14.1324 0.506836 14.3387 0.644336 14.6309C0.893555 15.1508 1.09981 15.3141 2.29863 15.9414C3.17949 16.4012 3.29121 16.4742 3.37285 16.6246C3.40723 16.6977 3.51465 17.1961 3.60918 17.7418C3.70371 18.2832 3.81113 18.816 3.84121 18.9234C4.07324 19.6969 4.79512 20.234 5.60723 20.2426C5.77481 20.2469 6.35918 20.1824 6.91348 20.1051C7.82872 19.9805 7.93184 19.9719 8.08223 20.0277C8.18965 20.0664 8.52911 20.3586 9.07481 20.8785C9.73223 21.5102 9.95567 21.6949 10.1705 21.7937C10.5357 21.9656 10.9225 22.0258 11.2834 21.9656C11.8205 21.8754 12.0182 21.7465 12.9248 20.8785C13.4705 20.3586 13.81 20.0664 13.9174 20.0277C14.0678 19.9719 14.1709 19.9805 15.0647 20.1008C15.6061 20.1781 16.1775 20.2426 16.3322 20.2426C16.9768 20.2512 17.5611 19.9418 17.9221 19.409C18.1369 19.0824 18.1842 18.9234 18.3904 17.7375C18.485 17.1961 18.5924 16.6977 18.6268 16.6246C18.7084 16.4699 18.8029 16.4098 19.8127 15.8813C20.7666 15.3785 20.9772 15.2281 21.2049 14.8844C21.4326 14.5492 21.5315 14.2313 21.5358 13.8102C21.5358 13.3719 21.4928 13.2473 20.9385 12.1086C20.5904 11.391 20.483 11.1332 20.483 11C20.483 10.8668 20.5904 10.609 20.9385 9.89141C21.4928 8.75274 21.5358 8.62813 21.5358 8.18984C21.5315 7.76875 21.4326 7.45078 21.2049 7.11563C20.9772 6.77188 20.7666 6.62148 19.8127 6.11875C18.8029 5.59023 18.7084 5.53008 18.6268 5.37539C18.5924 5.30235 18.485 4.80391 18.3904 4.2625C18.1842 3.07656 18.1369 2.91758 17.9221 2.59102C17.5611 2.0582 16.9768 1.74883 16.3322 1.75742C16.1775 1.75742 15.6061 1.82188 15.0647 1.89922C14.1709 2.01953 14.0678 2.02813 13.9174 1.97227C13.81 1.9336 13.4705 1.64141 12.9248 1.12148C12.276 0.502735 12.0397 0.305079 11.8377 0.210548C11.4252 0.017189 11.0385 -0.0343742 10.6174 0.047266ZM11.3221 1.3707C11.3951 1.41797 11.8033 1.7918 12.2373 2.2043C13.0967 3.03359 13.3244 3.18398 13.8315 3.26133C14.1236 3.3086 14.2225 3.3 15.5416 3.11094C15.9971 3.04649 16.3924 3.00781 16.4783 3.025C16.6588 3.05938 16.8565 3.22266 16.9209 3.38164C16.9467 3.45039 17.0498 3.95742 17.1486 4.51172C17.3377 5.60313 17.4065 5.83086 17.6428 6.17461C17.8533 6.48398 18.051 6.61719 19.1037 7.17578C19.5979 7.44219 20.0361 7.68711 20.0834 7.72578C20.1908 7.82031 20.2811 8.04375 20.2811 8.21133C20.2811 8.29727 20.0963 8.72266 19.7869 9.36289C19.2756 10.4199 19.2068 10.609 19.2068 11C19.2068 11.391 19.2756 11.5801 19.7869 12.6371C20.0963 13.2773 20.2811 13.7027 20.2811 13.7887C20.2811 13.9563 20.1908 14.1797 20.0834 14.2742C20.0361 14.3129 19.5979 14.5578 19.1037 14.8242C18.051 15.3828 17.8533 15.516 17.6428 15.8254C17.4065 16.1691 17.3377 16.3969 17.1486 17.4883C17.0498 18.0426 16.9467 18.5496 16.9209 18.6184C16.8565 18.7773 16.6588 18.9406 16.4783 18.975C16.3924 18.9922 15.9971 18.9535 15.5416 18.8891C14.2225 18.7 14.1236 18.6914 13.8315 18.7387C13.3244 18.816 13.0967 18.9664 12.2373 19.7957C11.8033 20.2082 11.3951 20.582 11.3221 20.6293C11.176 20.7238 10.858 20.7367 10.7119 20.6551C10.6604 20.625 10.2693 20.2684 9.83965 19.8602C9.00606 19.0652 8.83418 18.9363 8.46465 18.8074C8.1209 18.6914 7.717 18.7043 6.62989 18.8633C6.0541 18.9449 5.61153 18.9922 5.52129 18.975C5.34082 18.9406 5.14317 18.7773 5.07871 18.6184C5.05293 18.5496 4.94981 18.0426 4.85098 17.4883C4.66192 16.3969 4.59317 16.1691 4.35684 15.8254C4.14629 15.516 3.94863 15.3828 2.8959 14.8242C2.40176 14.5578 1.96348 14.3129 1.91621 14.2742C1.80879 14.1797 1.71856 13.9563 1.71856 13.7887C1.71856 13.7027 1.90332 13.2773 2.2127 12.6371C2.72402 11.5801 2.79277 11.391 2.79277 11C2.79277 10.609 2.72402 10.4199 2.2127 9.36289C1.90332 8.72266 1.71856 8.29727 1.71856 8.21133C1.71856 8.04375 1.80879 7.82031 1.91621 7.72578C1.96348 7.68711 2.40176 7.44219 2.8959 7.17578C3.94863 6.61719 4.14629 6.48398 4.35684 6.17461C4.59317 5.83086 4.66192 5.60313 4.85098 4.51172C4.94981 3.95742 5.05293 3.45039 5.07871 3.38164C5.14317 3.22266 5.34082 3.05938 5.52129 3.025C5.60723 3.00781 6.00254 3.04649 6.45801 3.11094C7.77715 3.3 7.87598 3.3086 8.16817 3.26133C8.6752 3.18398 8.90293 3.03359 9.76231 2.2043C10.1963 1.7918 10.6088 1.41797 10.6775 1.3707C10.7549 1.32344 10.8838 1.28906 10.9998 1.28906C11.1158 1.28906 11.2447 1.32344 11.3221 1.3707Z" fill="#120D26"/>
<path d="M7.9707 5.34961C6.90508 5.58594 6.14453 6.53555 6.14453 7.61836C6.14883 8.64531 6.84492 9.55625 7.85898 9.85703C8.15547 9.94297 8.71406 9.94726 9.03633 9.86133C9.88711 9.64219 10.5789 8.90312 10.7465 8.04375C11.0559 6.44101 9.56484 4.99297 7.9707 5.34961ZM9.00625 6.72461C9.57344 7.07695 9.68086 7.85469 9.22539 8.32734C8.8043 8.76562 8.14688 8.77422 7.71719 8.35312C7.44648 8.08242 7.33906 7.5668 7.48516 7.21875C7.73438 6.63008 8.46914 6.39375 9.00625 6.72461Z" fill="#120D26"/>
<path d="M14.9312 6.23477C14.798 6.30781 6.3203 14.7898 6.24725 14.9187C6.10546 15.1852 6.22147 15.559 6.49647 15.7266C6.65116 15.8211 6.91327 15.8383 7.05936 15.7652C7.19257 15.6965 15.6746 7.22305 15.752 7.08125C15.8938 6.81484 15.7777 6.44102 15.5027 6.27344C15.348 6.17891 15.0688 6.16172 14.9312 6.23477Z" fill="#120D26"/>
<path d="M12.9463 12.1387C12.1084 12.3664 11.4209 13.1055 11.2533 13.9563C11.1502 14.4891 11.2834 15.1723 11.5756 15.6191C11.9451 16.1777 12.5639 16.5816 13.2041 16.6805C14.5834 16.891 15.8596 15.7867 15.8553 14.3816C15.851 13.3547 15.1549 12.4438 14.1408 12.143C13.853 12.057 13.2557 12.057 12.9463 12.1387ZM14.0033 13.4492C14.3643 13.6297 14.5834 13.9906 14.5791 14.3945C14.5705 15.0133 14.0893 15.4559 13.4662 15.4172C12.5897 15.3613 12.1686 14.3043 12.7744 13.6727C13.101 13.3289 13.5951 13.2387 14.0033 13.4492Z" fill="#120D26"/>
</svg>
