<svg width="22" height="22" viewBox="0 0 22 22" fill="none" xmlns="http://www.w3.org/2000/svg">
<g clip-path="url(#clip0_201_913)">
<path d="M1.55137 3.31289C0.812304 3.45898 0.184961 4.09492 0.043164 4.85117C-0.0169922 5.16914 -0.0169922 16.8309 0.043164 17.1488C0.189258 17.9223 0.812304 18.5453 1.58574 18.6914C1.90371 18.7516 20.0967 18.7516 20.4146 18.6914C21.1881 18.5453 21.8111 17.9223 21.9572 17.1488C22.0174 16.8309 22.0174 5.16914 21.9572 4.85117C21.8111 4.07773 21.1881 3.45469 20.4146 3.30859C20.1268 3.25703 1.83066 3.25703 1.55137 3.31289ZM16.0061 8.31875C13.4279 10.884 12.1518 12.1258 11.9885 12.2246C11.3869 12.5898 10.6135 12.5898 10.0119 12.2246C9.84863 12.1258 8.57246 10.884 5.99433 8.31875L2.21309 4.55898H11.0002H19.7873L16.0061 8.31875ZM5.13496 9.27695L6.85371 11L4.70527 13.1527C3.52363 14.3344 2.27324 15.5762 1.92519 15.907L1.28926 16.5086V11V5.49141L2.35488 6.52266C2.93926 7.08984 4.18965 8.33164 5.13496 9.27695ZM20.7025 13.7586L20.6896 16.5215L17.9182 13.7586L15.1467 11L17.9182 8.24141L20.6896 5.48281L20.7025 8.24141C20.7068 9.7582 20.7068 12.2418 20.7025 13.7586ZM8.22871 12.3793C9.00644 13.1613 9.45761 13.475 10.0978 13.6727C10.3686 13.7543 10.5146 13.7715 11.0002 13.7715C11.6619 13.7715 12.0057 13.6898 12.5041 13.4191C12.8736 13.2215 13.067 13.0582 13.6943 12.448L14.2186 11.9324L15.2412 12.925C15.8041 13.4707 17.0545 14.7082 18.0256 15.6793L19.7873 17.4453H11.0002L2.21309 17.441L4.97598 14.6953C6.49707 13.1828 7.75176 11.9453 7.76894 11.9453C7.78613 11.9453 7.99238 12.1387 8.22871 12.3793Z" fill="#120D26"/>
</g>
<defs>
<clipPath id="clip0_201_913">
<rect width="22" height="22" fill="white"/>
</clipPath>
</defs>
</svg>
