<svg width="152" height="152" viewBox="0 0 152 152" fill="none" xmlns="http://www.w3.org/2000/svg">
<path d="M47.0548 9.76719C32.3298 15.1109 19.9501 19.7422 19.5048 20.0391C19.0595 20.3359 18.3173 21.1672 17.9016 21.8797C16.7141 23.8984 16.8626 25.4719 18.6438 30.2812L20.0985 34.2891L41.0876 34.3781L62.047 34.4375L62.0766 27.8469C62.0766 20.3063 62.4032 18.4953 64.1251 15.6156C64.6891 14.6656 65.936 13.1812 66.886 12.2906C70.0923 9.29219 73.0016 8.3125 78.4344 8.3125C80.3641 8.3125 81.9376 8.28281 81.9376 8.22344C81.9376 7.89688 80.4532 3.82969 80.0673 3.05781C79.1173 1.24688 76.9204 0 74.6641 0C74.1891 0 61.7501 4.39375 47.0548 9.76719Z" fill="#D3D3D3"/>
<path d="M74.3672 17.7828C72.9422 18.4359 72.0219 19.3859 71.3984 20.8406C71.0422 21.7312 70.9531 23.2156 70.9531 28.2031V34.4375H96.9297H122.906V28.2031C122.906 23.2156 122.817 21.7312 122.461 20.8406C121.837 19.3859 120.917 18.4359 119.492 17.7828C118.364 17.2484 117.087 17.2188 96.9297 17.2188C76.7719 17.2188 75.4953 17.2484 74.3672 17.7828Z" fill="#D3D3D3"/>
<path d="M8.40175 43.7594C4.42362 45.0062 1.12831 48.6281 0.297061 52.6359C0.0892488 53.7047 0.000186324 67.5687 0.0595613 98.5922L0.148624 142.975L1.24706 145.231C2.583 147.933 4.30487 149.595 7.06581 150.902L9.05487 151.852H69.3502H129.616L131.872 150.753C134.574 149.417 136.236 147.695 137.542 144.934L138.492 142.945L138.581 131.456L138.671 119.967L126.113 119.878C113.911 119.759 113.496 119.759 111.477 119.077C103.906 116.583 98.3252 110.794 96.2768 103.312C95.4752 100.314 95.5346 94.6437 96.4549 91.7344C97.7018 87.6969 99.3049 85.0547 102.274 82.0563C104.53 79.8 105.391 79.1766 107.766 77.9891C112.664 75.6141 112.575 75.6141 126.41 75.4953L138.641 75.3469V64.6C138.641 52.9625 138.522 51.7156 137.008 49.1328C135.939 47.3516 133.564 45.2141 131.575 44.2938L129.883 43.4922L69.7658 43.4328C20.633 43.4031 9.41113 43.4625 8.40175 43.7594Z" fill="#D3D3D3"/>
<path d="M114.564 84.8469C109.725 86.1234 106.222 89.6563 104.946 94.6141C103.788 99.0375 104.975 103.402 108.33 106.964C109.933 108.686 111.596 109.725 114.03 110.467C115.692 111.002 116.999 111.031 132.139 111.031C150.1 111.031 149.833 111.061 151.139 109.22L151.852 108.211V97.7609C151.852 87.6969 151.822 87.3109 151.228 86.5094C150.902 86.0641 150.249 85.4109 149.803 85.0844C149.002 84.4609 148.646 84.4609 132.763 84.4016C118.186 84.3422 116.316 84.4016 114.564 84.8469ZM119.433 93.6344C121.422 94.4359 122.639 96.7516 122.164 98.8297C121.867 100.166 120.294 101.739 118.958 101.977C117.206 102.303 115.781 101.888 114.713 100.759C113.11 99.0672 113.021 96.7516 114.505 94.9703C115.871 93.3375 117.622 92.8625 119.433 93.6344Z" fill="#D3D3D3"/>
</svg>
