<svg width="30" height="28" viewBox="0 0 30 28" fill="none" xmlns="http://www.w3.org/2000/svg">
<g clip-path="url(#clip0_388_5861)">
<path d="M8.26367 13.3912C8.26367 12.1366 8.57276 11.0638 9.19093 10.1729C9.80909 9.28206 10.6546 8.60945 11.7273 8.15485C12.709 7.73664 13.9183 7.43683 15.3548 7.2547C15.8455 7.20025 16.6456 7.1275 17.7547 7.03643V6.57281C17.7547 5.40922 17.6275 4.62748 17.3729 4.22733C16.991 3.68167 16.3912 3.40921 15.5728 3.40921H15.3548C14.7547 3.46365 14.2364 3.65457 13.8001 3.98172C13.3638 4.30912 13.0818 4.76347 12.9546 5.3455C12.8819 5.70903 12.7002 5.91802 12.4092 5.97271L9.27271 5.59087C8.96363 5.51811 8.80909 5.35454 8.80909 5.0999C8.80909 5.04545 8.81812 4.98173 8.83619 4.90922C9.14527 3.29104 9.90431 2.09108 11.1135 1.30909C12.3225 0.527592 13.7364 0.0910652 15.3548 0H16.0367C18.109 0 19.7274 0.536381 20.8915 1.60914C21.0736 1.79176 21.2425 1.98757 21.3959 2.19533C21.5499 2.40432 21.673 2.59084 21.7635 2.75442C21.8546 2.91799 21.9366 3.15457 22.0091 3.46341C22.0821 3.77274 22.1363 3.98636 22.1732 4.10428C22.2093 4.22245 22.2367 4.47709 22.2548 4.8682C22.2728 5.25908 22.2819 5.49077 22.2819 5.56352V12.1637C22.2819 12.6363 22.35 13.0682 22.4864 13.4591C22.6229 13.8502 22.755 14.132 22.8817 14.3046C23.0089 14.4772 23.2184 14.7548 23.5092 15.1361C23.6183 15.3002 23.6727 15.4457 23.6727 15.5729C23.6727 15.7184 23.6002 15.8451 23.4542 15.9545C21.9454 17.2638 21.1273 17.973 20.9999 18.0822C20.7818 18.2458 20.5182 18.2638 20.2088 18.1366C19.9547 17.9181 19.732 17.7094 19.5409 17.5092C19.3502 17.3095 19.2137 17.164 19.1317 17.0729C19.0501 16.9823 18.9181 16.8048 18.7364 16.5412C18.5548 16.2775 18.4268 16.1 18.3546 16.0094C17.3365 17.1185 16.3365 17.8095 15.3548 18.0822C14.7364 18.2638 13.9727 18.3549 13.0638 18.3549C11.6636 18.3549 10.5137 17.9228 9.61378 17.0592C8.71363 16.1954 8.26367 14.9728 8.26367 13.3912ZM12.9546 12.8456C12.9546 13.5548 13.1321 14.1229 13.4864 14.5502C13.8411 14.9774 14.3182 15.191 14.9183 15.191C14.973 15.191 15.0501 15.182 15.1502 15.1639C15.2498 15.1454 15.3182 15.1364 15.3548 15.1364C16.1182 14.9366 16.7091 14.4459 17.1273 13.6639C17.3275 13.3185 17.4774 12.9413 17.5775 12.5321C17.6776 12.1231 17.732 11.7911 17.741 11.5365C17.7501 11.2821 17.755 10.8639 17.755 10.2821V9.60018C16.7003 9.60018 15.9005 9.67293 15.355 9.81844C13.7544 10.2728 12.9546 11.2818 12.9546 12.8456Z" fill="black"/>
<path d="M24.4091 21.6276C24.4458 21.5546 24.5002 21.4821 24.5732 21.4091C25.0275 21.1 25.4638 20.8913 25.882 20.7821C26.573 20.6005 27.2458 20.5004 27.9001 20.4821C28.0823 20.4635 28.2549 20.4731 28.4184 20.5092C29.2368 20.5817 29.7273 20.7184 29.8914 20.9184C29.9639 21.0275 30 21.1911 30 21.4091V21.6003C30 22.2363 29.8274 22.9865 29.4822 23.85C29.1365 24.7136 28.6548 25.4094 28.0364 25.9367C27.9458 26.0092 27.8638 26.0454 27.7912 26.0454C27.7546 26.0454 27.7182 26.0363 27.6821 26.0183C27.573 25.9638 27.5456 25.8637 27.6001 25.7182C28.2729 24.1364 28.6091 23.0366 28.6091 22.4179C28.6091 22.2182 28.573 22.0727 28.5005 21.9816C28.3183 21.7636 27.8096 21.6545 26.9731 21.6545C26.6635 21.6545 26.3003 21.6725 25.882 21.7089C25.4277 21.7638 25.0095 21.818 24.6274 21.873C24.5183 21.873 24.4458 21.8544 24.4089 21.818C24.3728 21.7819 24.3635 21.7455 24.3818 21.7089C24.3818 21.6911 24.3908 21.6637 24.4091 21.6276ZM0.0544438 21.1642C0.145509 21.0187 0.290774 21.0097 0.490971 21.1366C5.03642 23.7731 9.98202 25.0915 15.3273 25.0915C18.8913 25.0915 22.4094 24.4277 25.882 23.1003C25.9726 23.0641 26.1047 23.0097 26.2773 22.9367C26.4504 22.8642 26.573 22.8095 26.6455 22.7731C26.9182 22.664 27.1318 22.7187 27.2864 22.9367C27.4414 23.1552 27.3913 23.3549 27.1367 23.5366C26.8091 23.7731 26.3908 24.0458 25.882 24.3549C24.3186 25.2824 22.5727 26.0004 20.6454 26.5097C18.7184 27.019 16.8363 27.2732 15.0001 27.2732C12.1637 27.2732 9.48177 26.7778 6.95465 25.7868C4.42728 24.7958 2.16359 23.4001 0.163576 21.6005C0.0544438 21.5094 0 21.4184 0 21.3276C0 21.2729 0.0180666 21.2184 0.0544438 21.1642Z" fill="#FF9900"/>
</g>
<defs>
<clipPath id="clip0_388_5861">
<rect width="30" height="27.2729" fill="white"/>
</clipPath>
</defs>
</svg>
