<svg width="135" height="141" viewBox="0 0 135 141" fill="none" xmlns="http://www.w3.org/2000/svg">
<g clip-path="url(#clip0_1954_914)">
<path d="M101.254 51.9804C98.869 52.9269 97.3197 54.5567 96.4286 56.5913C95.0159 59.8154 93.4615 63.0901 92.7881 66.5066C91.5325 72.8789 89.8869 79.408 90.1654 85.7955C90.6363 96.4851 88.1553 106.8 87.7047 117.328C87.6439 118.73 87.1579 119.16 85.7756 119.135C81.477 119.059 77.1732 119.115 72.8695 119.094C72.0594 119.089 71.2544 118.968 70.3582 118.892C70.3582 102.776 70.3582 86.7977 70.3582 70.7278C71.1278 70.5405 71.9328 70.419 72.6872 70.1508C74.591 69.4675 76.2517 68.2528 76.2365 66.1472C76.191 59.2688 75.9024 52.3904 75.7049 45.3753C74.4492 45.3753 73.4113 45.3753 71.9328 45.3753C71.9328 49.0043 71.948 52.6485 71.9278 56.2876C71.9126 58.1857 71.948 60.0938 71.71 61.9665C71.629 62.6144 70.8696 63.5609 70.2772 63.6823C69.1329 63.9151 68.6519 63.0345 68.6823 61.8957C68.7987 57.0924 68.8949 52.2892 68.9962 47.4808C69.0114 46.7925 68.9962 46.1092 68.9962 45.2791C68.2975 45.2285 67.6949 45.188 66.738 45.1172C66.738 46.671 66.7633 48.0983 66.7329 49.5206C66.6519 53.5646 66.5253 57.6137 66.4747 61.6578C66.4595 62.8371 66.1507 63.7279 64.8241 63.6621C63.6089 63.6013 63.3507 62.7105 63.3811 61.6375C63.4975 57.0873 63.5887 52.5372 63.6849 47.9819C63.7051 47.1063 63.6899 46.2307 63.6899 45.2032C62.5659 45.2032 61.528 45.2032 60.1963 45.2032C60.0596 47.0203 59.9179 48.8778 59.7812 50.7404C59.4419 55.3412 59.0672 59.942 58.7837 64.5478C58.5964 67.6201 60.1204 69.6092 63.1786 70.2014C64.3178 70.4241 64.7583 70.7581 64.7532 71.9881C64.7127 86.9141 64.7279 101.845 64.7178 116.771C64.7178 117.252 64.6216 117.733 64.5557 118.33C59.3356 117.591 54.3281 116.655 49.7206 114.251C48.6624 113.699 47.6295 113.041 46.7333 112.267C45.4169 111.133 45.7105 109.746 47.113 108.794C49.9737 106.851 52.9661 105.024 55.5028 102.706C57.9736 100.453 58.6116 97.3759 57.1534 94.1772C55.5382 90.6393 52.2319 89.384 48.6371 90.8974C47.1333 91.53 45.6751 92.2842 43.9789 93.0839C43.4675 88.6349 43.0422 84.3682 42.4549 80.1268C42.1916 78.2287 42.5055 76.8773 43.8574 75.278C48.6016 69.6699 47.0725 58.0237 41.2752 53.5444C38.0398 51.0491 34.207 51.5249 31.8627 54.9869C28.4957 59.9571 28.6222 65.3374 30.5969 70.7784C31.5893 73.5166 33.2095 75.8043 35.7816 77.3481C36.1968 77.5961 36.6272 78.1478 36.6829 78.6033C37.3411 83.9937 37.9233 89.3891 38.5816 95.2552C33.4829 96.3282 28.445 97.4215 23.3818 98.3882C22.9869 98.4641 22.2629 97.7404 21.9641 97.2292C16.7744 88.306 14.2681 78.6438 14.901 68.359C16.0199 50.1431 24.2831 35.87 39.7106 26.0864C71.4569 5.95219 114.418 25.6511 119.527 62.8523C122.631 85.4615 113.998 103.11 95.0261 115.739C94.7121 115.946 94.383 116.138 94.0489 116.321C93.9476 116.376 93.8109 116.381 93.4717 116.462C93.4717 116.088 93.4413 115.754 93.4767 115.435C94.3425 107.2 95.2033 98.9652 96.1147 90.7354C96.221 89.794 95.8564 88.5185 97.3349 88.1237C97.4817 88.0832 97.5425 87.567 97.5779 87.2684C98.8285 75.7689 100.074 64.2694 101.315 52.7649C101.34 52.5675 101.289 52.3752 101.254 51.9804Z" fill="#FA7262"/>
<path d="M17.468 120.633C22.754 124.449 28.2527 127.881 34.3082 130.407C71.467 145.889 113.547 125.578 123.907 87.1165C133.603 51.125 110.281 13.8024 73.6391 6.78225C53.5838 2.94066 35.3715 7.34407 18.9465 19.3699C18.2832 19.8558 17.6199 20.3366 16.9516 20.8124C16.9212 20.8327 16.8503 20.7871 16.3845 20.6656C18.5617 18.6816 20.4857 16.7431 22.5971 15.0374C50.0092 -7.0252 89.9021 -4.55018 114.59 20.7618C128.332 34.8527 135.127 51.8387 135 71.4667C134.777 105.914 109.127 135.468 74.986 140.241C53.2851 143.273 34.1918 137.214 18.1921 122.01C17.8275 121.666 17.5086 121.266 17.1693 120.896C17.2706 120.805 17.3668 120.719 17.468 120.633Z" fill="#FA7262"/>
<path d="M61.4165 11.1857C59.3609 11.626 57.3052 12.041 55.2546 12.5067C29.4424 18.3728 10.0453 41.3161 9.03776 67.1696C8.56182 79.403 11.5694 90.7 18.1313 101.056C18.7794 102.083 19.392 102.473 20.7034 102.306C30.9968 100.995 40.9612 98.5502 50.3332 94.0051C51.6344 93.3724 52.3635 94.0101 53.1635 94.7238C54.3736 95.8069 54.9103 97.2696 54.0901 98.6463C53.2395 100.074 52.1154 101.511 50.7636 102.432C48.1105 104.239 45.2801 105.818 42.3941 107.225C40.9815 107.914 40.7182 108.668 41.1232 110.004C41.8372 112.348 43.3257 114.104 45.2548 115.521C49.6041 118.71 54.6369 120.233 59.8469 121.013C65.0873 121.792 70.4037 122.111 75.6846 122.637C76.5605 122.723 77.4719 122.713 78.2972 122.971C79.7909 123.437 80.8339 124.424 80.8744 126.109C80.9149 127.795 79.8314 128.736 78.3732 128.994C74.0948 129.749 69.8062 130.72 65.4924 130.923C57.3862 131.313 49.2801 130.897 41.5232 128.114C19.2249 120.112 5.61504 104.421 1.10374 81.2453C-4.76957 51.0795 13.4681 21.3641 42.8194 12.6535C48.5712 10.9478 54.4648 10.3252 60.4495 10.5884C60.7735 10.6036 61.0925 10.7251 61.4115 10.7959C61.4115 10.9326 61.4165 11.0591 61.4165 11.1857Z" fill="#120C26"/>
</g>
<defs>
<clipPath id="clip0_1954_914">
<rect width="135" height="141" fill="white"/>
</clipPath>
</defs>
</svg>
