<svg width="23" height="23" viewBox="0 0 23 23" fill="none" xmlns="http://www.w3.org/2000/svg">
<path d="M19.3061 6.89999C18.5203 5.15583 16.8719 4.02499 15.0894 4.02499C13.3069 4.02499 12.1569 4.81083 11.4861 5.65416C10.8152 4.81083 9.66525 4.02499 7.88275 4.02499C6.10025 4.02499 4.45192 5.15583 3.66609 6.89999C2.86109 8.72083 3.20608 10.7333 4.60525 12.305C7.95942 16.0808 10.9303 18.745 10.9686 18.7642C11.1219 18.8983 11.2944 18.9558 11.4861 18.9558C11.6777 18.9558 11.8503 18.8983 12.0036 18.7642C12.0419 18.745 14.9936 16.0617 18.3669 12.305C19.7852 10.7333 20.1303 8.72083 19.3061 6.89999ZM17.2361 11.2892C14.7444 14.0683 12.4827 16.2533 11.5052 17.1542C10.5278 16.2342 8.26609 14.0683 5.77442 11.27C4.77775 10.1392 4.52858 8.77832 5.08442 7.49416C5.60192 6.32499 6.73275 5.52 7.90192 5.52C10.1828 5.52 10.7003 7.22584 10.7578 7.43667C10.8344 7.78167 11.1411 8.01167 11.4861 8.01167C11.8311 8.01167 12.1377 7.7625 12.2336 7.43667C12.2911 7.245 12.8086 5.52 15.0894 5.52C16.2394 5.52 17.3702 6.30582 17.9069 7.49416C18.4819 8.79749 18.2327 10.1583 17.2361 11.2892ZM17.0444 9.06584C17.0636 9.43 16.7953 9.75583 16.4119 9.77499C16.3928 9.77499 16.3736 9.77499 16.3736 9.77499C16.0286 9.77499 15.7219 9.50665 15.7028 9.14248C15.6261 8.04998 14.9169 7.87749 14.7828 7.85833C14.4186 7.80083 14.1694 7.47499 14.2078 7.11082C14.2653 6.74666 14.6103 6.49749 14.9744 6.53582C15.6453 6.63166 16.9294 7.28334 17.0444 9.06584ZM16.1244 10.1775C16.2778 10.3308 16.3544 10.5225 16.3544 10.7142C16.3544 10.925 16.2778 11.1167 16.1244 11.2508C15.9903 11.4042 15.7794 11.4808 15.5877 11.4808C15.3961 11.4808 15.1853 11.4042 15.0511 11.2508C14.8977 11.1167 14.8211 10.9058 14.8211 10.7142C14.8211 10.5225 14.8977 10.3117 15.0511 10.1775C15.1853 10.0433 15.3961 9.9475 15.5877 9.9475C15.7794 9.96666 15.9711 10.0433 16.1244 10.1775Z" fill="#F67363"/>
</svg>
