<svg width="14" height="18" viewBox="0 0 14 18" fill="none" xmlns="http://www.w3.org/2000/svg">
<path d="M3.21003 0.0527344C1.87761 0.355078 0.770184 2.025 0.390497 4.31367C0.228778 5.30508 0.214716 6.24375 0.355341 6.8168C0.587372 7.7625 1.25182 8.57461 2.15886 9.02109C2.36628 9.12305 2.42956 9.17227 2.42956 9.22852C2.42604 9.26719 2.35925 10.923 2.27487 12.9094C2.18347 15.0785 2.13425 16.5973 2.15182 16.7168C2.1905 17.0016 2.35925 17.3391 2.57722 17.5535C3.16081 18.1371 4.08893 18.1371 4.67253 17.5535C4.8905 17.3391 5.05925 17.0016 5.09792 16.7168C5.1155 16.5973 5.06628 15.0785 4.97487 12.9094C4.8905 10.923 4.8237 9.26719 4.82018 9.22852C4.82018 9.17227 4.88347 9.12305 5.0944 9.02109C5.99792 8.57461 6.66237 7.7625 6.8944 6.8168C7.03503 6.24375 7.02097 5.30508 6.85925 4.31367C6.49714 2.14453 5.46354 0.48867 4.22253 0.101952C3.92018 0.00703049 3.49128 -0.0140629 3.21003 0.0527344Z" fill="white"/>
<path d="M8.30103 0.193359C8.30103 0.295313 8.25884 1.51875 8.20963 2.90742C8.16041 4.29609 8.13228 5.53359 8.14283 5.66016C8.23424 6.61641 8.77564 7.44961 9.5772 7.88203L9.7776 7.99102V8.22305C9.77408 8.34961 9.70025 10.2691 9.60533 12.4875C9.50689 14.8992 9.44713 16.6008 9.4647 16.7168C9.50338 17.0016 9.67213 17.3391 9.8901 17.5535C10.4737 18.1371 11.4018 18.1371 11.9854 17.5535C12.2034 17.3391 12.3721 17.0016 12.4108 16.7168C12.4284 16.6008 12.3686 14.8992 12.2702 12.4875C12.1753 10.2691 12.1014 8.34961 12.0979 8.22305V7.99102L12.3018 7.88203C13.0999 7.44961 13.6413 6.61641 13.7327 5.66016C13.7432 5.53359 13.7151 4.29609 13.6659 2.90742C13.6167 1.51875 13.5745 0.295313 13.5745 0.193359V0H13.1034H12.6358L12.6112 0.428907C12.6006 0.667969 12.5585 1.87383 12.5163 3.11133C12.4776 4.34883 12.4389 5.38242 12.4319 5.40352C12.4213 5.43516 12.3159 5.44922 12.0628 5.44922C11.8096 5.44922 11.7042 5.43516 11.6936 5.40352C11.6866 5.38242 11.6479 4.34883 11.6092 3.11133C11.567 1.87383 11.5249 0.667969 11.5143 0.428907L11.4897 0H10.9378H10.3858L10.3612 0.428907C10.3506 0.667969 10.3085 1.87383 10.2663 3.11133C10.2276 4.34883 10.1889 5.38242 10.1819 5.40352C10.1713 5.43516 10.0659 5.44922 9.81275 5.44922C9.55963 5.44922 9.45416 5.43516 9.44361 5.40352C9.43658 5.38242 9.39791 4.34883 9.35924 3.11133C9.31705 1.87383 9.27486 0.667969 9.26431 0.428907L9.2397 0H8.77213H8.30103V0.193359Z" fill="white"/>
</svg>
