<svg width="20" height="20" viewBox="0 0 20 20" fill="none" xmlns="http://www.w3.org/2000/svg">
<path fill-rule="evenodd" clip-rule="evenodd" d="M16.8465 18H3.15344C2.54444 18 2.07745 17.4609 2.16345 16.8589L3.30644 8.85889C3.37644 8.36589 3.79845 8 4.29645 8H4.99945V10C4.99945 10.552 5.44745 11 5.99945 11C6.55245 11 6.99945 10.552 6.99945 10V8H12.9995V10C12.9995 10.552 13.4475 11 13.9995 11C14.5525 11 14.9995 10.552 14.9995 10V8H15.7034C16.2014 8 16.6235 8.36589 16.6935 8.85889L17.8364 16.8589C17.9224 17.4609 17.4555 18 16.8465 18ZM6.99945 5C6.99945 3.346 8.34545 2 9.99945 2C11.6545 2 12.9995 3 12.9995 5V6H6.99945V5ZM19.9794 17.717L18.5504 7.71704C18.4104 6.73204 17.5665 6 16.5705 6H14.9995V5C14.9995 2 12.7565 0 9.99945 0C7.24345 0 4.99945 2.243 4.99945 5V6H3.73445C2.73945 6 1.58944 6.73204 1.44844 7.71704L0.0204481 17.717C-0.151552 18.922 0.783444 20 2.00044 20H17.9995C19.2165 20 20.1514 18.922 19.9794 17.717Z" fill="white"/>
</svg>
