<svg width="19" height="21" viewBox="0 0 19 21" fill="none" xmlns="http://www.w3.org/2000/svg">
<path d="M7.03018 1.59947C8.56352 0.689052 10.4802 0.689052 12.0135 1.59947C13.5469 2.50989 14.4477 4.18697 14.3806 5.95989V6.1803C15.5881 6.1803 16.8627 7.02364 17.3035 9.07447L18.0414 14.8149C18.5886 18.562 16.4123 20.0857 13.4894 20.0857H5.54477C2.61323 20.0857 0.369767 19.0316 0.973517 14.8149L1.72102 9.07447C1.83602 8.22155 2.2481 7.42614 2.89018 6.84155C3.37989 6.41126 4.01143 6.1803 4.6631 6.1803V5.95989C4.58643 4.18697 5.49781 2.50989 7.03018 1.59947ZM12.2723 9.26614C11.8036 9.26614 11.4194 9.63989 11.4194 10.1095C11.4194 10.5695 11.8036 10.9528 12.2723 10.9528C12.4927 10.9528 12.7131 10.8666 12.8664 10.7036C13.0294 10.5503 13.1156 10.3299 13.1156 10.1095C13.1156 9.63989 12.7323 9.26614 12.2723 9.26614ZM6.71393 9.26614C6.24435 9.26614 5.86102 9.63989 5.86102 10.1095C5.86102 10.5695 6.24435 10.9528 6.71393 10.9528C7.18352 10.9528 7.55727 10.5695 7.55727 10.1095C7.55727 9.63989 7.18352 9.26614 6.71393 9.26614ZM9.50268 2.58655C7.63393 2.58655 6.11977 4.10072 6.11977 5.95989V6.17168H12.8952V5.95989C12.8952 4.10072 11.381 2.58655 9.50268 2.58655Z" fill="#D5D7DC"/>
</svg>
