<svg width="26" height="26" viewBox="0 0 26 26" fill="none" xmlns="http://www.w3.org/2000/svg">
<path d="M22.4781 13L23.6741 10.933C23.8179 10.6843 23.857 10.3887 23.7828 10.1112C23.7087 9.8337 23.5274 9.597 23.2787 9.45316L21.2096 8.25716V5.87382C21.2096 5.58651 21.0954 5.31096 20.8923 5.10779C20.6891 4.90463 20.4135 4.79049 20.1262 4.79049H17.744L16.5491 2.72241C16.4047 2.47423 16.1685 2.29287 15.8915 2.21757C15.7541 2.18032 15.6106 2.17072 15.4695 2.18932C15.3283 2.20791 15.1923 2.25434 15.0692 2.32591L13.0001 3.52191L10.9309 2.32482C10.6821 2.18117 10.3864 2.14224 10.1089 2.2166C9.83134 2.29096 9.59473 2.47251 9.45106 2.72132L8.25506 4.79049H5.87281C5.58549 4.79049 5.30994 4.90463 5.10678 5.10779C4.90362 5.31096 4.78948 5.58651 4.78948 5.87382V8.25607L2.72031 9.45208C2.59685 9.52309 2.48863 9.61781 2.40188 9.73077C2.31513 9.84374 2.25156 9.97274 2.21482 10.1104C2.17807 10.248 2.16888 10.3915 2.18777 10.5327C2.20666 10.6738 2.25326 10.8099 2.3249 10.933L3.5209 13L2.3249 15.067C2.18188 15.3159 2.14308 15.6113 2.21695 15.8887C2.29082 16.1661 2.47137 16.4031 2.71923 16.5479L4.7884 17.7439V20.1262C4.7884 20.4135 4.90253 20.689 5.1057 20.8922C5.30886 21.0954 5.58441 21.2095 5.87173 21.2095H8.25506L9.45106 23.2787C9.54697 23.4426 9.68391 23.5788 9.84841 23.6737C10.0129 23.7687 10.1993 23.8192 10.3892 23.8203C10.5777 23.8203 10.7651 23.7705 10.932 23.6741L12.999 22.4781L15.0681 23.6741C15.3169 23.8175 15.6124 23.8565 15.8898 23.7823C16.1672 23.7082 16.4039 23.5271 16.548 23.2787L17.7429 21.2095H20.1251C20.4125 21.2095 20.688 21.0954 20.8912 20.8922C21.0943 20.689 21.2085 20.4135 21.2085 20.1262V17.7439L23.2776 16.5479C23.4009 16.4767 23.5089 16.3819 23.5955 16.2689C23.6821 16.1559 23.7455 16.0269 23.7823 15.8894C23.819 15.7519 23.8283 15.6084 23.8095 15.4673C23.7908 15.3262 23.7444 15.1902 23.6731 15.067L22.4781 13ZM10.2906 7.57249C10.7218 7.57263 11.1352 7.74403 11.4399 8.04898C11.7447 8.35393 11.9158 8.76745 11.9156 9.19858C11.9155 9.6297 11.7441 10.0431 11.4392 10.3478C11.1342 10.6526 10.7207 10.8237 10.2896 10.8236C9.85844 10.8234 9.44504 10.652 9.14029 10.3471C8.83554 10.0421 8.66442 9.62861 8.66456 9.19749C8.66471 8.76637 8.83611 8.35297 9.14106 8.04822C9.446 7.74347 9.85952 7.57235 10.2906 7.57249ZM10.6156 17.9725L8.88231 16.6736L15.3823 8.00691L17.1156 9.30583L10.6156 17.9725ZM15.7073 18.4058C15.4938 18.4058 15.2825 18.3636 15.0853 18.2819C14.8881 18.2001 14.7089 18.0803 14.558 17.9293C14.4071 17.7783 14.2875 17.5991 14.2058 17.4019C14.1242 17.2046 14.0822 16.9932 14.0823 16.7797C14.0824 16.5663 14.1245 16.3549 14.2063 16.1577C14.288 15.9605 14.4078 15.7814 14.5588 15.6305C14.7098 15.4796 14.889 15.3599 15.0863 15.2783C15.2835 15.1966 15.4949 15.1547 15.7084 15.1547C16.1395 15.1549 16.5529 15.3263 16.8577 15.6312C17.1624 15.9362 17.3335 16.3497 17.3334 16.7808C17.3333 17.2119 17.1619 17.6254 16.8569 17.9301C16.552 18.2348 16.1384 18.406 15.7073 18.4058Z" fill="white"/>
</svg>
