<svg width="17" height="21" viewBox="0 0 17 21" fill="none" xmlns="http://www.w3.org/2000/svg">
<path d="M5.66993 0.898255C5.37462 0.992591 5.18184 1.15665 5.0752 1.40275C5.02598 1.52579 5.01368 1.74318 5.01368 2.51837V3.48224L3.13926 3.49454L1.26075 3.50685L1.06798 3.62169C0.723444 3.82267 0.559382 4.23693 0.666022 4.62657C0.727546 4.85626 0.994147 5.13107 1.22383 5.20079C1.46993 5.27462 15.5301 5.27462 15.7762 5.20079C16.01 5.13107 16.2643 4.86447 16.3299 4.62247C16.4406 4.23282 16.2766 3.82267 15.932 3.62169L15.7393 3.50685L13.8648 3.49454L11.9863 3.48224V2.51837C11.9863 1.74318 11.974 1.52579 11.9248 1.40275C11.8428 1.20997 11.7197 1.08283 11.5147 0.972083C11.3506 0.881849 11.3301 0.881849 8.56153 0.873646C7.02754 0.869544 5.72735 0.881849 5.66993 0.898255ZM10.2637 3.05568V3.48634H8.50001H6.73633V3.05568V2.62501H8.50001H10.2637V3.05568Z" fill="#FF0000"/>
<path d="M2.1346 6.16055C2.04846 6.18106 1.89671 6.27539 1.79417 6.36563C1.46194 6.65684 1.48245 6.28359 1.49475 12.0832L1.50706 17.2061L1.60139 17.5342C1.72034 17.973 2.00745 18.5432 2.26585 18.859C2.70471 19.3963 3.37737 19.827 4.09104 20.0279L4.41917 20.1182H8.50022H12.5813L12.9094 20.0279C13.6231 19.827 14.2957 19.3963 14.7346 18.859C14.993 18.5432 15.2801 17.973 15.399 17.5342L15.4934 17.2061L15.5057 12.1201C15.5139 8.46973 15.5057 6.97266 15.4729 6.8209C15.4401 6.67324 15.3785 6.5543 15.2637 6.42305C14.8576 5.95957 14.1317 6.05801 13.8569 6.60762L13.7502 6.825V11.8781C13.7502 16.8 13.7461 16.9395 13.6682 17.1938C13.5082 17.7188 13.094 18.1289 12.5649 18.2971C12.3188 18.3709 12.1588 18.375 8.50022 18.375C4.82112 18.375 4.68577 18.3709 4.43147 18.293C3.90647 18.133 3.49632 17.7188 3.32815 17.1896C3.25432 16.9395 3.25022 16.7713 3.25022 11.874V6.8168L3.13538 6.59941C2.94671 6.23438 2.52424 6.04981 2.1346 6.16055Z" fill="#FF0000"/>
<path d="M6.45747 7.92015C6.2688 7.97757 5.97349 8.28108 5.92017 8.47386C5.85864 8.69534 5.85864 14.9297 5.92017 15.1512C5.98169 15.3727 6.2606 15.6393 6.50259 15.7049C6.89224 15.8157 7.3024 15.6516 7.50337 15.3071L7.61822 15.1143V11.8125V8.51077L7.50337 8.318C7.3024 7.97347 6.84712 7.8012 6.45747 7.92015Z" fill="#FF0000"/>
<path d="M9.84941 7.98987C9.68945 8.0719 9.59512 8.15804 9.50488 8.30569L9.38184 8.50257V11.8084V15.1143L9.49668 15.3071C9.69766 15.6516 10.1078 15.8157 10.4975 15.7049C10.7394 15.6393 11.0061 15.385 11.0758 15.1512C11.1455 14.9092 11.1455 8.71585 11.0758 8.47386C11.0102 8.25647 10.7436 7.98987 10.5262 7.92425C10.2637 7.84632 10.0873 7.86272 9.84941 7.98987Z" fill="#FF0000"/>
</svg>
