<svg width="60" height="24" viewBox="0 0 60 24" fill="none" xmlns="http://www.w3.org/2000/svg">
<path d="M57.3734 0.0838227C57.3625 0.226849 56.6813 1.17302 56.2617 1.6241C56.0164 1.88264 55.4115 2.42174 54.9155 2.82331C53.6185 3.8685 53.2097 4.35809 53.128 4.95219C53.1171 5.06771 53.0898 5.16123 53.068 5.16123C53.0517 5.16123 52.9754 5.09522 52.8991 5.0127C52.7138 4.81467 52.4631 4.72115 52.1361 4.72115C51.2369 4.72115 50.7518 5.74433 51.3241 6.43746C51.5312 6.7015 51.7873 6.81152 52.1688 6.81152C52.6756 6.81152 53.0135 6.56398 53.1988 6.05239C53.2424 5.93687 53.2751 5.88186 53.2751 5.91486C53.2806 6.03038 53.6948 6.20642 53.9618 6.20642C54.5122 6.20642 55.2589 5.79934 55.9292 5.13372C56.7685 4.30308 57.2644 3.20288 57.4225 1.83314C57.4879 1.24453 57.4879 0.281858 57.4225 0.127831C57.3952 0.0673199 57.3734 0.0453162 57.3734 0.0838227Z" fill="black" fill-opacity="0.25"/>
<path d="M17.6111 1.184C13.758 1.49756 11.7525 2.94432 10.3846 6.38243L10.1503 6.97654H8.5807H7.01115V7.47163V7.96671H8.40086C9.34368 7.96671 9.79056 7.98322 9.79056 8.02723C9.79056 8.05473 9.71971 8.37379 9.63252 8.72585C9.30008 10.0626 9.09843 11.1573 8.61885 14.2928C7.91582 18.8917 7.38719 20.6245 6.35717 21.6642C6.13373 21.8952 5.82309 22.1482 5.66504 22.2308C4.80942 22.6873 3.44697 22.7479 2.00276 22.3848L1.59402 22.2803L1.20709 22.7038C0.629406 23.3255 0.400513 23.5895 0.422312 23.606C0.433212 23.6115 12.7716 23.6115 27.8458 23.6005L55.2421 23.584V23.0394V22.4893L30.8705 22.4783L6.49342 22.4618L6.71141 22.3243C7.082 22.0932 7.67603 21.5651 8.06297 21.1251C9.20743 19.8268 9.98131 18.0995 10.5753 15.5031C10.7715 14.6394 10.9296 13.7923 11.4201 11.0198C11.649 9.73253 11.8451 8.75886 11.9977 8.08774L12.025 7.96671H35.759H59.493V7.47163V6.97654H35.8952C22.7175 6.97654 12.2975 6.95453 12.2975 6.92703C12.2975 6.83901 12.728 5.34825 12.8697 4.94117C13.322 3.66495 13.9379 2.89481 14.8589 2.44923C15.5074 2.13567 15.9979 2.02565 16.7391 2.02565C17.3604 2.02565 17.9435 2.12467 18.4885 2.32271L18.8264 2.44923L19.4749 1.79461L20.118 1.1455L18.9735 1.1565C18.3413 1.162 17.731 1.173 17.6111 1.184Z" fill="black" fill-opacity="0.25"/>
<path d="M55.0081 9.37498C53.9672 9.71054 53.0025 9.95808 51.5474 10.2496C50.8662 10.3872 50.2395 10.5302 50.1523 10.5632C49.9234 10.6567 49.6836 10.8767 49.6836 10.9978C49.6836 11.2068 49.907 11.2398 50.5992 11.1408C50.948 11.0913 51.5474 11.0473 51.9289 11.0473C52.5884 11.0473 52.6265 11.0528 52.7846 11.1848C52.9044 11.2893 52.9644 11.4048 53.0134 11.6414C53.166 12.395 52.9153 13.7042 51.918 17.3184C51.4493 19.0182 51.3567 19.5353 51.3839 20.2339C51.4003 20.674 51.4275 20.8115 51.5529 21.0756C51.7327 21.4331 51.9126 21.5871 52.3431 21.7192C53.7383 22.1593 56.0599 21.5156 57.3406 20.3329C57.6676 20.0304 58.1199 19.4363 58.0654 19.3813C58.0545 19.3648 57.8148 19.5298 57.5368 19.7388C56.6703 20.4044 55.782 20.773 54.9045 20.8225C54.4958 20.85 54.4032 20.839 54.1906 20.7345C53.7219 20.5035 53.602 20.0799 53.7437 19.1337C53.8255 18.5616 53.9345 18.116 54.4958 16.1357C54.632 15.6516 54.9209 14.6119 55.1334 13.8253C55.3514 13.0386 55.6839 11.9164 55.8746 11.3333C56.2398 10.2441 56.3978 9.58952 56.3487 9.38048C56.267 9.05042 56 9.05042 55.0081 9.37498Z" fill="black" fill-opacity="0.25"/>
<path d="M17.8729 10.1341C17.3224 10.2442 16.9736 10.3652 16.4123 10.6512C15.7692 10.9868 14.9681 11.7624 14.7011 12.318C14.385 12.9782 14.4177 13.5723 14.8101 14.1884C15.1207 14.667 15.4313 14.986 16.3851 15.8002C18.4614 17.5605 18.8102 18.1931 18.1181 18.9082C17.6603 19.3758 16.881 19.6398 15.9218 19.6453C14.9572 19.6508 14.1724 19.4693 13.3986 19.0512L13.0334 18.8587L12.5048 19.3923C12.2105 19.6894 11.9707 19.9424 11.9707 19.9644C11.9707 20.0359 12.5157 20.289 12.8972 20.3935C14.2269 20.7565 16.0472 20.6135 17.4641 20.0414C19.001 19.4143 19.9765 18.2316 19.7694 17.2524C19.6223 16.5758 19.1263 15.9542 17.7475 14.733C16.7611 13.8638 16.3742 13.4402 16.1671 13.0002C15.8673 12.384 15.8946 11.944 16.2652 11.5314C16.8537 10.8768 18.6031 10.5027 19.6114 10.8218C20.1018 10.9813 20.2544 11.1573 20.2599 11.5864C20.2599 11.7569 20.2926 12.01 20.3253 12.1475C20.3798 12.3565 20.4125 12.395 20.5433 12.4115C20.6632 12.4281 20.7395 12.384 20.8921 12.219C21.0011 12.109 21.121 11.9275 21.1646 11.8229C21.3716 11.3279 21.3553 10.6182 21.1319 10.4367C20.8103 10.1726 18.6958 9.98011 17.8729 10.1341Z" fill="black" fill-opacity="0.25"/>
<path d="M28.3361 10.1342C27.2842 10.3377 26.4177 10.8108 25.7256 11.5534C24.7664 12.5931 24.7119 13.4843 25.5349 14.535C25.8182 14.898 26.1452 15.1951 27.2897 16.1743C28.4124 17.1369 28.9192 17.7806 28.9192 18.2536C28.9192 18.5397 28.6576 18.9248 28.3088 19.1558C27.2625 19.8489 25.2733 19.8104 23.9108 19.0733L23.5021 18.8533L23.0225 19.3373C22.7554 19.6014 22.5102 19.8654 22.483 19.9149C22.4394 19.992 22.4939 20.036 22.7936 20.179C23.3549 20.454 24.058 20.5751 25.0226 20.5806C27.3823 20.5806 29.3661 19.6674 30.1073 18.2316C30.2272 18.0006 30.2544 17.8741 30.2544 17.533C30.2544 17.17 30.2326 17.0764 30.0637 16.7409C29.8293 16.2733 29.208 15.6022 28.0963 14.6175C27.0009 13.6438 26.6466 13.2092 26.4995 12.6261C26.276 11.7625 26.7992 11.1849 28.0854 10.8493C29.0936 10.5853 30.1182 10.6788 30.5323 11.0639C30.7176 11.2344 30.7285 11.2619 30.7558 11.7075C30.7994 12.4061 30.9629 12.5766 31.3117 12.2851C31.8022 11.8615 31.9711 10.6788 31.5733 10.4147C31.1809 10.1617 29.1263 9.98566 28.3361 10.1342Z" fill="black" fill-opacity="0.25"/>
<path d="M41.4708 10.222C39.7922 10.3871 37.9774 11.3332 36.4188 12.8625C34.8983 14.3533 33.9936 16.0531 33.8955 17.6209C33.7375 20.1018 35.7321 21.279 38.1028 20.0908C39.1437 19.5737 40.1846 18.6826 41.934 16.8067C42.5771 16.1191 43.1112 15.558 43.1166 15.558C43.1275 15.558 43.024 15.8936 42.8932 16.3006C42.5498 17.3678 42.419 18.1325 42.4463 18.8531C42.479 19.7442 42.6915 20.1348 43.2801 20.4099C43.6779 20.5969 44.5063 20.5804 45.1821 20.3769C46.1521 20.0853 46.8552 19.6727 47.5419 19.0071C47.9288 18.6275 48.3648 18.0609 48.3103 18.0059C48.2939 17.9894 48.1032 18.1105 47.8797 18.27C46.6317 19.1666 45.6562 19.6287 45.0077 19.6287C44.2447 19.6287 44.1085 19.0236 44.5281 17.4833C44.6262 17.1038 44.8496 16.2621 45.0186 15.613C45.4437 13.9407 45.8252 12.6095 46.2012 11.4653C46.3756 10.9207 46.5227 10.4421 46.5227 10.4036C46.5227 10.3486 46.3374 10.3321 45.6944 10.3321C45.2366 10.3321 44.5663 10.3046 44.2066 10.2771C43.1057 10.1945 41.9994 10.1725 41.4708 10.222ZM42.9204 11.1242C43.5417 11.3002 43.9068 11.6633 43.9068 12.1034C43.9068 12.978 42.4844 15.0739 40.6151 16.9662C39.596 17.9894 38.9965 18.468 38.3099 18.8146C37.3452 19.2987 36.4678 19.1171 36.1844 18.3745C36.0536 18.0224 36.0536 17.0708 36.1899 16.4657C36.6804 14.2983 38.1409 12.1914 39.6941 11.4103C40.359 11.0747 40.8004 10.9922 41.7814 11.0142C42.31 11.0307 42.7351 11.0692 42.9204 11.1242Z" fill="black" fill-opacity="0.25"/>
</svg>
