<svg width="22" height="19" viewBox="0 0 22 19" fill="none" xmlns="http://www.w3.org/2000/svg">
<path d="M19.1031 2.22583C18.6349 1.75742 18.079 1.38584 17.4672 1.13233C16.8554 0.878812 16.1996 0.748327 15.5373 0.748327C14.875 0.748327 14.2192 0.878812 13.6074 1.13233C12.9955 1.38584 12.4396 1.75742 11.9714 2.22583L10.9998 3.1975L10.0281 2.22583C9.0824 1.28012 7.79973 0.748817 6.46228 0.748817C5.12484 0.748817 3.84217 1.28012 2.89645 2.22583C1.95073 3.17155 1.41943 4.45422 1.41943 5.79167C1.41943 7.12911 1.95073 8.41178 2.89645 9.3575L3.86812 10.3292L10.9998 17.4608L18.1314 10.3292L19.1031 9.3575C19.5715 8.88931 19.9431 8.33341 20.1966 7.72157C20.4501 7.10974 20.5806 6.45395 20.5806 5.79167C20.5806 5.12939 20.4501 4.4736 20.1966 3.86176C19.9431 3.24992 19.5715 2.69403 19.1031 2.22583V2.22583Z" stroke="#120D26" stroke-width="1.2" stroke-linecap="round" stroke-linejoin="round"/>
</svg>
