<svg width="23" height="23" viewBox="0 0 23 23" fill="none" xmlns="http://www.w3.org/2000/svg">
<path fill-rule="evenodd" clip-rule="evenodd" d="M17.2361 11.2892C14.7444 14.0684 12.4827 16.2534 11.5052 17.1542C10.5278 16.2342 8.26608 14.0684 5.77442 11.27C4.77775 10.1392 4.52858 8.77835 5.08442 7.49419C5.60192 6.32502 6.73275 5.52003 7.90192 5.52003C10.1827 5.52003 10.7003 7.22587 10.7578 7.4367C10.8344 7.7817 11.1411 8.0117 11.4861 8.0117C11.8311 8.0117 12.1377 7.76253 12.2336 7.4367C12.2911 7.24503 12.8086 5.52003 15.0894 5.52003C16.2394 5.52003 17.3702 6.30585 17.9069 7.49419C18.4819 8.79752 18.2327 10.1584 17.2361 11.2892ZM16.4119 9.77502C16.7953 9.75586 17.0636 9.43003 17.0444 9.06587C16.9294 7.28337 15.6453 6.63169 14.9744 6.53585C14.6103 6.49752 14.2653 6.74669 14.2078 7.11085C14.1694 7.47502 14.4186 7.80086 14.7828 7.85836C14.9169 7.87752 15.6261 8.05001 15.7027 9.14251C15.7219 9.50668 16.0286 9.77502 16.3736 9.77502H16.4119ZM16.3544 10.7142C16.3544 10.5225 16.2778 10.3309 16.1244 10.1775C15.9711 10.0434 15.7794 9.96669 15.5877 9.94753C15.3961 9.94753 15.1852 10.0434 15.0511 10.1775C14.8977 10.3117 14.8211 10.5225 14.8211 10.7142C14.8211 10.9059 14.8977 11.1167 15.0511 11.2508C15.1852 11.4042 15.3961 11.4809 15.5877 11.4809C15.7794 11.4809 15.9903 11.4042 16.1244 11.2508C16.2778 11.1167 16.3544 10.925 16.3544 10.7142Z" fill="#F67363"/>
<path fill-rule="evenodd" clip-rule="evenodd" d="M19.3061 6.90002C18.5203 5.15586 16.8719 4.02502 15.0894 4.02502C13.3069 4.02502 12.1569 4.81086 11.4861 5.65419C10.8152 4.81086 9.66525 4.02502 7.88275 4.02502C6.10025 4.02502 4.45192 5.15586 3.66608 6.90002C2.86108 8.72086 3.20608 10.7333 4.60525 12.305C7.95942 16.0808 10.9303 18.745 10.9686 18.7642C11.1219 18.8984 11.2944 18.9559 11.4861 18.9559C11.6777 18.9559 11.8503 18.8984 12.0036 18.7642C12.0419 18.745 14.9936 16.0617 18.3669 12.305C19.7852 10.7333 20.1303 8.72086 19.3061 6.90002ZM17.2361 11.2892C14.7444 14.0684 12.4827 16.2534 11.5052 17.1542C10.5278 16.2342 8.26608 14.0684 5.77442 11.27C4.77775 10.1392 4.52858 8.77835 5.08442 7.49419C5.60192 6.32502 6.73275 5.52003 7.90192 5.52003C10.1827 5.52003 10.7003 7.22587 10.7578 7.4367C10.8344 7.7817 11.1411 8.0117 11.4861 8.0117C11.8311 8.0117 12.1377 7.76253 12.2336 7.4367C12.2911 7.24503 12.8086 5.52003 15.0894 5.52003C16.2394 5.52003 17.3702 6.30585 17.9069 7.49419C18.4819 8.79752 18.2327 10.1584 17.2361 11.2892Z" fill="#F67363"/>
</svg>
