<svg width="22" height="20" viewBox="0 0 22 20" fill="none" xmlns="http://www.w3.org/2000/svg">
<path d="M8.38867 16.1232L1.85967 16.1232" stroke="#FC6A57" stroke-width="2" stroke-linecap="round"/>
<path d="M20.1406 16.1232L8.38863 16.1232" stroke="#FC6A57" stroke-opacity="0.25" stroke-width="2" stroke-linecap="round"/>
<path d="M11.2061 16C11.2061 14.3431 9.86291 13 8.20605 13C6.5492 13 5.20605 14.3431 5.20605 16C5.20605 17.6569 6.5492 19 8.20605 19C9.86291 19 11.2061 17.6569 11.2061 16Z" fill="#FC6A57" stroke="#FC6A57" stroke-width="1.5"/>
<path d="M13.6113 3.87682L20.1403 3.87681" stroke="#FC6A57" stroke-width="2" stroke-linecap="round"/>
<path d="M1.85938 3.87682L13.6114 3.87681" stroke="#FC6A57" stroke-opacity="0.25" stroke-width="2" stroke-linecap="round"/>
<path d="M10.7939 4C10.7939 5.65685 12.1371 7 13.7939 7C15.4508 7 16.7939 5.65685 16.7939 4C16.7939 2.34315 15.4508 1 13.7939 1C12.1371 1 10.7939 2.34315 10.7939 4Z" fill="#FC6A57" stroke="#FC6A57" stroke-width="1.5"/>
</svg>
