<?xml version="1.0" encoding="UTF-8"?>
<!DOCTYPE svg PUBLIC "-//W3C//DTD SVG 1.1//EN" "http://www.w3.org/Graphics/SVG/1.1/DTD/svg11.dtd">
<svg xmlns="http://www.w3.org/2000/svg" version="1.1" width="350px" height="280px" style="shape-rendering:geometricPrecision; text-rendering:geometricPrecision; image-rendering:optimizeQuality; fill-rule:evenodd; clip-rule:evenodd" xmlns:xlink="http://www.w3.org/1999/xlink">
<g><path style="opacity:1" fill="#fefefe" d="M -0.5,-0.5 C 116.167,-0.5 232.833,-0.5 349.5,-0.5C 349.5,92.8333 349.5,186.167 349.5,279.5C 232.833,279.5 116.167,279.5 -0.5,279.5C -0.5,186.167 -0.5,92.8333 -0.5,-0.5 Z"/></g>
<g><path style="opacity:1" fill="#e39ba4" d="M 156.5,41.5 C 154.485,42.9238 152.152,43.5905 149.5,43.5C 151.515,42.0762 153.848,41.4095 156.5,41.5 Z"/></g>
<g><path style="opacity:1" fill="#bc172e" d="M 241.5,112.5 C 239.97,114.346 237.97,115.346 235.5,115.5C 234.137,108.301 229.803,103.801 222.5,102C 220.19,101.503 217.857,101.337 215.5,101.5C 215.5,100.833 215.167,100.5 214.5,100.5C 206.396,89.0831 195.396,82.0831 181.5,79.5C 156.274,75.3609 137.107,84.3609 124,106.5C 122.991,108.025 122.491,109.692 122.5,111.5C 115.324,111.764 109.491,114.764 105,120.5C 103.301,118.304 101.467,116.304 99.5,114.5C 110.457,80.7068 133.624,62.3734 169,59.5C 205.536,60.4957 229.702,78.1623 241.5,112.5 Z"/></g>
<g><path style="opacity:1" fill="#d97885" d="M 100.5,68.5 C 96.8019,68.5524 93.1352,68.8857 89.5,69.5C 91.2897,68.0027 93.4563,67.336 96,67.5C 97.7067,67.5085 99.2067,67.8418 100.5,68.5 Z"/></g>
<g><path style="opacity:1" fill="#be2434" d="M 75.5,92.5 C 76.1667,94.5 76.8333,96.5 77.5,98.5C 77.442,102.407 79.2753,104.741 83,105.5C 91.8287,102.748 99.162,97.7479 105,90.5C 106.59,88.3502 107.257,86.0168 107,83.5C 101.25,91.9674 93.7501,98.4674 84.5,103C 80.8183,103.157 78.8183,101.323 78.5,97.5C 78.6633,95.1432 78.4966,92.8098 78,90.5C 77.31,91.7383 76.81,91.7383 76.5,90.5C 77.0493,81.052 81.3827,74.052 89.5,69.5C 93.1352,68.8857 96.8019,68.5524 100.5,68.5C 102.068,69.4731 103.735,69.6397 105.5,69C 118.342,57.0876 133.009,48.5876 149.5,43.5C 152.152,43.5905 154.485,42.9238 156.5,41.5C 161.019,39.8522 165.686,39.3522 170.5,40C 173.167,42.3333 173.167,44.6667 170.5,47C 146.353,48.759 125.353,57.5923 107.5,73.5C 110.446,80.6013 109.612,87.268 105,93.5C 99.6528,99.1889 93.4861,103.689 86.5,107C 82.4179,108.293 79.2513,107.126 77,103.5C 75.7633,99.9399 75.2633,96.2733 75.5,92.5 Z"/></g>
<g><path style="opacity:1" fill="#1d2027" d="M 164.5,81.5 C 169.5,81.5 174.5,81.5 179.5,81.5C 180.167,81.5 180.833,81.5 181.5,81.5C 176.833,82.1667 172.167,82.8333 167.5,83.5C 166.5,83.5 165.5,83.5 164.5,83.5C 163.448,83.6495 162.448,83.4828 161.5,83C 162.737,82.7679 163.737,82.2679 164.5,81.5 Z"/></g>
<g><path style="opacity:1" fill="#9b7e44" d="M 181.5,81.5 C 184.272,81.7587 186.605,82.7587 188.5,84.5C 181.535,83.6591 174.535,83.3257 167.5,83.5C 172.167,82.8333 176.833,82.1667 181.5,81.5 Z"/></g>
<g><path style="opacity:1" fill="#f97d0a" d="M 181.5,79.5 C 195.396,82.0831 206.396,89.0831 214.5,100.5C 209.89,96.9055 205.224,93.2389 200.5,89.5C 196.864,87.0627 192.864,85.396 188.5,84.5C 186.605,82.7587 184.272,81.7587 181.5,81.5C 180.833,81.5 180.167,81.5 179.5,81.5C 180.167,80.8333 180.833,80.1667 181.5,79.5 Z"/></g>
<g><path style="opacity:1" fill="#e99108" d="M 181.5,79.5 C 180.833,80.1667 180.167,80.8333 179.5,81.5C 174.5,81.5 169.5,81.5 164.5,81.5C 146.679,84.6506 133.679,94.3173 125.5,110.5C 124.675,111.386 123.675,111.719 122.5,111.5C 122.491,109.692 122.991,108.025 124,106.5C 137.107,84.3609 156.274,75.3609 181.5,79.5 Z"/></g>
<g><path style="opacity:1" fill="#fac558" d="M 164.5,83.5 C 165.5,83.5 166.5,83.5 167.5,83.5C 174.535,83.3257 181.535,83.6591 188.5,84.5C 192.864,85.396 196.864,87.0627 200.5,89.5C 197.739,91.1674 194.572,92.1674 191,92.5C 190.781,91.062 190.281,89.7287 189.5,88.5C 188.893,88.6236 188.56,88.9569 188.5,89.5C 188.443,90.609 188.11,91.609 187.5,92.5C 183.936,91.5773 180.269,91.244 176.5,91.5C 174.484,86.7208 171.484,85.7208 167.5,88.5C 162.784,91.6076 157.617,92.2742 152,90.5C 150.416,91.8613 148.582,92.528 146.5,92.5C 148.927,90.4424 151.593,88.6091 154.5,87C 158.109,86.2987 161.442,85.1321 164.5,83.5 Z"/></g>
<g><path style="opacity:1" fill="#ec9e42" d="M 176.5,91.5 C 176.356,96.8128 173.69,98.9794 168.5,98C 166.161,95.1127 165.828,91.946 167.5,88.5C 171.484,85.7208 174.484,86.7208 176.5,91.5 Z"/></g>
<g><path style="opacity:1" fill="#da7f8c" d="M 76.5,90.5 C 76.81,91.7383 77.31,91.7383 78,90.5C 78.4966,92.8098 78.6633,95.1432 78.5,97.5C 77.8333,97.5 77.5,97.8333 77.5,98.5C 76.8333,96.5 76.1667,94.5 75.5,92.5C 75.3284,91.5084 75.6618,90.8417 76.5,90.5 Z"/></g>
<g><path style="opacity:1" fill="#e8882e" d="M 188.5,89.5 C 189.124,89.9169 189.457,90.5836 189.5,91.5C 188.703,94.8204 188.036,98.1538 187.5,101.5C 186.5,101.5 185.5,101.5 184.5,101.5C 185.216,98.4018 186.216,95.4018 187.5,92.5C 188.11,91.609 188.443,90.609 188.5,89.5 Z"/></g>
<g><path style="opacity:1" fill="#f7b641" d="M 167.5,88.5 C 165.828,91.946 166.161,95.1127 168.5,98C 173.69,98.9794 176.356,96.8128 176.5,91.5C 180.269,91.244 183.936,91.5773 187.5,92.5C 186.216,95.4018 185.216,98.4018 184.5,101.5C 175.496,99.2033 170.829,102.537 170.5,111.5C 167.5,111.5 164.5,111.5 161.5,111.5C 163.948,110.527 166.615,110.194 169.5,110.5C 169.244,108.208 169.577,106.041 170.5,104C 168.402,103.322 166.402,103.489 164.5,104.5C 165.482,98.6635 163.149,95.8302 157.5,96C 155.859,97.129 154.859,98.629 154.5,100.5C 150.833,100.5 147.167,100.5 143.5,100.5C 141.895,99.0313 141.395,99.3646 142,101.5C 143.707,103.037 145.207,104.704 146.5,106.5C 142.445,106.176 138.445,106.509 134.5,107.5C 133.754,108.736 133.421,110.07 133.5,111.5C 135.38,111.229 136.713,111.896 137.5,113.5C 135.076,112.97 132.743,112.136 130.5,111C 134.336,103.467 139.669,97.2999 146.5,92.5C 148.582,92.528 150.416,91.8613 152,90.5C 157.617,92.2742 162.784,91.6076 167.5,88.5 Z"/></g>
<g><path style="opacity:1" fill="#ec9635" d="M 164.5,104.5 C 161.46,108.473 158.294,108.473 155,104.5C 154.51,103.207 154.343,101.873 154.5,100.5C 154.859,98.629 155.859,97.129 157.5,96C 163.149,95.8302 165.482,98.6635 164.5,104.5 Z"/></g>
<g><path style="opacity:1" fill="#f4b440" d="M 188.5,89.5 C 188.56,88.9569 188.893,88.6236 189.5,88.5C 190.281,89.7287 190.781,91.062 191,92.5C 194.572,92.1674 197.739,91.1674 200.5,89.5C 205.224,93.2389 209.89,96.9055 214.5,100.5C 215.167,100.5 215.5,100.833 215.5,101.5C 207.232,100.492 199.565,102.159 192.5,106.5C 190.479,105.145 188.812,103.479 187.5,101.5C 188.036,98.1538 188.703,94.8204 189.5,91.5C 189.457,90.5836 189.124,89.9169 188.5,89.5 Z"/></g>
<g><path style="opacity:1" fill="#f6e0e0" d="M 77.5,98.5 C 77.5,97.8333 77.8333,97.5 78.5,97.5C 78.8183,101.323 80.8183,103.157 84.5,103C 93.7501,98.4674 101.25,91.9674 107,83.5C 107.257,86.0168 106.59,88.3502 105,90.5C 99.162,97.7479 91.8287,102.748 83,105.5C 79.2753,104.741 77.442,102.407 77.5,98.5 Z"/></g>
<g><path style="opacity:1" fill="#fbaf30" d="M 143.5,100.5 C 147.167,100.5 150.833,100.5 154.5,100.5C 154.343,101.873 154.51,103.207 155,104.5C 158.294,108.473 161.46,108.473 164.5,104.5C 166.402,103.489 168.402,103.322 170.5,104C 169.577,106.041 169.244,108.208 169.5,110.5C 166.615,110.194 163.948,110.527 161.5,111.5C 159.435,111.517 157.435,111.85 155.5,112.5C 151.167,108.833 147.167,104.833 143.5,100.5 Z"/></g>
<g><path style="opacity:1" fill="#e57f22" d="M 143.5,100.5 C 147.167,104.833 151.167,108.833 155.5,112.5C 154.71,113.401 153.71,114.068 152.5,114.5C 150.878,111.545 148.878,108.878 146.5,106.5C 145.207,104.704 143.707,103.037 142,101.5C 141.395,99.3646 141.895,99.0313 143.5,100.5 Z"/></g>
<g><path style="opacity:1" fill="#2c2a2a" d="M 164.5,81.5 C 163.737,82.2679 162.737,82.7679 161.5,83C 162.448,83.4828 163.448,83.6495 164.5,83.5C 161.442,85.1321 158.109,86.2987 154.5,87C 151.593,88.6091 148.927,90.4424 146.5,92.5C 139.669,97.2999 134.336,103.467 130.5,111C 132.743,112.136 135.076,112.97 137.5,113.5C 140.986,114.999 143.82,117.333 146,120.5C 148.037,118.294 150.203,116.294 152.5,114.5C 153.71,114.068 154.71,113.401 155.5,112.5C 157.435,111.85 159.435,111.517 161.5,111.5C 164.5,111.5 167.5,111.5 170.5,111.5C 170.829,102.537 175.496,99.2033 184.5,101.5C 185.5,101.5 186.5,101.5 187.5,101.5C 188.812,103.479 190.479,105.145 192.5,106.5C 199.565,102.159 207.232,100.492 215.5,101.5C 217.857,101.337 220.19,101.503 222.5,102C 229.803,103.801 234.137,108.301 235.5,115.5C 237.97,115.346 239.97,114.346 241.5,112.5C 253.507,110.02 264.841,111.687 275.5,117.5C 286.83,110.13 298.497,109.63 310.5,116C 316.635,122.491 318.135,129.991 315,138.5C 310.818,150.516 302.318,156.516 289.5,156.5C 282.106,157.385 275.939,155.052 271,149.5C 269.424,154.995 266.591,159.662 262.5,163.5C 254.461,166.531 246.128,168.198 237.5,168.5C 219.778,199.196 193.111,212.696 157.5,209C 126.586,201.253 106.586,182.087 97.5,151.5C 87.5496,157.068 77.2163,157.901 66.5,154C 62.7812,151.388 60.4478,147.888 59.5,143.5C 59.5,140.5 59.5,137.5 59.5,134.5C 56.8333,134.5 54.1667,134.5 51.5,134.5C 51.5,135.5 51.5,136.5 51.5,137.5C 51.5,138.167 51.5,138.833 51.5,139.5C 50.3126,142.946 49.6459,146.613 49.5,150.5C 47.5256,155.325 43.8589,157.325 38.5,156.5C 33.8621,157.53 30.6954,155.863 29,151.5C 29.9975,141.171 31.3308,130.838 33,120.5C 34.1258,111.38 38.9592,105.213 47.5,102C 54.5,101.333 61.5,101.333 68.5,102C 70.3237,102.66 71.657,103.827 72.5,105.5C 72.5,108.167 72.5,110.833 72.5,113.5C 73.791,113.737 74.791,113.404 75.5,112.5C 83.6702,110.823 91.6702,111.49 99.5,114.5C 101.467,116.304 103.301,118.304 105,120.5C 109.491,114.764 115.324,111.764 122.5,111.5C 123.675,111.719 124.675,111.386 125.5,110.5C 133.679,94.3173 146.679,84.6506 164.5,81.5 Z"/></g>
<g><path style="opacity:1" fill="#b7162c" d="M 226.5,108.5 C 230.868,111.274 232.535,115.274 231.5,120.5C 230.835,125.327 228.502,129.161 224.5,132C 216.697,135.449 208.697,138.282 200.5,140.5C 199.957,140.56 199.624,140.893 199.5,141.5C 208.475,142.498 217.475,142.832 226.5,142.5C 226.98,145.685 226.314,148.519 224.5,151C 211.327,151.827 198.327,151.66 185.5,150.5C 185.334,140.325 190,133.491 199.5,130C 205.167,128.333 210.833,126.667 216.5,125C 218.608,122.984 218.942,120.817 217.5,118.5C 217.389,117.883 217.056,117.383 216.5,117C 209.595,115.021 203.928,116.687 199.5,122C 196.304,122.805 193.304,122.638 190.5,121.5C 190.679,115.31 193.679,111.143 199.5,109C 208.445,105.837 217.445,105.671 226.5,108.5 Z"/></g>
<g><path style="opacity:1" fill="#ddd7d8" d="M 234.5,121.5 C 234.217,122.289 233.717,122.956 233,123.5C 232.768,122.263 232.268,121.263 231.5,120.5C 232.535,115.274 230.868,111.274 226.5,108.5C 224.852,107.073 222.852,106.24 220.5,106C 213.766,105.171 207.099,105.504 200.5,107C 192.674,109.244 189.34,114.078 190.5,121.5C 193.304,122.638 196.304,122.805 199.5,122C 203.928,116.687 209.595,115.021 216.5,117C 217.056,117.383 217.389,117.883 217.5,118.5C 217.714,120.144 217.38,121.644 216.5,123C 210.952,125.301 205.285,127.135 199.5,128.5C 199.158,127.662 198.492,127.328 197.5,127.5C 202.244,125.558 207.244,124.058 212.5,123C 214.863,122.411 215.863,120.911 215.5,118.5C 209.839,117.342 205.173,118.842 201.5,123C 197.961,124.504 194.295,124.837 190.5,124C 189.529,122.519 188.196,121.685 186.5,121.5C 186.858,118.311 187.525,115.311 188.5,112.5C 188.369,113.239 188.536,113.906 189,114.5C 191.618,109.884 195.451,106.717 200.5,105C 209.266,102.828 217.933,103.162 226.5,106C 232.483,109.536 235.149,114.702 234.5,121.5 Z"/></g>
<g><path style="opacity:1" fill="#c2717d" d="M 226.5,108.5 C 217.445,105.671 208.445,105.837 199.5,109C 193.679,111.143 190.679,115.31 190.5,121.5C 189.34,114.078 192.674,109.244 200.5,107C 207.099,105.504 213.766,105.171 220.5,106C 222.852,106.24 224.852,107.073 226.5,108.5 Z"/></g>
<g><path style="opacity:1" fill="#ba162d" d="M 122.5,156.5 C 127.564,169.231 136.564,177.897 149.5,182.5C 154.472,184.815 159.806,186.149 165.5,186.5C 170.316,187.65 175.316,187.816 180.5,187C 183.457,186.721 186.123,185.887 188.5,184.5C 193.913,182.627 198.913,179.96 203.5,176.5C 210.731,171.381 216.065,164.714 219.5,156.5C 221.5,156.5 223.5,156.5 225.5,156.5C 225.585,158.929 226.585,160.929 228.5,162.5C 231.047,163.934 233.381,165.6 235.5,167.5C 221.166,192.092 199.666,204.758 171,205.5C 143.554,205.28 122.554,193.613 108,170.5C 104.2,164.067 101.367,157.234 99.5,150C 99.6135,148.72 100.28,147.887 101.5,147.5C 106.539,154.855 113.539,157.855 122.5,156.5 Z"/></g>
<g><path style="opacity:1" fill="#f48620" d="M 155.5,156.5 C 157.969,157.317 160.635,157.817 163.5,158C 162.361,159.78 161.361,161.614 160.5,163.5C 155.408,161.673 150.742,162.34 146.5,165.5C 145.893,165.376 145.56,165.043 145.5,164.5C 148.556,162.584 149.222,159.918 147.5,156.5C 145.473,154.661 143.14,154.161 140.5,155C 139.748,155.671 139.414,156.504 139.5,157.5C 138.549,158.919 138.216,160.585 138.5,162.5C 136.712,162.215 135.045,162.548 133.5,163.5C 135.176,164.728 135.509,166.061 134.5,167.5C 131.46,164.086 129.46,160.086 128.5,155.5C 133.97,154.765 138.637,152.432 142.5,148.5C 145.741,152.953 150.074,155.62 155.5,156.5 Z"/></g>
<g><path style="opacity:1" fill="#c43c1d" d="M 145.5,164.5 C 140.677,164.673 138.677,162.339 139.5,157.5C 139.414,156.504 139.748,155.671 140.5,155C 143.14,154.161 145.473,154.661 147.5,156.5C 149.222,159.918 148.556,162.584 145.5,164.5 Z"/></g>
<g><path style="opacity:1" fill="#eae1de" d="M 116.5,115.5 C 117.833,115.5 119.167,115.5 120.5,115.5C 123.962,114.518 127.629,114.185 131.5,114.5C 138.991,115.159 143.491,119.159 145,126.5C 147.385,121.281 151.218,117.614 156.5,115.5C 157.833,115.5 159.167,115.5 160.5,115.5C 163.625,114.521 166.958,114.187 170.5,114.5C 171.969,111.532 173.302,108.366 174.5,105C 178.833,104.333 183.167,104.333 187.5,105C 188.435,107.381 188.768,109.881 188.5,112.5C 187.525,115.311 186.858,118.311 186.5,121.5C 185.747,127.183 185.247,132.849 185,138.5C 187.474,132.856 191.641,129.189 197.5,127.5C 198.492,127.328 199.158,127.662 199.5,128.5C 188.568,132.058 183.901,139.391 185.5,150.5C 198.327,151.66 211.327,151.827 224.5,151C 226.314,148.519 226.98,145.685 226.5,142.5C 217.833,141.833 209.167,141.167 200.5,140.5C 208.697,138.282 216.697,135.449 224.5,132C 228.502,129.161 230.835,125.327 231.5,120.5C 232.268,121.263 232.768,122.263 233,123.5C 233.717,122.956 234.217,122.289 234.5,121.5C 236.951,118.723 239.951,116.723 243.5,115.5C 244.833,115.5 246.167,115.5 247.5,115.5C 250.962,114.518 254.629,114.185 258.5,114.5C 263.134,114.48 267.467,115.646 271.5,118C 272.222,121.102 272.389,124.268 272,127.5C 278.951,114.821 289.451,110.654 303.5,115C 312.532,119.052 315.698,125.885 313,135.5C 308.318,150.434 298.151,156.601 282.5,154C 275.985,151.651 271.652,147.151 269.5,140.5C 268.887,147.448 266.721,153.782 263,159.5C 254.407,164.157 245.241,165.657 235.5,164C 227.437,160.913 225.771,155.913 230.5,149C 231.833,148.667 233.167,148.333 234.5,148C 230.124,143.066 228.29,137.233 229,130.5C 223.971,134.851 218.137,137.684 211.5,139C 216.5,139.333 221.5,139.667 226.5,140C 229.312,144.522 228.979,148.855 225.5,153C 212.167,153.667 198.833,153.667 185.5,153C 183.653,149.876 181.987,149.876 180.5,153C 176.132,153.709 171.799,153.542 167.5,152.5C 155.939,157.299 147.772,153.966 143,142.5C 135.968,152.183 126.468,156.016 114.5,154C 107.667,152.5 103.5,148.333 102,141.5C 98.9354,148.227 93.7687,152.394 86.5,154C 69.065,156.993 60.7317,149.826 61.5,132.5C 57.5,132.5 53.5,132.5 49.5,132.5C 48.9014,138.524 48.0681,144.524 47,150.5C 46.6924,151.308 46.1924,151.975 45.5,152.5C 41.1845,153.775 36.8512,153.775 32.5,152.5C 32.4194,139.731 33.9194,127.064 37,114.5C 39.3324,108.836 43.4991,105.336 49.5,104C 56.4948,103.03 63.3281,103.53 70,105.5C 70.966,109.118 70.466,112.451 68.5,115.5C 63.5527,116.283 58.5527,116.783 53.5,117C 53.0426,117.414 52.7093,117.914 52.5,118.5C 55.7848,119.324 59.1182,119.824 62.5,120C 63.7014,120.903 64.5348,122.069 65,123.5C 74.3244,112.777 85.4911,110.61 98.5,117C 101.364,119.229 103.364,122.063 104.5,125.5C 107.613,121.049 111.613,117.716 116.5,115.5 Z"/></g>
<g><path style="opacity:1" fill="#ffb975" d="M 252.5,148.5 C 252.5,148.167 252.5,147.833 252.5,147.5C 254.886,149.344 254.886,151.511 252.5,154C 248.901,156.118 245.568,155.951 242.5,153.5C 245.518,153.665 248.518,153.498 251.5,153C 253.065,151.494 253.399,149.994 252.5,148.5 Z"/></g>
<g><path style="opacity:1" fill="#68696a" d="M 242.5,151.5 C 244.966,150.366 247.633,150.199 250.5,151C 247.954,152.812 245.288,152.978 242.5,151.5 Z"/></g>
<g><path style="opacity:1" fill="#ef8b29" d="M 305.5,146.5 C 298.786,151.682 291.119,153.515 282.5,152C 280.934,151.392 279.6,150.558 278.5,149.5C 284.472,150.474 290.472,150.641 296.5,150C 299.562,148.795 302.562,147.628 305.5,146.5 Z"/></g>
<g><path style="opacity:1" fill="#ffb670" d="M 240.5,151.5 C 237.482,151.335 234.482,151.502 231.5,152C 230.62,153.356 230.286,154.856 230.5,156.5C 230.5,156.833 230.5,157.167 230.5,157.5C 229.189,155.44 229.189,153.274 230.5,151C 234.027,150.192 237.36,150.359 240.5,151.5 Z"/></g>
<g><path style="opacity:1" fill="#ed882d" d="M 136.5,146.5 C 133.656,149.741 129.99,151.574 125.5,152C 121.833,152.667 118.167,152.667 114.5,152C 113.263,151.768 112.263,151.268 111.5,150.5C 117.176,150.666 122.843,150.499 128.5,150C 131.336,149.079 134.002,147.912 136.5,146.5 Z"/></g>
<g><path style="opacity:1" fill="#ee8830" d="M 101.5,125.5 C 103.819,142.368 96.3192,151.368 79,152.5C 75.8502,152.64 73.0169,151.973 70.5,150.5C 90.7959,154.186 101.129,145.853 101.5,125.5 Z"/></g>
<g><path style="opacity:1" fill="#f08c37" d="M 235.5,145.5 C 240.98,147.283 246.647,147.949 252.5,147.5C 252.5,147.833 252.5,148.167 252.5,148.5C 248.537,149.44 244.537,149.607 240.5,149C 238.416,148.303 236.749,147.136 235.5,145.5 Z"/></g>
<g><path style="opacity:1" fill="#acacac" d="M 51.5,139.5 C 51.8836,143.489 51.217,147.155 49.5,150.5C 49.6459,146.613 50.3126,142.946 51.5,139.5 Z"/></g>
<g><path style="opacity:1" fill="#ed821b" d="M 60.5,129.5 C 56.6877,130.324 52.6877,130.824 48.5,131C 47.267,137.444 46.1003,143.944 45,150.5C 41.6064,151.456 38.1064,151.789 34.5,151.5C 34.5,151.167 34.5,150.833 34.5,150.5C 37.7766,150.784 40.9433,150.451 44,149.5C 44.7953,142.892 45.962,136.392 47.5,130C 51.8206,129.501 56.1539,129.334 60.5,129.5 Z"/></g>
<g><path style="opacity:1" fill="#c36d7b" d="M 200.5,140.5 C 209.167,141.167 217.833,141.833 226.5,142.5C 217.475,142.832 208.475,142.498 199.5,141.5C 199.624,140.893 199.957,140.56 200.5,140.5 Z"/></g>
<g><path style="opacity:1" fill="#f08a32" d="M 142.5,124.5 C 144.161,131 143.328,137.333 140,143.5C 138.961,144.71 137.794,145.71 136.5,146.5C 140.709,139.86 142.709,132.527 142.5,124.5 Z"/></g>
<g><path style="opacity:1" fill="#c16a76" d="M 217.5,118.5 C 218.942,120.817 218.608,122.984 216.5,125C 210.833,126.667 205.167,128.333 199.5,130C 190,133.491 185.334,140.325 185.5,150.5C 183.901,139.391 188.568,132.058 199.5,128.5C 205.285,127.135 210.952,125.301 216.5,123C 217.38,121.644 217.714,120.144 217.5,118.5 Z"/></g>
<g><path style="opacity:1" fill="#ffae55" d="M 275.5,125.5 C 273.845,131.346 273.178,137.346 273.5,143.5C 272.353,139.354 272.186,135.02 273,130.5C 273.374,128.509 274.207,126.842 275.5,125.5 Z"/></g>
<g><path style="opacity:1" fill="#ffb164" d="M 36.5,129.5 C 36.021,136.519 35.3544,143.519 34.5,150.5C 34.5,150.833 34.5,151.167 34.5,151.5C 33.4031,144.058 34.0698,136.725 36.5,129.5 Z"/></g>
<g><path style="opacity:1" fill="#5c5c5c" d="M 59.5,143.5 C 58.5269,141.052 58.1936,138.385 58.5,135.5C 55.7892,135.185 53.4559,135.852 51.5,137.5C 51.5,136.5 51.5,135.5 51.5,134.5C 54.1667,134.5 56.8333,134.5 59.5,134.5C 59.5,137.5 59.5,140.5 59.5,143.5 Z"/></g>
<g><path style="opacity:1" fill="#ffac5c" d="M 233.5,126.5 C 232.771,131.13 232.437,135.797 232.5,140.5C 231.839,138.866 231.506,137.033 231.5,135C 231.36,131.85 232.027,129.017 233.5,126.5 Z"/></g>
<g><path style="opacity:1" fill="#f1892e" d="M 310.5,124.5 C 311.645,128.311 311.812,132.311 311,136.5C 310.246,139.684 308.746,142.351 306.5,144.5C 309.699,138.227 311.033,131.561 310.5,124.5 Z"/></g>
<g><path style="opacity:1" fill="#2a2a2a" d="M 197.5,127.5 C 191.641,129.189 187.474,132.856 185,138.5C 185.247,132.849 185.747,127.183 186.5,121.5C 188.196,121.685 189.529,122.519 190.5,124C 194.295,124.837 197.961,124.504 201.5,123C 205.173,118.842 209.839,117.342 215.5,118.5C 215.863,120.911 214.863,122.411 212.5,123C 207.244,124.058 202.244,125.558 197.5,127.5 Z"/></g>
<g><path style="opacity:1" fill="#c38422" d="M 188.5,126.5 C 192.3,126.819 192.466,127.819 189,129.5C 188.517,128.552 188.351,127.552 188.5,126.5 Z"/></g>
<g><path style="opacity:1" fill="#ffba76" d="M 160.5,115.5 C 164.042,115.187 167.375,115.521 170.5,116.5C 153.883,116.451 145.549,124.784 145.5,141.5C 143.734,129.041 148.734,120.374 160.5,115.5 Z"/></g>
<g><path style="opacity:1" fill="#ffbd81" d="M 305.5,118.5 C 293.95,114.555 283.95,116.889 275.5,125.5C 278.306,120.413 282.64,117.246 288.5,116C 292.5,115.333 296.5,115.333 300.5,116C 302.491,116.374 304.158,117.207 305.5,118.5 Z"/></g>
<g><path style="opacity:1" fill="#febd84" d="M 50.5,119.5 C 53.8909,121.125 57.5575,122.125 61.5,122.5C 57.5,122.5 53.5,122.5 49.5,122.5C 49.2627,121.209 49.596,120.209 50.5,119.5 Z"/></g>
<g><path style="opacity:1" fill="#fea90b" d="M 305.5,118.5 C 307.914,119.911 309.581,121.911 310.5,124.5C 311.033,131.561 309.699,138.227 306.5,144.5C 306.672,145.492 306.338,146.158 305.5,146.5C 302.562,147.628 299.562,148.795 296.5,150C 290.472,150.641 284.472,150.474 278.5,149.5C 275.438,148.732 273.772,146.732 273.5,143.5C 273.178,137.346 273.845,131.346 275.5,125.5C 283.95,116.889 293.95,114.555 305.5,118.5 Z"/></g>
<g><path style="opacity:1" fill="#ffb96e" d="M 299.5,134.5 C 299.309,142.908 295.309,145.908 287.5,143.5C 290.271,143.579 292.937,143.079 295.5,142C 297.004,139.486 298.338,136.986 299.5,134.5 Z"/></g>
<g><path style="opacity:1" fill="#ede4e0" d="M 296.5,124.5 C 299.024,127.239 300.024,130.572 299.5,134.5C 298.338,136.986 297.004,139.486 295.5,142C 292.937,143.079 290.271,143.579 287.5,143.5C 286.21,142.942 285.377,141.942 285,140.5C 284.502,137.518 284.335,134.518 284.5,131.5C 286.604,126.109 290.604,123.776 296.5,124.5 Z"/></g>
<g><path style="opacity:1" fill="#282929" d="M 290.5,126.5 C 292.527,126.338 294.527,126.505 296.5,127C 298.017,131.364 297.517,135.53 295,139.5C 292.582,141.68 289.916,142.013 287,140.5C 285.608,135.093 286.774,130.426 290.5,126.5 Z"/></g>
<g><path style="opacity:1" fill="#ed842a" d="M 296.5,124.5 C 290.604,123.776 286.604,126.109 284.5,131.5C 285.868,124.486 289.868,122.153 296.5,124.5 Z"/></g>
<g><path style="opacity:1" fill="#fea906" d="M 269.5,119.5 C 267.895,128.797 266.395,138.131 265,147.5C 264.613,150.599 263.446,153.266 261.5,155.5C 251.102,156.396 240.769,156.729 230.5,156.5C 230.286,154.856 230.62,153.356 231.5,152C 234.482,151.502 237.482,151.335 240.5,151.5C 240.833,152.5 241.5,153.167 242.5,153.5C 245.568,155.951 248.901,156.118 252.5,154C 254.886,151.511 254.886,149.344 252.5,147.5C 246.647,147.949 240.98,147.283 235.5,145.5C 233.75,144.341 232.75,142.674 232.5,140.5C 232.437,135.797 232.771,131.13 233.5,126.5C 236.809,122.691 240.809,119.858 245.5,118C 253.623,117.062 261.623,117.562 269.5,119.5 Z"/></g>
<g><path style="opacity:1" fill="#ffbb7a" d="M 256.5,125.5 C 257.167,125.5 257.5,125.833 257.5,126.5C 257.331,131.181 256.998,135.848 256.5,140.5C 254.512,140.827 252.512,141.16 250.5,141.5C 248.443,141.564 246.777,140.898 245.5,139.5C 248.777,139.784 251.943,139.451 255,138.5C 255.735,134.187 256.235,129.853 256.5,125.5 Z"/></g>
<g><path style="opacity:1" fill="#e6dfdc" d="M 256.5,125.5 C 256.235,129.853 255.735,134.187 255,138.5C 251.943,139.451 248.777,139.784 245.5,139.5C 245.167,138.833 244.833,138.167 244.5,137.5C 243.044,127.621 247.044,123.621 256.5,125.5 Z"/></g>
<g><path style="opacity:1" fill="#232323" d="M 249.5,127.5 C 251.781,127.077 253.448,127.744 254.5,129.5C 254.167,132.167 253.833,134.833 253.5,137.5C 251.167,137.5 248.833,137.5 246.5,137.5C 246.336,134.813 246.503,132.146 247,129.5C 247.708,128.619 248.542,127.953 249.5,127.5 Z"/></g>
<g><path style="opacity:1" fill="#f08c30" d="M 257.5,126.5 C 257.5,125.833 257.167,125.5 256.5,125.5C 247.044,123.621 243.044,127.621 244.5,137.5C 241.71,133.055 242.376,128.889 246.5,125C 250.65,122.856 254.65,123.023 258.5,125.5C 258.376,126.107 258.043,126.44 257.5,126.5 Z"/></g>
<g><path style="opacity:1" fill="#676767" d="M 249.5,127.5 C 251.265,126.539 253.265,126.205 255.5,126.5C 255.737,127.791 255.404,128.791 254.5,129.5C 253.448,127.744 251.781,127.077 249.5,127.5 Z"/></g>
<g><path style="opacity:1" fill="#fea90e" d="M 135.5,117.5 C 138.833,118.833 141.167,121.167 142.5,124.5C 142.709,132.527 140.709,139.86 136.5,146.5C 134.002,147.912 131.336,149.079 128.5,150C 122.843,150.499 117.176,150.666 111.5,150.5C 108.155,149.32 105.989,146.987 105,143.5C 104.333,138.833 104.333,134.167 105,129.5C 105.278,128.584 105.778,127.918 106.5,127.5C 113.817,117.837 123.483,114.504 135.5,117.5 Z"/></g>
<g><path style="opacity:1" fill="#ffbd86" d="M 128.5,141.5 C 125.944,144.424 122.944,145.09 119.5,143.5C 122.692,143.595 125.692,142.929 128.5,141.5 Z"/></g>
<g><path style="opacity:1" fill="#ffbc85" d="M 130.5,127.5 C 131.641,130.64 131.808,133.973 131,137.5C 130.8,139.32 129.966,140.653 128.5,141.5C 130.113,136.993 130.779,132.327 130.5,127.5 Z"/></g>
<g><path style="opacity:1" fill="#ebe4e0" d="M 121.5,124.5 C 123.857,124.337 126.19,124.503 128.5,125C 129.381,125.708 130.047,126.542 130.5,127.5C 130.779,132.327 130.113,136.993 128.5,141.5C 125.692,142.929 122.692,143.595 119.5,143.5C 118.167,142.833 117.167,141.833 116.5,140.5C 115.442,134.239 117.109,128.906 121.5,124.5 Z"/></g>
<g><path style="opacity:1" fill="#292929" d="M 121.5,126.5 C 128.673,124.839 131.173,127.506 129,134.5C 128.076,140.784 124.743,142.784 119,140.5C 117.912,135.413 118.746,130.747 121.5,126.5 Z"/></g>
<g><path style="opacity:1" fill="#f08936" d="M 121.5,124.5 C 117.109,128.906 115.442,134.239 116.5,140.5C 114.943,135.745 115.443,131.079 118,126.5C 118.816,125.177 119.983,124.511 121.5,124.5 Z"/></g>
<g><path style="opacity:1" fill="#fea90e" d="M 96.5,118.5 C 99.3231,119.992 100.99,122.326 101.5,125.5C 101.129,145.853 90.7959,154.186 70.5,150.5C 67.1284,149.295 64.9617,146.961 64,143.5C 63.3333,138.833 63.3333,134.167 64,129.5C 64.2004,127.68 65.0337,126.347 66.5,125.5C 74.8857,116.6 84.8857,114.267 96.5,118.5 Z"/></g>
<g><path style="opacity:1" fill="#ffbc76" d="M 89.5,136.5 C 89.8422,142.158 87.1756,144.824 81.5,144.5C 79.9549,144.489 78.6216,144.156 77.5,143.5C 83.7057,144.471 87.7057,142.138 89.5,136.5 Z"/></g>
<g><path style="opacity:1" fill="#efe5df" d="M 87.5,124.5 C 90.6664,127.983 91.3331,131.983 89.5,136.5C 87.7057,142.138 83.7057,144.471 77.5,143.5C 77.1667,142.5 76.5,141.833 75.5,141.5C 74.347,135.068 76.0137,129.568 80.5,125C 82.8098,124.503 85.1432,124.337 87.5,124.5 Z"/></g>
<g><path style="opacity:1" fill="#292929" d="M 80.5,126.5 C 87.6729,124.839 90.1729,127.506 88,134.5C 87.0765,140.784 83.7432,142.784 78,140.5C 76.9108,135.444 77.7441,130.778 80.5,126.5 Z"/></g>
<g><path style="opacity:1" fill="#ef8832" d="M 87.5,124.5 C 85.1432,124.337 82.8098,124.503 80.5,125C 76.0137,129.568 74.347,135.068 75.5,141.5C 73.3022,134.946 74.6356,129.113 79.5,124C 82.367,123.199 85.0336,123.366 87.5,124.5 Z"/></g>
<g><path style="opacity:1" fill="#ffbc79" d="M 247.5,115.5 C 253.555,115.338 259.555,115.838 265.5,117C 267.066,117.608 268.4,118.442 269.5,119.5C 261.623,117.562 253.623,117.062 245.5,118C 240.809,119.858 236.809,122.691 233.5,126.5C 236.43,120.564 241.097,116.898 247.5,115.5 Z"/></g>
<g><path style="opacity:1" fill="#f08929" d="M 185.5,106.5 C 186.156,107.622 186.489,108.955 186.5,110.5C 184.657,123.89 182.491,137.223 180,150.5C 176.045,151.775 172.045,151.775 168,150.5C 162.539,152.789 157.039,152.956 151.5,151C 150.29,149.961 149.29,148.794 148.5,147.5C 155.037,151.115 161.871,151.448 169,148.5C 172.195,150.638 175.529,150.971 179,149.5C 181.276,135.512 183.443,121.512 185.5,107.5C 185.5,107.167 185.5,106.833 185.5,106.5 Z"/></g>
<g><path style="opacity:1" fill="#ffbf86" d="M 120.5,115.5 C 124.514,115.334 128.514,115.501 132.5,116C 133.737,116.232 134.737,116.732 135.5,117.5C 123.483,114.504 113.817,117.837 106.5,127.5C 109.041,120.955 113.707,116.955 120.5,115.5 Z"/></g>
<g><path style="opacity:1" fill="#ffbf88" d="M 96.5,118.5 C 84.8857,114.267 74.8857,116.6 66.5,125.5C 68.8253,120.353 72.8253,117.187 78.5,116C 82.8333,115.333 87.1667,115.333 91.5,116C 93.4913,116.374 95.158,117.207 96.5,118.5 Z"/></g>
<g><path style="opacity:1" fill="#ffbd85" d="M 40.5,113.5 C 38.8245,118.868 37.4912,124.202 36.5,129.5C 36.3359,126.813 36.5026,124.146 37,121.5C 37.3221,118.334 38.4887,115.667 40.5,113.5 Z"/></g>
<g><path style="opacity:1" fill="#9a9c9d" d="M 258.5,114.5 C 254.629,114.185 250.962,114.518 247.5,115.5C 246.167,115.5 244.833,115.5 243.5,115.5C 246.186,114.009 249.186,113.343 252.5,113.5C 254.696,113.505 256.696,113.838 258.5,114.5 Z"/></g>
<g><path style="opacity:1" fill="#9b9d9d" d="M 170.5,114.5 C 166.958,114.187 163.625,114.521 160.5,115.5C 159.167,115.5 157.833,115.5 156.5,115.5C 159.017,114.027 161.85,113.36 165,113.5C 167.033,113.506 168.866,113.839 170.5,114.5 Z"/></g>
<g><path style="opacity:1" fill="#9b9c9d" d="M 131.5,114.5 C 127.629,114.185 123.962,114.518 120.5,115.5C 119.167,115.5 117.833,115.5 116.5,115.5C 119.186,114.009 122.186,113.343 125.5,113.5C 127.696,113.505 129.696,113.838 131.5,114.5 Z"/></g>
<g><path style="opacity:1" fill="#ec832d" d="M 67.5,106.5 C 68.8143,108.895 68.8143,111.395 67.5,114C 62.8452,114.499 58.1785,114.666 53.5,114.5C 57.6472,113.675 61.9805,113.175 66.5,113C 67.4231,110.959 67.7564,108.792 67.5,106.5 Z"/></g>
<g><path style="opacity:1" fill="#878787" d="M 72.5,105.5 C 72.9174,108.159 73.9174,110.492 75.5,112.5C 74.791,113.404 73.791,113.737 72.5,113.5C 72.5,110.833 72.5,108.167 72.5,105.5 Z"/></g>
<g><path style="opacity:1" fill="#ffbc73" d="M 46.5,107.5 C 44.8333,109.833 42.8333,111.833 40.5,113.5C 41.5,110.5 43.5,108.5 46.5,107.5 Z"/></g>
<g><path style="opacity:1" fill="#f7a826" d="M 146.5,106.5 C 148.878,108.878 150.878,111.545 152.5,114.5C 150.203,116.294 148.037,118.294 146,120.5C 143.82,117.333 140.986,114.999 137.5,113.5C 136.713,111.896 135.38,111.229 133.5,111.5C 133.421,110.07 133.754,108.736 134.5,107.5C 138.445,106.509 142.445,106.176 146.5,106.5 Z"/></g>
<g><path style="opacity:1" fill="#feaa06" d="M 185.5,107.5 C 183.443,121.512 181.276,135.512 179,149.5C 175.529,150.971 172.195,150.638 169,148.5C 161.871,151.448 155.037,151.115 148.5,147.5C 146.755,145.967 145.755,143.967 145.5,141.5C 145.549,124.784 153.883,116.451 170.5,116.5C 171.568,117.434 172.901,117.768 174.5,117.5C 174.723,114.216 175.39,111.049 176.5,108C 179.482,107.502 182.482,107.335 185.5,107.5 Z"/></g>
<g><path style="opacity:1" fill="#ffbc7d" d="M 171.5,125.5 C 171.833,125.5 172.167,125.5 172.5,125.5C 172.795,131.011 171.962,136.344 170,141.5C 167.902,143.049 165.568,144.049 163,144.5C 161.301,144.613 160.134,143.947 159.5,142.5C 162.93,142.893 166.096,142.227 169,140.5C 170.16,135.547 170.993,130.547 171.5,125.5 Z"/></g>
<g><path style="opacity:1" fill="#eee6e2" d="M 171.5,125.5 C 170.993,130.547 170.16,135.547 169,140.5C 166.096,142.227 162.93,142.893 159.5,142.5C 158.833,141.833 158.167,141.167 157.5,140.5C 157.269,136.007 157.936,131.674 159.5,127.5C 163.045,124.392 167.045,123.726 171.5,125.5 Z"/></g>
<g><path style="opacity:1" fill="#ef8319" d="M 159.5,127.5 C 157.936,131.674 157.269,136.007 157.5,140.5C 156.362,137.696 156.195,134.696 157,131.5C 157.2,129.68 158.034,128.347 159.5,127.5 Z"/></g>
<g><path style="opacity:1" fill="#2a2a2a" d="M 163.5,126.5 C 165.5,126.5 167.5,126.5 169.5,126.5C 169.282,131.219 168.282,135.719 166.5,140C 161.954,142.8 159.621,141.633 159.5,136.5C 159.478,132.554 160.812,129.22 163.5,126.5 Z"/></g>
<g><path style="opacity:1" fill="#ec831b" d="M 172.5,125.5 C 172.167,125.5 171.833,125.5 171.5,125.5C 167.045,123.726 163.045,124.392 159.5,127.5C 159.574,125.589 160.574,124.422 162.5,124C 165.167,123.333 167.833,123.333 170.5,124C 171.416,124.278 172.082,124.778 172.5,125.5 Z"/></g>
<g><path style="opacity:1" fill="#ffba71" d="M 185.5,106.5 C 185.5,106.833 185.5,107.167 185.5,107.5C 182.482,107.335 179.482,107.502 176.5,108C 175.39,111.049 174.723,114.216 174.5,117.5C 172.901,117.768 171.568,117.434 170.5,116.5C 171.5,116.5 172.5,116.5 173.5,116.5C 172.568,106.745 176.568,103.412 185.5,106.5 Z"/></g>
<g><path style="opacity:1" fill="#fea909" d="M 67.5,106.5 C 67.7564,108.792 67.4231,110.959 66.5,113C 61.9805,113.175 57.6472,113.675 53.5,114.5C 52.075,115.922 51.075,117.589 50.5,119.5C 49.596,120.209 49.2627,121.209 49.5,122.5C 53.5,122.5 57.5,122.5 61.5,122.5C 62.1471,123.274 62.4805,124.274 62.5,125.5C 62.6598,127.355 61.9931,128.688 60.5,129.5C 56.1539,129.334 51.8206,129.501 47.5,130C 45.962,136.392 44.7953,142.892 44,149.5C 40.9433,150.451 37.7766,150.784 34.5,150.5C 35.3544,143.519 36.021,136.519 36.5,129.5C 37.4912,124.202 38.8245,118.868 40.5,113.5C 42.8333,111.833 44.8333,109.833 46.5,107.5C 53.4648,106.659 60.4648,106.326 67.5,106.5 Z"/></g>
<g><path style="opacity:1" fill="#ffc38a" d="M 67.5,106.5 C 60.4648,106.326 53.4648,106.659 46.5,107.5C 46.9175,106.778 47.5842,106.278 48.5,106C 55.0137,105.18 61.3471,105.347 67.5,106.5 Z"/></g>
<g><path style="opacity:1" fill="#f58220" d="M 191.5,156.5 C 192.833,156.5 194.167,156.5 195.5,156.5C 196.075,160.473 198.242,161.473 202,159.5C 202.483,158.552 202.649,157.552 202.5,156.5C 208.167,156.5 213.833,156.5 219.5,156.5C 216.065,164.714 210.731,171.381 203.5,176.5C 199.925,169.589 195.925,162.922 191.5,156.5 Z"/></g>
<g><path style="opacity:1" fill="#c3371b" d="M 195.5,156.5 C 197.833,156.5 200.167,156.5 202.5,156.5C 202.649,157.552 202.483,158.552 202,159.5C 198.242,161.473 196.075,160.473 195.5,156.5 Z"/></g>
<g><path style="opacity:1" fill="#fd9802" d="M 261.5,155.5 C 258.94,158.537 255.607,160.371 251.5,161C 246.845,161.499 242.179,161.666 237.5,161.5C 234.188,161.851 231.855,160.518 230.5,157.5C 230.5,157.167 230.5,156.833 230.5,156.5C 240.769,156.729 251.102,156.396 261.5,155.5 Z"/></g>
<g><path style="opacity:1" fill="#ed8125" d="M 269.5,119.5 C 270.124,119.917 270.457,120.584 270.5,121.5C 268.676,130.78 267.176,140.114 266,149.5C 264.382,156.784 259.882,160.951 252.5,162C 247.316,162.816 242.316,162.65 237.5,161.5C 242.179,161.666 246.845,161.499 251.5,161C 255.607,160.371 258.94,158.537 261.5,155.5C 263.446,153.266 264.613,150.599 265,147.5C 266.395,138.131 267.895,128.797 269.5,119.5 Z"/></g>
<g><path style="opacity:1" fill="#c43b1d" d="M 204.5,159.5 C 210.643,160.026 211.976,162.86 208.5,168C 203.504,168.664 201.67,166.498 203,161.5C 203.717,160.956 204.217,160.289 204.5,159.5 Z"/></g>
<g><path style="opacity:1" fill="#f57e21" d="M 139.5,157.5 C 138.677,162.339 140.677,164.673 145.5,164.5C 145.56,165.043 145.893,165.376 146.5,165.5C 150.742,162.34 155.408,161.673 160.5,163.5C 157.795,169.568 155.128,175.568 152.5,181.5C 151.167,181.167 149.833,180.833 148.5,180.5C 145.72,177.936 142.72,175.603 139.5,173.5C 137.833,171.5 136.167,169.5 134.5,167.5C 135.509,166.061 135.176,164.728 133.5,163.5C 135.045,162.548 136.712,162.215 138.5,162.5C 138.216,160.585 138.549,158.919 139.5,157.5 Z"/></g>
<g><path style="opacity:1" fill="#f68021" d="M 187.5,156.5 C 190.962,161.798 194.629,166.965 198.5,172C 198.333,172.5 198.167,173 198,173.5C 195.063,172.183 192.23,172.183 189.5,173.5C 187.5,172.167 185.5,172.167 183.5,173.5C 180.319,172.114 177.319,172.448 174.5,174.5C 173.326,167.032 169.826,165.699 164,170.5C 163.322,172.598 163.489,174.598 164.5,176.5C 164.19,177.738 163.69,177.738 163,176.5C 162.15,174.99 161.317,173.49 160.5,172C 162.804,167.226 164.971,162.392 167,157.5C 167.671,156.748 168.504,156.414 169.5,156.5C 174.189,156.916 178.689,156.249 183,154.5C 184.406,155.414 185.906,156.08 187.5,156.5 Z"/></g>
<g><path style="opacity:1" fill="#cfcfcf" d="M 77.5,166.5 C 82.5011,165.671 84.6678,167.671 84,172.5C 81.9361,173.591 79.7695,173.758 77.5,173C 74.8862,170.757 74.8862,168.59 77.5,166.5 Z"/></g>
<g><path style="opacity:1" fill="#c4391c" d="M 146.5,167.5 C 152.643,168.026 153.976,170.86 150.5,176C 145.504,176.664 143.67,174.498 145,169.5C 145.717,168.956 146.217,168.289 146.5,167.5 Z"/></g>
<g><path style="opacity:1" fill="#be2635" d="M 289.5,156.5 C 289.276,171.251 282.276,176.418 268.5,172C 265.629,169.751 263.629,166.918 262.5,163.5C 266.591,159.662 269.424,154.995 271,149.5C 275.939,155.052 282.106,157.385 289.5,156.5 Z"/></g>
<g><path style="opacity:1" fill="#f0c6cc" d="M 266.5,165.5 C 268.337,165.639 268.67,166.306 267.5,167.5C 266.702,167.043 266.369,166.376 266.5,165.5 Z"/></g>
<g><path style="opacity:1" fill="#f6dfe2" d="M 278.5,158.5 C 279.675,158.281 280.675,158.614 281.5,159.5C 280.41,160.609 280.41,161.609 281.5,162.5C 282.532,160.96 283.865,160.46 285.5,161C 284.426,161.739 283.759,162.739 283.5,164C 284.362,168.436 283.528,168.603 281,164.5C 280.692,165.308 280.192,165.975 279.5,166.5C 278.52,163.914 278.187,161.247 278.5,158.5 Z"/></g>
<g><path style="opacity:1" fill="#f6dcdf" d="M 275.5,158.5 C 276.586,158.62 277.253,159.287 277.5,160.5C 276.777,162.782 276.443,165.116 276.5,167.5C 270.338,168.844 268.338,166.678 270.5,161C 272.744,160.95 274.411,160.117 275.5,158.5 Z"/></g>
<g><path style="opacity:1" fill="#c53e44" d="M 272.5,161.5 C 274.176,162.183 274.843,163.517 274.5,165.5C 273.5,165.5 272.5,165.5 271.5,165.5C 271.433,164.041 271.766,162.708 272.5,161.5 Z"/></g>
<g><path style="opacity:1" fill="#ec9907" d="M 122.5,156.5 C 123.822,156.33 124.989,156.663 126,157.5C 129.076,164.329 133.576,169.996 139.5,174.5C 141.951,177.277 144.951,179.277 148.5,180.5C 148.833,181.167 149.167,181.833 149.5,182.5C 136.564,177.897 127.564,169.231 122.5,156.5 Z"/></g>
<g><path style="opacity:1" fill="#644323" d="M 139.5,173.5 C 142.72,175.603 145.72,177.936 148.5,180.5C 144.951,179.277 141.951,177.277 139.5,174.5C 139.5,174.167 139.5,173.833 139.5,173.5 Z"/></g>
<g><path style="opacity:1" fill="#f07220" d="M 169.5,156.5 C 168.504,156.414 167.671,156.748 167,157.5C 164.971,162.392 162.804,167.226 160.5,172C 161.317,173.49 162.15,174.99 163,176.5C 163.69,177.738 164.19,177.738 164.5,176.5C 168.753,179.684 172.086,179.017 174.5,174.5C 177.319,172.448 180.319,172.114 183.5,173.5C 181.65,177.128 182.483,179.795 186,181.5C 190.451,180.416 191.618,177.749 189.5,173.5C 192.23,172.183 195.063,172.183 198,173.5C 198.167,173 198.333,172.5 198.5,172C 194.629,166.965 190.962,161.798 187.5,156.5C 188.833,156.5 190.167,156.5 191.5,156.5C 195.925,162.922 199.925,169.589 203.5,176.5C 198.913,179.96 193.913,182.627 188.5,184.5C 181.257,186.032 173.924,186.698 166.5,186.5C 161.708,185.236 157.042,183.569 152.5,181.5C 155.128,175.568 157.795,169.568 160.5,163.5C 161.361,161.614 162.361,159.78 163.5,158C 160.635,157.817 157.969,157.317 155.5,156.5C 160.364,156.086 165.031,156.086 169.5,156.5 Z"/></g>
<g><path style="opacity:1" fill="#c3371d" d="M 189.5,173.5 C 191.618,177.749 190.451,180.416 186,181.5C 182.483,179.795 181.65,177.128 183.5,173.5C 185.5,172.167 187.5,172.167 189.5,173.5 Z"/></g>
<g><path style="opacity:1" fill="#c4381c" d="M 174.5,174.5 C 172.086,179.017 168.753,179.684 164.5,176.5C 163.489,174.598 163.322,172.598 164,170.5C 169.826,165.699 173.326,167.032 174.5,174.5 Z"/></g>
<g><path style="opacity:1" fill="#c3391c" d="M 177.5,158.5 C 185.346,158.694 187.346,162.194 183.5,169C 176.495,170.324 173.995,167.49 176,160.5C 176.717,159.956 177.217,159.289 177.5,158.5 Z"/></g>
<g><path style="opacity:1" fill="#cf5764" d="M 239.5,178.5 C 236.71,182.628 233.043,185.628 228.5,187.5C 231.871,184.129 235.537,181.129 239.5,178.5 Z"/></g>
<g><path style="opacity:1" fill="#814e1f" d="M 148.5,180.5 C 149.833,180.833 151.167,181.167 152.5,181.5C 157.042,183.569 161.708,185.236 166.5,186.5C 166.167,186.5 165.833,186.5 165.5,186.5C 159.806,186.149 154.472,184.815 149.5,182.5C 149.167,181.833 148.833,181.167 148.5,180.5 Z"/></g>
<g><path style="opacity:1" fill="#743028" d="M 188.5,184.5 C 186.123,185.887 183.457,186.721 180.5,187C 175.316,187.816 170.316,187.65 165.5,186.5C 165.833,186.5 166.167,186.5 166.5,186.5C 173.924,186.698 181.257,186.032 188.5,184.5 Z"/></g>
<g><path style="opacity:1" fill="#cecece" d="M 84.5,180.5 C 99.6918,209.683 123.359,228.016 155.5,235.5C 155.5,236.833 155.5,238.167 155.5,239.5C 124.825,233.427 101.991,216.761 87,189.5C 85.5699,186.647 84.7366,183.647 84.5,180.5 Z"/></g>
<g><path style="opacity:1" fill="#be2e38" d="M 219.5,209.5 C 216.974,208.343 214.307,208.343 211.5,209.5C 213.336,207.412 215.669,206.079 218.5,205.5C 220.388,203.012 221.055,200.012 220.5,196.5C 221.745,192.254 224.412,189.254 228.5,187.5C 233.043,185.628 236.71,182.628 239.5,178.5C 242.522,174.634 245.856,171.468 249.5,169C 243.739,176.765 237.239,183.931 230,190.5C 229.409,191.483 229.743,192.15 231,192.5C 239.005,185.828 246.339,178.495 253,170.5C 253.167,170.833 253.333,171.167 253.5,171.5C 248.314,180.194 241.814,187.86 234,194.5C 233.312,195.332 233.479,195.998 234.5,196.5C 243.187,189.98 250.687,182.313 257,173.5C 257.167,173.833 257.333,174.167 257.5,174.5C 251.966,183.558 245.466,191.891 238,199.5C 237.312,200.332 237.479,200.998 238.5,201.5C 246.527,193.64 254.027,185.307 261,176.5C 261.315,177.908 260.982,179.241 260,180.5C 254.007,189.64 247.174,198.14 239.5,206C 234.125,211.125 228.459,211.625 222.5,207.5C 221.482,208.193 220.482,208.859 219.5,209.5 Z"/></g>
<g><path style="opacity:1" fill="#d97886" d="M 220.5,196.5 C 221.055,200.012 220.388,203.012 218.5,205.5C 219.088,202.39 219.755,199.39 220.5,196.5 Z"/></g>
<g><path style="opacity:1" fill="#f2d2d3" d="M 221.5,201.5 C 222.364,202.688 223.364,203.855 224.5,205C 227.5,205.333 230.5,205.667 233.5,206C 227.391,210.255 223.391,208.755 221.5,201.5 Z"/></g>
<g><path style="opacity:1" fill="#bb1c2f" d="M 219.5,209.5 C 197.315,223.945 173.482,228.278 148,222.5C 147.235,220.934 147.402,219.601 148.5,218.5C 156.631,217.893 164.631,217.226 172.5,216.5C 173.833,216.5 175.167,216.5 176.5,216.5C 182.739,216.724 188.739,216.057 194.5,214.5C 200.287,213.013 205.954,211.346 211.5,209.5C 214.307,208.343 216.974,208.343 219.5,209.5 Z"/></g>
<g><path style="opacity:1" fill="#da7a86" d="M 194.5,214.5 C 188.739,216.057 182.739,216.724 176.5,216.5C 182.288,215.19 188.288,214.523 194.5,214.5 Z"/></g>
<g><path style="opacity:1" fill="#d46b7a" d="M 172.5,216.5 C 164.631,217.226 156.631,217.893 148.5,218.5C 148.611,217.883 148.944,217.383 149.5,217C 157.159,216.5 164.826,216.334 172.5,216.5 Z"/></g>
</svg>
