<svg width="30" height="30" viewBox="0 0 30 30" fill="none" xmlns="http://www.w3.org/2000/svg">
<g clip-path="url(#clip0_388_5829)">
<path d="M30 15.0586C29.9218 23.5145 23.1933 30.083 14.6972 30C6.47946 29.9194 -0.0635069 23.0701 -3.03077e-05 14.6508C0.0634463 6.51226 6.97018 -0.0879334 15.3198 -2.84538e-05C23.4375 0.0732257 30.0757 6.89074 30 15.0586Z" fill="#DF714D"/>
<path d="M15.8008 11.4618C16.1523 10.5266 16.228 9.53524 16.7554 9.14211C17.4414 8.62933 18.4863 8.59759 19.5337 8.31922L19.9243 6.44636C16.8774 5.48429 14.2896 6.77112 13.4692 9.57431C12.981 11.2396 12.981 11.2396 11.2549 11.5986C11.1743 12.2579 11.0913 12.9318 10.9961 13.6888H13.0713L10.3369 19.195L12.29 19.3025L10.498 22.8724L16.3574 17.3051L16.272 17.0926H14.1138C15.3809 15.8717 16.4014 14.7949 17.5049 13.8206C18.2373 13.1809 18.396 12.4166 18.4399 11.4692L15.8008 11.4618Z" fill="white"/>
</g>
<defs>
<clipPath id="clip0_388_5829">
<rect width="30" height="30" fill="white"/>
</clipPath>
</defs>
</svg>
