<svg width="32" height="32" viewBox="0 0 32 32" fill="none" xmlns="http://www.w3.org/2000/svg">
<circle cx="16" cy="16" r="16" fill="#F0F0F0"/>
<path d="M16.916 7.35714C16.402 6.88095 15.598 6.88095 15.084 7.35714L8.62597 13.34C8.2264 13.7102 8 14.2252 8 14.7641V22.0403C8 23.1226 8.89543 24 10 24H12C13.1046 24 14 23.1226 14 22.0403V18.7741C14 18.4133 14.2985 18.1208 14.6667 18.1208H17.3333C17.7015 18.1208 18 18.4133 18 18.7741V22.0403C18 23.1226 18.8954 24 20 24H22C23.1046 24 24 23.1226 24 22.0403V14.7641C24 14.2252 23.7736 13.7102 23.374 13.34L16.916 7.35714Z" fill="#FC6A57"/>
</svg>
