<svg width="12" height="14" viewBox="0 0 12 14" fill="none" xmlns="http://www.w3.org/2000/svg">
<path d="M6.68701 1.26139C6.30151 0.896919 5.69849 0.896919 5.31299 1.26139L0.46948 5.84073C0.169802 6.12407 0 6.51829 0 6.9307V12.4999C0 13.3284 0.671572 13.9999 1.5 13.9999H3C3.82843 13.9999 4.5 13.3284 4.5 12.4999V9.99997C4.5 9.72383 4.72386 9.49997 5 9.49997H7C7.27614 9.49997 7.5 9.72383 7.5 9.99997V12.4999C7.5 13.3284 8.17157 13.9999 9 13.9999H10.5C11.3284 13.9999 12 13.3284 12 12.4999V6.9307C12 6.51829 11.8302 6.12407 11.5305 5.84073L6.68701 1.26139Z" fill="#120D26"/>
</svg>
