<svg width="19" height="21" viewBox="0 0 19 21" fill="none" xmlns="http://www.w3.org/2000/svg">
<path d="M6.75408 18.9079V15.9775C6.75408 15.2295 7.36492 14.6231 8.11842 14.6231H10.8728C11.2347 14.6231 11.5817 14.7658 11.8376 15.0198C12.0934 15.2738 12.2372 15.6183 12.2372 15.9775V18.9079C12.2349 19.2189 12.3577 19.5179 12.5784 19.7386C12.7991 19.9593 13.0995 20.0834 13.4127 20.0834H15.2919C16.1696 20.0857 17.0121 19.7411 17.6335 19.1259C18.2549 18.5106 18.6041 17.6751 18.6041 16.8038V8.45582C18.6041 7.75202 18.2898 7.08443 17.746 6.63289L11.3534 1.56446C10.2413 0.675786 8.64807 0.704479 7.56925 1.6326L1.32247 6.63289C0.752962 7.07112 0.412573 7.74069 0.395752 8.45582V16.7953C0.395752 18.6113 1.87866 20.0834 3.70792 20.0834H5.5442C6.19484 20.0834 6.72362 19.5623 6.72834 18.9164L6.75408 18.9079Z" fill="#F97363"/>
</svg>
