<svg width="24" height="24" viewBox="0 0 24 24" fill="none" xmlns="http://www.w3.org/2000/svg">
<g clip-path="url(#clip0_189_824)">
<path d="M15.92 15.23L18.35 11C19.003 9.88535 19.3473 8.61684 19.3473 7.32499C19.3473 6.03314 19.003 4.76463 18.35 3.64999C17.7042 2.53513 16.7767 1.60961 15.6604 0.966206C14.5442 0.322805 13.2784 -0.0158691 11.99 -0.0158691C10.7016 -0.0158691 9.43583 0.322805 8.31957 0.966206C7.20332 1.60961 6.2758 2.53513 5.63 3.64999C4.97697 4.76463 4.63274 6.03314 4.63274 7.32499C4.63274 8.61684 4.97697 9.88535 5.63 11L8.06 15.21C4 15.71 0 17 0 19.5C0 22.59 6.22 24 12 24C17.78 24 24 22.59 24 19.5C24 17 20 15.71 15.92 15.23ZM7.37 4.66999C7.70884 4.04156 8.17025 3.48746 8.72695 3.04046C9.28365 2.59345 9.92434 2.26262 10.6111 2.06753C11.2979 1.87244 12.0168 1.81705 12.7254 1.90464C13.434 1.99222 14.1178 2.221 14.7364 2.57746C15.355 2.93391 15.8958 3.41079 16.3269 3.97989C16.758 4.549 17.0706 5.19878 17.2462 5.89079C17.4219 6.58281 17.4569 7.30302 17.3494 8.00883C17.2418 8.71463 16.9938 9.3917 16.62 9.99999L12 18L7.38 9.99999C6.90871 9.19128 6.65956 8.27235 6.65781 7.33633C6.65605 6.40032 6.90175 5.48047 7.37 4.66999ZM12 22C5.4 22 2 20.25 2 19.5C2 18.97 4.15 17.55 9.18 17.12L10.53 19.45C10.6795 19.7074 10.894 19.921 11.1519 20.0695C11.4099 20.218 11.7023 20.2961 12 20.2961C12.2977 20.2961 12.5901 20.218 12.8481 20.0695C13.106 19.921 13.3205 19.7074 13.47 19.45L14.82 17.12C19.85 17.55 22 19 22 19.5C22 20.25 18.6 22 12 22Z" fill="#120D26"/>
<path d="M12 9C13.1046 9 14 8.10457 14 7C14 5.89543 13.1046 5 12 5C10.8954 5 10 5.89543 10 7C10 8.10457 10.8954 9 12 9Z" fill="#F97363"/>
</g>
<defs>
<clipPath id="clip0_189_824">
<rect width="24" height="24" fill="white"/>
</clipPath>
</defs>
</svg>
