<svg width="12" height="16" viewBox="0 0 12 16" fill="none" xmlns="http://www.w3.org/2000/svg">
<path d="M5.28175 0.0438585C4.19289 0.178271 3.18226 0.600266 2.29365 1.29421C1.98076 1.53803 1.43633 2.09444 1.20479 2.40703C0.0752626 3.93872 -0.268916 5.77361 0.209805 7.73355C0.719816 9.80601 2.14659 12.1723 4.28989 14.498C4.87499 15.1325 5.67912 15.9078 5.80427 15.9609C5.93569 16.014 6.07023 16.014 6.21103 15.9546C6.34245 15.8984 7.51891 14.7324 8.03831 14.1416C10.0064 11.9066 11.2861 9.73725 11.7742 7.80857C12.278 5.82676 11.9338 3.93247 10.7917 2.40391C10.5758 2.1132 10.0627 1.57867 9.77172 1.34423C8.5139 0.318936 6.88687 -0.153072 5.28175 0.0438585ZM6.34557 2.68524C6.73356 2.729 7.06209 2.82277 7.39375 2.97907C8.13843 3.32917 8.67347 3.8637 9.02078 4.60141C9.62153 5.87364 9.33993 7.39595 8.32304 8.38061C7.31553 9.35276 5.85121 9.60596 4.60591 9.01829C4.22731 8.83699 3.97074 8.66194 3.67975 8.38061C2.66286 7.39595 2.38126 5.87364 2.98201 4.60141C3.5327 3.43857 4.66536 2.69774 5.95446 2.6571C6.0233 2.6571 6.19852 2.66961 6.34557 2.68524Z" fill="#120D26"/>
</svg>
