<svg width="30" height="23" viewBox="0 0 30 23" fill="none" xmlns="http://www.w3.org/2000/svg">
<g clip-path="url(#clip0_388_5837)">
<path d="M29.0259 9.0332C29.0255 8.81071 28.959 8.59335 28.8351 8.40858C28.7111 8.22382 28.5352 8.07994 28.3295 7.99513C28.1238 7.91032 27.8975 7.88838 27.6794 7.93208C27.4612 7.97578 27.2609 8.08317 27.1037 8.24067C26.9466 8.39817 26.8396 8.59871 26.7964 8.81697C26.7532 9.03523 26.7756 9.2614 26.8609 9.46691C26.9461 9.67243 27.0904 9.84806 27.2754 9.97162C27.4604 10.0952 27.6779 10.1611 27.9004 10.1611C28.0485 10.1615 28.1952 10.1325 28.3321 10.0759C28.469 10.0193 28.5933 9.93618 28.6979 9.83134C28.8025 9.72651 28.8853 9.60202 28.9416 9.46504C28.9979 9.32806 29.0266 9.1813 29.0259 9.0332ZM23.7501 2.48535L22.0411 19.6777C22.4244 19.7241 23.0176 19.6777 23.1226 19.0723C23.2862 18.1494 24.6973 3.75488 24.6973 3.75488C24.6973 3.75488 24.9561 3.07617 23.7379 2.48535H23.7501ZM27.6978 11.4136C27.6978 11.4136 26.7212 11.6992 25.4517 11.9165L24.6583 19.5605C24.6583 19.5605 24.5508 21.189 23.3545 21.189H21.9044L21.8873 21.355C21.8873 21.355 21.7066 22.4756 20.73 22.6221C19.7535 22.7686 0.849664 22.6221 0.849664 22.6221C0.849664 22.6221 0.0513238 22.4756 0.0171441 21.7285C-0.0170356 20.9814 0.0171441 5.57861 0.0171441 5.57861C0.109685 5.27545 0.289328 5.00619 0.533722 4.80434C0.778115 4.60249 1.07647 4.47695 1.39166 4.44336C1.82623 4.38721 5.10259 3.84766 8.96002 3.20557L10.2491 0.764161C10.3725 0.54179 10.5517 0.355391 10.7691 0.223307C10.9864 0.0912233 11.2344 0.0180068 11.4887 0.0108626C11.7429 0.00371831 11.9946 0.0628925 12.219 0.182562C12.4435 0.302231 12.6329 0.478272 12.7686 0.69336C12.5296 0.433991 12.2021 0.273692 11.8506 0.244141H11.814H11.7383H11.7188C11.4579 0.243519 11.2018 0.314132 10.9781 0.448365C10.7543 0.582599 10.5715 0.775359 10.4493 1.00586L0.952203 19.043C0.790359 19.3774 0.764748 19.7617 0.880771 20.1147C0.996795 20.4677 1.24538 20.7618 1.5741 20.935C1.90282 21.1082 2.28597 21.147 2.64273 21.0432C2.99949 20.9393 3.30198 20.701 3.48638 20.3784L10.3223 7.39502V18.1177C10.3236 18.4926 10.4733 18.8518 10.7386 19.1167C11.004 19.3815 11.3634 19.5306 11.7383 19.5312C12.6197 19.5312 13.2032 18.4302 13.252 18.3301L17.0118 11.0767V17.3511C17.0118 17.726 17.1607 18.0855 17.4258 18.3506C17.6909 18.6157 18.0504 18.7646 18.4254 18.7646C18.8003 18.7646 19.1598 18.6157 19.4249 18.3506C19.69 18.0855 19.8389 17.726 19.8389 17.3511V5.26367C19.8405 4.93439 19.7268 4.61492 19.5177 4.3606C19.3085 4.10629 19.017 3.93313 18.6936 3.87111C18.3702 3.8091 18.0353 3.86214 17.7468 4.02104C17.4584 4.17994 17.2347 4.43471 17.1143 4.74121L17.0923 4.77539L13.4034 11.897L12.4976 13.8013L13.1519 11.4355V2.50488C18.0176 1.6919 22.5391 0.930177 22.5391 0.930177C22.5391 0.930177 23.7354 0.639649 23.8086 1.90674L23.7549 2.44141C24.1651 2.35352 26.0987 2.01904 26.2305 3.66211L25.9595 7.56836C25.9595 7.56836 26.2916 7.8125 27.7344 7.24609C27.7344 7.24609 29.7632 6.44043 29.9805 8.45215C29.9805 8.45215 30.3736 10.5127 27.6978 11.4258V11.4136ZM28.5279 9.04053C28.5279 9.16462 28.4911 9.28593 28.4221 9.38912C28.3532 9.4923 28.2552 9.57272 28.1406 9.62021C28.0259 9.6677 27.8998 9.68012 27.778 9.65591C27.6563 9.6317 27.5445 9.57195 27.4568 9.4842C27.369 9.39645 27.3093 9.28465 27.2851 9.16294C27.2609 9.04122 27.2733 8.91507 27.3208 8.80042C27.3683 8.68577 27.4487 8.58777 27.5519 8.51883C27.655 8.44989 27.7764 8.41309 27.9004 8.41309C28.0656 8.41308 28.2241 8.47817 28.3415 8.59426C28.459 8.71035 28.526 8.86807 28.5279 9.0332V9.04053Z" fill="#2172B9"/>
</g>
<defs>
<clipPath id="clip0_388_5837">
<rect width="30" height="22.6855" fill="white"/>
</clipPath>
</defs>
</svg>
