<svg width="36" height="36" viewBox="0 0 36 36" fill="none" xmlns="http://www.w3.org/2000/svg">
<circle cx="18" cy="18" r="18" fill="#F0F0F0"/>
<path d="M8.04145 11.1255C7.77217 11.2438 7.48947 11.5395 7.34493 11.855C7.22657 12.1047 7.21997 12.4334 7.21997 18.0005C7.21997 23.5478 7.22657 23.8963 7.34493 24.146C7.46989 24.4287 7.85753 24.8033 8.12043 24.9085C8.21899 24.9413 12.1495 24.9677 18.0057 24.9677C27.5031 24.9677 27.7398 24.9677 27.9829 24.8429C28.3116 24.672 28.6205 24.3105 28.7058 24.0016C28.8044 23.6534 28.8044 12.3419 28.7058 12C28.6665 11.862 28.5349 11.6319 28.4102 11.494C27.9565 10.9944 28.8636 11.034 17.9859 11.034C10.0527 11.0399 8.19919 11.0531 8.04145 11.1255ZM28.0355 11.4671C28.1341 11.5395 28.2852 11.73 28.3708 11.8944L28.5153 12.1835L28.5021 18.066C28.4823 24.6058 28.5087 24.1853 28.0421 24.5204L27.8252 24.6715H17.9859C8.15981 24.6715 8.14661 24.6715 7.96247 24.5336C7.86391 24.4612 7.71277 24.2707 7.62719 24.1064L7.48265 23.8171L7.49585 17.8951L7.51565 11.9731L7.70617 11.73C7.81133 11.5921 7.98887 11.4407 8.10041 11.3882C8.27135 11.3158 9.94731 11.3028 18.0776 11.3158C27.8252 11.3292 27.8516 11.3292 28.0355 11.4671Z" fill="#20336B"/>
<path d="M9.25757 15.5356V18.1319H9.98709H10.7166L10.6902 16.6136C10.677 15.5882 10.6902 15.1348 10.7362 15.2006C10.7756 15.2598 11.262 15.9367 11.8208 16.7058L12.8396 18.0991L13.5496 18.1189L14.2529 18.1387V15.5359V12.9396H13.53H12.8071V14.3593V15.779L12.0379 14.734C11.6173 14.1622 11.1507 13.5246 11.0061 13.3209L10.7366 12.9462L10.0005 12.9396H9.25779V15.5356H9.25757Z" fill="#20336B"/>
<path d="M15.2385 15.5356V18.1318H16.9145H18.5905V17.5075V16.8831H17.7032H16.8159V16.5216V16.1602H17.6046H18.3933V15.5358V14.9112H17.6046H16.8093L16.8291 14.53L16.8489 14.1553L17.6902 14.1355L18.5249 14.1157V13.5307V12.9392H16.8817H15.2385V15.5356Z" fill="#20336B"/>
<path d="M18.9851 13.531V14.116L19.695 14.1358L20.3984 14.1556L20.4182 16.1406L20.4314 18.1321H21.2201H22.0083V16.1274V14.1228H22.7313H23.4542V13.5312V12.9396H21.2196H18.9851V13.531Z" fill="#20336B"/>
<path d="M17.6047 21.0237V22.7327H18.0978H18.5842L18.604 22.1675L18.6238 21.6021L18.8539 22.1477L19.0904 22.6997L19.636 22.7195L20.1816 22.7393L19.8463 22.1149L19.5176 21.4905L19.8069 20.9909C19.9713 20.7148 20.1026 20.4783 20.1026 20.4585C20.1026 20.4387 19.8661 20.4321 19.5702 20.4453L19.0378 20.4651L18.8341 20.9581L18.6238 21.4512L18.604 20.3798L18.5908 19.315H18.0978H17.6047V21.0237Z" fill="#20336B"/>
<path d="M20.4309 19.5121C20.2599 19.683 20.2665 19.8474 20.4375 20.0643C20.5426 20.2022 20.6282 20.2352 20.8515 20.2352C21.042 20.2352 21.167 20.1958 21.2394 20.1169C21.3839 19.9525 21.3775 19.6238 21.2328 19.4925C21.0552 19.3345 20.5952 19.3477 20.4309 19.5121Z" fill="#20336B"/>
<path d="M9.0603 21.1291V22.7458L10.0659 22.7194C10.9204 22.6996 11.0979 22.6801 11.2885 22.5683C11.6171 22.3712 11.7749 22.1279 11.7815 21.7862C11.7881 21.4575 11.6105 21.2012 11.2689 21.0567C11.0847 20.9777 11.0847 20.9713 11.2163 20.9319C11.4464 20.8596 11.6895 20.5113 11.6895 20.268C11.6895 19.9789 11.4398 19.6896 11.1111 19.591C10.9666 19.5451 10.4538 19.5121 9.95438 19.5121H9.0603V21.1291ZM10.5589 20.2482C10.6773 20.3665 10.6509 20.6162 10.513 20.695C10.4406 20.7278 10.296 20.7608 10.1843 20.7608C9.98716 20.7608 9.98056 20.7542 9.98056 20.4651V20.1694H10.2303C10.3682 20.1694 10.513 20.2022 10.5589 20.2482ZM10.6509 21.5299C10.9138 21.7664 10.7035 22.0755 10.263 22.0755H9.98034V21.7468V21.4181H10.2564C10.4144 21.4181 10.5787 21.4641 10.6509 21.5299Z" fill="#20336B"/>
<path d="M12.5439 20.4519C12.2482 20.5309 12.2482 20.5309 12.2284 20.8398C12.2152 21.0173 12.2152 21.1552 12.2284 21.1552C12.2416 21.1552 12.3663 21.1093 12.5111 21.0567C12.8332 20.9449 13.2144 20.9319 13.3196 21.0369C13.4511 21.1682 13.4115 21.2144 13.0895 21.2538C12.3401 21.3524 12.0181 21.5957 12.0181 22.0689C12.0181 22.6999 12.6228 23.0021 13.1616 22.6341C13.3851 22.4829 13.3983 22.4829 13.3983 22.6013C13.3983 22.7197 13.4443 22.7329 13.865 22.7329H14.3316L14.3052 21.8588C14.2788 20.9124 14.2264 20.748 13.8911 20.5245C13.6744 20.3861 12.9317 20.3404 12.5439 20.4519ZM13.3983 21.8388C13.3983 22.0359 13.2538 22.1609 13.0565 22.1279C12.8395 22.1017 12.8134 21.8322 13.0171 21.7532C13.2866 21.6417 13.3983 21.6678 13.3983 21.8388Z" fill="#20336B"/>
<path d="M16.0535 20.4585C15.9352 20.5111 15.8104 20.603 15.7708 20.6754C15.7116 20.7806 15.705 20.774 15.6984 20.6096V20.4321H15.2054H14.7124V21.5823V22.7324H15.2054H15.6921L15.7119 21.9699C15.7317 21.3191 15.7512 21.1878 15.8498 21.1286C15.9288 21.076 15.9943 21.076 16.0799 21.1286C16.1719 21.1878 16.1917 21.3191 16.2115 21.9699L16.2313 22.7324H16.7239H17.2235L17.1971 21.8254C17.1773 21.2404 17.1379 20.8591 17.0787 20.741C16.908 20.3993 16.4742 20.2812 16.0535 20.4585Z" fill="#20336B"/>
<path d="M23.1916 20.4125C23.139 20.4323 23.014 20.5243 22.9155 20.6162L22.7316 20.7872V20.6096C22.7316 20.4321 22.725 20.4321 22.2715 20.4321H21.8115V21.5823V22.7324H22.2715H22.7316V22.0225C22.7316 21.2338 22.7973 21.0628 23.0668 21.1022C23.2246 21.122 23.2246 21.1286 23.2444 21.9237L23.2642 22.7322H23.7506H24.2436V21.8581C24.2436 20.8985 24.1583 20.6028 23.8492 20.4515C23.678 20.3665 23.3691 20.3467 23.1916 20.4125Z" fill="#20336B"/>
<path d="M25.1501 20.5046C24.5257 20.8332 24.3878 22.0162 24.907 22.5354C25.2225 22.8508 25.7747 22.8772 26.0703 22.5945L26.2149 22.463V22.6339C26.2149 22.7259 26.1425 22.877 26.0439 22.9758C25.8928 23.1269 25.8402 23.1401 25.4722 23.1137C25.2486 23.0939 25.0121 23.0612 24.953 23.0284C24.8478 22.989 24.8346 23.0218 24.8346 23.3438C24.8346 23.7777 24.8806 23.8039 25.5575 23.7975C26.1491 23.7975 26.5238 23.6725 26.8128 23.3834C27.1349 23.0614 27.2007 22.7459 27.2007 21.4906V20.4324H26.7077C26.3002 20.4324 26.2147 20.4522 26.2147 20.5376C26.2147 20.6229 26.1819 20.6163 26.0437 20.5048C25.8204 20.3338 25.4722 20.3338 25.1501 20.5046ZM26.1359 21.1685C26.2345 21.2671 26.2411 21.7733 26.1491 21.9506C26.0767 22.0822 25.8534 22.1149 25.7023 22.0164C25.5577 21.9244 25.5247 21.4446 25.6497 21.2539C25.7678 21.0763 26.0046 21.037 26.1359 21.1685Z" fill="#20336B"/>
<path d="M20.3652 21.5825V22.7327H20.8583H21.3513V21.5825V20.4323H20.8583H20.3652V21.5825Z" fill="#20336B"/>
</svg>
