<svg width="22" height="18" viewBox="0 0 22 18" fill="none" xmlns="http://www.w3.org/2000/svg">
<path d="M1.79202 0.835934C1.18187 1.0207 1.06585 1.86718 1.61155 2.19804C1.73616 2.27109 2.1014 2.27539 11.1077 2.29687L20.4748 2.31836V9V15.6816H12.2248C2.94788 15.6816 3.78577 15.7117 3.05101 15.3508C2.3764 15.0199 1.81351 14.3195 1.60726 13.5547C1.52132 13.2281 1.50843 12.5148 1.58577 12.2227C1.80062 11.4105 2.29476 10.7574 2.97366 10.3793C3.33031 10.1816 3.44202 10.1516 3.34749 10.2891C2.81038 11.0539 2.77171 11.1227 2.77171 11.3633C2.77171 11.7414 3.00374 12.0164 3.40765 12.1109C3.58382 12.1539 3.85452 12.0637 4.01781 11.909C4.20257 11.7328 5.79242 9.45547 5.82679 9.31367C5.87406 9.1375 5.8182 8.78515 5.72796 8.66484C5.63343 8.53593 3.36898 6.92461 3.14984 6.82578C2.96937 6.74843 2.6514 6.74843 2.49671 6.83007C2.19163 6.98476 2.02405 7.35429 2.10999 7.68515C2.16585 7.91718 2.29476 8.05039 2.76741 8.38125C2.96937 8.51875 3.11976 8.64765 3.10257 8.66054C3.08538 8.67343 2.97796 8.7207 2.85765 8.76367C1.59866 9.21914 0.610382 10.259 0.202179 11.5566C-0.481025 13.7223 0.674835 16.0898 2.80179 16.902C3.58812 17.2027 2.80609 17.1812 12.517 17.1941C18.4123 17.2027 21.3299 17.1941 21.4373 17.1641C21.6608 17.1039 21.8241 16.9664 21.9186 16.7602C21.9959 16.5926 22.0002 16.2918 22.0002 9C22.0002 1.72968 21.9959 1.40742 21.9186 1.24414C21.8756 1.14961 21.7983 1.03789 21.751 0.994919C21.519 0.788668 21.9616 0.797262 11.6233 0.797262C6.28226 0.801559 1.85648 0.818747 1.79202 0.835934Z" fill="#120D26"/>
<path d="M11.821 3.11329C11.6234 3.16055 11.4687 3.28087 11.357 3.48282C11.271 3.62891 11.2582 3.71485 11.2582 4.11016V4.56993L11.0777 4.61719C10.0378 4.8793 9.19565 5.5668 8.88628 6.4004C8.74878 6.76993 8.74878 7.49181 8.88628 7.86134C9.18706 8.67345 9.98198 9.33517 11.0132 9.62306L11.2582 9.69181V10.7703V11.8445L11.1421 11.8145C11.0003 11.7844 10.7296 11.6125 10.5578 11.4535C10.3859 11.2988 10.3085 11.1356 10.2699 10.8391C10.1968 10.332 9.823 10.0484 9.34604 10.1344C9.14839 10.1731 8.87339 10.4223 8.80464 10.6199C8.74018 10.8262 8.77886 11.2774 8.89057 11.5996C9.17847 12.4203 10.0335 13.1164 11.0777 13.3828L11.2582 13.4301V13.8813C11.2582 14.341 11.2968 14.4957 11.4687 14.6891C11.6792 14.9297 12.1304 14.9727 12.4226 14.7836C12.6847 14.6074 12.7621 14.4055 12.7621 13.8684V13.4301L13.0113 13.3613C14.0425 13.0734 14.846 12.4031 15.1296 11.5996C15.2542 11.243 15.2843 10.7274 15.1941 10.3879C14.9492 9.4297 14.1542 8.69493 13.0113 8.37696L12.7621 8.30821V7.23829C12.7621 6.52931 12.7749 6.16407 12.805 6.16407C12.891 6.16407 13.2734 6.37891 13.4238 6.50782C13.5999 6.66681 13.7503 6.9547 13.7503 7.14376C13.7503 7.65938 14.3089 8.02892 14.7945 7.82267C14.9835 7.74532 15.2027 7.48751 15.2371 7.29845C15.2542 7.21251 15.2542 7.03204 15.2414 6.89884C15.1296 5.86759 14.266 4.99102 13.0113 4.63868L12.7621 4.56993V4.13165C12.7621 3.79219 12.7406 3.6504 12.6804 3.5129C12.5386 3.20782 12.1648 3.03165 11.821 3.11329ZM11.2582 7.13087C11.2582 7.76681 11.241 8.09767 11.2152 8.09767C11.1292 8.09767 10.7468 7.88282 10.5964 7.75392C10.4203 7.59923 10.2699 7.30704 10.2699 7.12657C10.2742 6.92892 10.416 6.66681 10.6136 6.49493C10.7984 6.33595 11.1078 6.16407 11.2066 6.16407C11.2453 6.16407 11.2582 6.38751 11.2582 7.13087ZM13.0628 10.0098C13.471 10.216 13.7503 10.5641 13.7503 10.8692C13.7503 11.0453 13.5957 11.3375 13.4238 11.4922C13.2734 11.6211 12.891 11.8359 12.805 11.8359C12.7792 11.8359 12.7621 11.5051 12.7621 10.8692C12.7621 10.2332 12.7792 9.90235 12.805 9.90235C12.8308 9.90235 12.9468 9.94962 13.0628 10.0098Z" fill="#120D26"/>
</svg>
