<svg width="30" height="10" viewBox="0 0 30 10" fill="none" xmlns="http://www.w3.org/2000/svg">
<g clip-path="url(#clip0_388_5844)">
<path d="M29.8999 2.77344C29.6265 1.99463 28.8843 1.43555 28.0151 1.43555H27.9956C27.4292 1.43555 26.9189 1.67236 26.5552 2.05078C26.1914 1.67236 25.6812 1.43555 25.1147 1.43555H25.0977C24.5996 1.43555 24.1431 1.61865 23.7939 1.91895V1.76758C23.7817 1.61377 23.6572 1.49414 23.501 1.49414H22.1631C21.9995 1.49414 21.8677 1.62598 21.8677 1.78955V9.05029C21.8677 9.21387 21.9995 9.3457 22.1631 9.3457H23.501C23.6499 9.3457 23.7744 9.2334 23.7915 9.0918V3.87939C23.7915 3.85986 23.7915 3.84521 23.7939 3.82812C23.8159 3.59619 23.9868 3.40332 24.2554 3.38135H24.502C24.6143 3.39111 24.7095 3.43018 24.7827 3.49121C24.8999 3.58398 24.9634 3.72559 24.9634 3.88184L24.9683 9.06738C24.9683 9.23096 25.1001 9.36523 25.2637 9.36523H26.6016C26.7603 9.36523 26.8872 9.24072 26.8945 9.08447V3.87695C26.8945 3.70605 26.9727 3.5498 27.1118 3.45947C27.1802 3.41553 27.2632 3.38623 27.3584 3.37646H27.605C27.8955 3.40088 28.0688 3.62061 28.0688 3.87695L28.0737 9.05762C28.0737 9.22119 28.2056 9.35303 28.3691 9.35303H29.707C29.8633 9.35303 29.9927 9.23096 30.0024 9.07715V3.396C29.9951 3.07617 29.9536 2.92725 29.8999 2.77344ZM20.8472 1.51367H20.083V0.273438C20.083 0.270996 20.083 0.270996 20.083 0.268555C20.083 0.12207 19.9634 0 19.812 0C19.7949 0 19.7778 0.00244141 19.7607 0.00488281C18.9136 0.236816 19.082 1.41113 17.5342 1.51123H17.3853C17.3633 1.51123 17.3413 1.51367 17.3193 1.51855H17.3169H17.3193C17.1899 1.55029 17.0898 1.66748 17.0898 1.80908V3.14697C17.0898 3.31055 17.2217 3.44238 17.3853 3.44238H18.1909L18.1885 9.11133C18.1885 9.27246 18.3203 9.4043 18.4814 9.4043H19.8047C19.9658 9.4043 20.0977 9.27246 20.0977 9.11133V3.44238H20.8472C21.0083 3.44238 21.1426 3.30811 21.1426 3.14697V1.80908C21.1426 1.64551 21.0107 1.51367 20.8472 1.51367Z" fill="#00BAF2"/>
<path d="M16.0376 1.51367H14.6997C14.5386 1.51367 14.4043 1.64551 14.4043 1.80908V4.57519C14.4019 4.74609 14.2627 4.88281 14.0918 4.88281H13.5327C13.3594 4.88281 13.2178 4.74365 13.2178 4.57031L13.2129 1.80908C13.2129 1.64551 13.0811 1.51367 12.9175 1.51367H11.5796C11.416 1.51367 11.2842 1.64551 11.2842 1.80908V4.83887C11.2842 5.98877 12.1045 6.81152 13.2568 6.81152C13.2568 6.81152 14.1211 6.81152 14.148 6.8164C14.3042 6.83349 14.4238 6.96533 14.4238 7.12646C14.4238 7.28515 14.3066 7.41699 14.1504 7.43652C14.1431 7.43652 14.1357 7.43896 14.1284 7.4414L12.1729 7.44873C12.0093 7.44873 11.8774 7.58056 11.8774 7.74414V9.07959C11.8774 9.24316 12.0093 9.375 12.1729 9.375H14.3579C15.5103 9.375 16.3306 8.55469 16.3306 7.40478V1.80908C16.333 1.64551 16.2012 1.51367 16.0376 1.51367ZM8.43018 1.521H6.57471C6.41113 1.521 6.27686 1.64551 6.27686 1.79687V2.31689C6.27686 2.31934 6.27686 2.32422 6.27686 2.32666C6.27686 2.33154 6.27686 2.33398 6.27686 2.33887V3.05176C6.27686 3.21289 6.41846 3.34717 6.5918 3.34717H8.35938C8.49854 3.36914 8.6084 3.47168 8.62549 3.63037V3.80371C8.61084 3.95508 8.50098 4.06494 8.3667 4.07715H7.49268C6.32813 4.07715 5.50049 4.85107 5.50049 5.93506V7.49023C5.50049 8.56933 6.21338 9.33594 7.36816 9.33594H9.79248C10.2271 9.33594 10.5811 9.00635 10.5811 8.60107V3.52783C10.5811 2.29736 9.94629 1.521 8.43018 1.521ZM8.64258 7.10205V7.31201C8.64258 7.3291 8.64014 7.34619 8.6377 7.36084C8.63525 7.37549 8.63037 7.39013 8.62549 7.40478C8.58399 7.52197 8.4668 7.60742 8.32764 7.60742H7.771C7.59766 7.60742 7.45606 7.47558 7.45606 7.31201V7.06054C7.45606 7.0581 7.45606 7.05322 7.45606 7.05078V6.37939V6.16943V6.16699C7.45606 6.00586 7.59766 5.87402 7.771 5.87402H8.32764C8.50098 5.87402 8.64258 6.00586 8.64258 6.16943V7.10205ZM3.21289 1.51123H0.290527C0.129395 1.51123 0 1.64307 0 1.80176V3.11279C0 3.11523 0 3.11768 0 3.12012C0 3.12744 0 3.13232 0 3.13721V9.06738C0 9.22851 0.119629 9.36035 0.270996 9.36279H1.6333C1.79688 9.36279 1.92871 9.23095 1.92871 9.06738L1.93359 7.03613H3.21289C4.28223 7.03613 5.0293 6.29394 5.0293 5.21728V3.33252C5.0293 2.2583 4.28223 1.51123 3.21289 1.51123ZM3.0957 3.9624V4.7876C3.0957 4.96094 2.95654 5.10254 2.7832 5.10254H1.93604V3.44971H2.7832C2.95654 3.44971 3.0957 3.58887 3.0957 3.76221V3.9624Z" fill="#20336B"/>
</g>
<defs>
<clipPath id="clip0_388_5844">
<rect width="30" height="9.4043" fill="white"/>
</clipPath>
</defs>
</svg>
