<svg width="30" height="30" viewBox="0 0 30 30" fill="none" xmlns="http://www.w3.org/2000/svg">
<path d="M18.4473 0.405272C15.561 -0.276222 12.5374 -0.0865594 9.75894 0.950278C6.98044 1.98712 4.57179 3.82456 2.83754 6.23028C1.10329 8.63599 0.121332 11.5019 0.0158404 14.4657C-0.0896512 17.4295 0.686057 20.358 2.24488 22.8809C3.8037 25.4038 6.07563 27.4079 8.77338 28.6396C11.4711 29.8714 14.4735 30.2756 17.401 29.801C20.3284 29.3264 23.0494 27.9945 25.2199 25.9735C27.3903 23.9526 28.9128 21.3334 29.5947 18.4473C30.0476 16.5306 30.1185 14.5436 29.8034 12.5996C29.4882 10.6556 28.7932 8.79268 27.7581 7.11729C26.7229 5.4419 25.3678 3.98683 23.7703 2.83517C22.1727 1.68351 20.364 0.85783 18.4473 0.405272Z" fill="#5F259F"/>
<path d="M21.8067 11.0864C21.7985 10.8013 21.6808 10.5304 21.478 10.3298C21.2752 10.1293 21.0029 10.0147 20.7178 10.0098H18.7061L14.0991 4.71924C13.8836 4.4771 13.6037 4.30124 13.292 4.21219C12.9804 4.12314 12.6498 4.12457 12.3389 4.21631L10.7422 4.71924C10.6855 4.73847 10.6342 4.77116 10.5929 4.81451C10.5515 4.85785 10.5213 4.91056 10.5047 4.96814C10.4882 5.02572 10.4858 5.08645 10.4978 5.14514C10.5098 5.20383 10.5359 5.25874 10.5737 5.30517L15.6055 10.0806H7.98341C7.92804 10.0781 7.87278 10.0873 7.82115 10.1074C7.76953 10.1275 7.72268 10.1583 7.6836 10.1976C7.64453 10.2369 7.6141 10.2839 7.59426 10.3356C7.57441 10.3874 7.5656 10.4427 7.56837 10.498V11.3354C7.57339 11.6227 7.68972 11.8967 7.89284 12.0998C8.09597 12.303 8.37002 12.4193 8.65724 12.4243H9.83155V16.4478C9.83155 19.4629 11.4234 21.2231 14.104 21.2231C14.9068 21.2478 15.7058 21.1048 16.4502 20.8032V23.4888C16.4479 23.6654 16.481 23.8407 16.5476 24.0044C16.6141 24.168 16.7127 24.3167 16.8377 24.4416C16.9626 24.5666 17.1113 24.6652 17.2749 24.7317C17.4386 24.7983 17.6139 24.8314 17.7905 24.8291H18.9624C19.0928 24.82 19.2155 24.7641 19.3079 24.6717C19.4003 24.5793 19.4562 24.4565 19.4653 24.3262V12.3437H21.3867C21.4427 12.3469 21.4987 12.3383 21.5511 12.3183C21.6035 12.2983 21.6511 12.2675 21.6907 12.2278C21.7304 12.1882 21.7612 12.1406 21.7812 12.0882C21.8012 12.0358 21.8098 11.9798 21.8067 11.9238V11.0864ZM16.4356 18.291C15.9071 18.5221 15.335 18.6362 14.7583 18.6255C13.418 18.6255 12.749 17.9565 12.749 16.4478V12.4268H16.4356V18.2861V18.291Z" fill="white"/>
</svg>
