<svg width="22" height="22" viewBox="0 0 22 22" fill="none" xmlns="http://www.w3.org/2000/svg">
<path d="M5.02302 0.747663C4.53747 0.936726 3.78982 1.58126 2.90896 2.57813C2.0238 3.57501 1.14724 4.78672 0.829272 5.45274L0.670288 5.77501L0.721851 6.20899C1.11716 9.62501 3.96169 14.0895 7.77732 17.2777C10.4715 19.525 13.3761 20.9816 15.7695 21.2738C16.1648 21.3254 16.1863 21.3211 16.4355 21.2223C17.4496 20.8055 19.8472 18.8805 20.7539 17.7504C21.3125 17.0543 21.407 16.6977 21.175 16.1906C20.9945 15.8039 20.7625 15.5977 19.7441 14.9145C18.584 14.1367 17.8191 13.6813 17.0199 13.2773C15.7523 12.6457 15.2968 12.607 14.7039 13.0926C14.6008 13.1742 14.2742 13.5266 13.9777 13.8746C13.6812 14.2184 13.4148 14.5063 13.3847 14.5148C13.2945 14.5363 12.5554 14.2356 12.0398 13.9606C10.2996 13.0496 8.94607 11.6961 8.03943 9.96876C7.76443 9.44454 7.46365 8.70547 7.48513 8.61524C7.49372 8.58516 7.78161 8.31876 8.12536 8.02227C9.0406 7.24024 9.23396 6.96524 9.23825 6.4754C9.23825 5.82657 8.52068 4.4129 7.10701 2.29454C6.73318 1.73594 6.36365 1.22462 6.25193 1.12149C5.8824 0.782038 5.35388 0.618757 5.02302 0.747663ZM5.66326 2.58673C6.35076 3.55782 7.1199 4.84688 7.61404 5.86524C7.75154 6.14883 7.86325 6.39376 7.86325 6.41094C7.86325 6.42383 7.62693 6.63868 7.33904 6.8836C6.66872 7.44649 6.22615 7.86758 6.07576 8.08672L5.95974 8.2543L6.03708 8.58516C6.31638 9.7754 7.09411 11.2922 7.99216 12.4008C9.39294 14.1195 11.3996 15.4516 13.3289 15.9457C13.5222 15.993 13.7199 16.0231 13.7715 16.0102C13.9261 15.9715 14.4117 15.4945 15.0004 14.7984C15.3054 14.4332 15.5675 14.1367 15.5804 14.1367C15.5933 14.1367 15.8425 14.2484 16.1304 14.3859C17.123 14.8629 18.425 15.6363 19.4004 16.3281L19.8945 16.6805L19.5465 17.0629C19.2113 17.4281 18.3906 18.1887 17.8492 18.6399C17.4668 18.9578 16.5601 19.6195 16.2765 19.7914L16.0316 19.9418L15.7394 19.8902C13.084 19.4477 9.857 17.5527 7.15427 14.8457C5.21638 12.9035 3.61365 10.5961 2.78435 8.55079C2.47497 7.79024 2.21716 6.90938 2.10974 6.26055L2.05818 5.96837L2.20857 5.72344C2.73279 4.85977 4.06912 3.25704 4.9199 2.46641C5.13044 2.26876 5.31091 2.10977 5.31521 2.10548C5.31951 2.10548 5.47419 2.32462 5.66326 2.58673Z" fill="#807A7A"/>
</svg>
