<svg width="17" height="20" viewBox="0 0 17 20" fill="none" xmlns="http://www.w3.org/2000/svg">
<ellipse cx="8.61405" cy="5.67153" rx="4.37986" ry="4.37986" stroke="#807A7A" stroke-width="1.5" stroke-linecap="round" stroke-linejoin="round"/>
<path fill-rule="evenodd" clip-rule="evenodd" d="M1.6667 16.1429C1.66553 15.835 1.73439 15.5309 1.86807 15.2535C2.2876 14.4145 3.47067 13.9698 4.45236 13.7684C5.16036 13.6173 5.87813 13.5164 6.60034 13.4664C7.93746 13.3489 9.28229 13.3489 10.6194 13.4664C11.3416 13.517 12.0593 13.6179 12.7674 13.7684C13.7491 13.9698 14.9321 14.3725 15.3517 15.2535C15.6205 15.8189 15.6205 16.4753 15.3517 17.0407C14.9321 17.9217 13.7491 18.3245 12.7674 18.5175C12.0602 18.6748 11.3422 18.7786 10.6194 18.8279C9.53111 18.9202 8.43772 18.937 7.3471 18.8783C7.09538 18.8783 6.85206 18.8783 6.60034 18.8279C5.88027 18.7792 5.16498 18.6754 4.46075 18.5175C3.47067 18.3245 2.29599 17.9217 1.86807 17.0407C1.73507 16.7601 1.66628 16.4534 1.6667 16.1429Z" stroke="#807A7A" stroke-width="1.5" stroke-linecap="round" stroke-linejoin="round"/>
</svg>
