<svg width="16" height="20" viewBox="0 0 16 20" fill="none" xmlns="http://www.w3.org/2000/svg">
<circle cx="8" cy="10" r="8" fill="#B2B2B2"/>
<path d="M4.888 11.072V9.932C5.064 9.972 5.268 10.004 5.5 10.028C5.732 10.052 5.96 10.064 6.184 10.064C6.648 10.064 7.024 9.98 7.312 9.812C7.608 9.644 7.808 9.4 7.912 9.08H4.888V7.856H7.888C7.776 7.56 7.584 7.336 7.312 7.184C7.04 7.024 6.7 6.944 6.292 6.944H4.888V5.72H10.564L10.252 6.944H9.028C9.276 7.2 9.456 7.504 9.568 7.856H10.564L10.252 9.08H9.64C9.584 9.448 9.452 9.776 9.244 10.064C9.044 10.352 8.784 10.592 8.464 10.784C8.152 10.976 7.788 11.108 7.372 11.18L10.552 14H8.152L4.888 11.072Z" fill="white"/>
</svg>
