<svg width="17" height="20" viewBox="0 0 17 20" fill="none" xmlns="http://www.w3.org/2000/svg">
<g clip-path="url(#clip0_388_6113)">
<path fill-rule="evenodd" clip-rule="evenodd" d="M9.02938 0.397135C10.1979 1.17569 11.4579 1.80233 12.7799 2.26237C13.7609 2.609 14.8005 2.75127 15.8368 2.68066L16.9118 2.58138L16.9646 3.67839C17.1617 7.71322 16.5209 11.2191 15.1767 13.986C13.778 16.862 11.628 18.9404 8.86757 19.9967H8.14982C5.45026 18.9958 3.31786 16.9743 1.90159 14.0609C0.581449 11.3249 -0.0978456 7.79297 0.0110979 3.58073L0.0383338 2.49837L1.09893 2.55371C2.25175 2.6297 3.40896 2.50922 4.52264 2.19727C5.72843 1.84022 6.85429 1.24815 7.83741 0.454102L8.41257 0L9.02938 0.397135Z" fill="#333333"/>
<path fill-rule="evenodd" clip-rule="evenodd" d="M8.47354 1.28748C11.258 3.07784 13.7717 3.92745 15.9314 3.72888C16.3079 11.4747 13.493 17.1045 8.50238 19.0121C3.68483 17.225 0.834679 11.792 1.04616 3.61007C3.5791 3.74353 6.06557 3.18852 8.47354 1.28748Z" fill="white"/>
<path fill-rule="evenodd" clip-rule="evenodd" d="M8.47827 2.65466C10.7965 4.14718 12.8905 4.85356 14.6881 4.68754C15.0085 11.1377 12.6566 16.0531 8.50231 17.6433C4.48581 16.1556 2.11469 11.403 2.29092 4.58988C4.4009 4.70219 6.47243 4.23832 8.47827 2.65466Z" fill="#3AAF3C"/>
<path fill-rule="evenodd" clip-rule="evenodd" d="M5.94867 8.09403H6.40848V7.76851C6.40694 7.18996 6.62632 6.63336 7.02048 6.21578C7.21077 6.00982 7.44058 5.84567 7.69574 5.73346C7.9509 5.62125 8.226 5.56335 8.50404 5.56335C8.78208 5.56335 9.05717 5.62125 9.31233 5.73346C9.56749 5.84567 9.79731 6.00982 9.98759 6.21578C10.3812 6.63373 10.6005 7.19009 10.5996 7.76851V8.09403H11.0546C11.1453 8.09403 11.2322 8.1305 11.2965 8.19547C11.3607 8.26044 11.397 8.34862 11.3975 8.44071V12.8206C11.397 12.9127 11.3607 13.0009 11.2965 13.0658C11.2322 13.1308 11.1453 13.1673 11.0546 13.1673H5.94867C5.85817 13.1673 5.77137 13.1307 5.70737 13.0657C5.64337 13.0007 5.60742 12.9125 5.60742 12.8206V8.44071C5.60742 8.39519 5.61625 8.3501 5.6334 8.30804C5.65055 8.26598 5.67568 8.22776 5.70737 8.19557C5.73906 8.16338 5.77668 8.13784 5.81808 8.12042C5.85948 8.103 5.90386 8.09403 5.94867 8.09403ZM7.81193 10.5615C7.898 10.6348 7.97885 10.7142 8.05385 10.7991C8.28252 10.4273 8.5357 10.0717 8.81164 9.73466C9.56143 8.81343 9.22178 8.99084 10.2632 8.99084L10.1174 9.1536C9.76437 9.5618 9.44299 9.99713 9.1561 10.4557C8.79396 10.9843 8.46487 11.5355 8.1708 12.1061L8.08108 12.2835L7.99777 12.1028C7.85036 11.7771 7.6642 11.471 7.44344 11.1914C7.24419 10.9375 7.0062 10.7177 6.73851 10.5403C6.87469 10.0878 7.52034 10.319 7.80872 10.568L7.81193 10.5615ZM7.04932 8.09403H9.94754V7.76851C9.94853 7.36085 9.79474 6.96851 9.51817 6.67313C9.38789 6.53098 9.23018 6.41761 9.05487 6.34009C8.87957 6.26257 8.69042 6.22256 8.49923 6.22256C8.30804 6.22256 8.1189 6.26257 7.94359 6.34009C7.76829 6.41761 7.61057 6.53098 7.48029 6.67313C7.20276 6.96866 7.04835 7.36169 7.04932 7.77014V8.09566V8.09403Z" fill="white"/>
</g>
<defs>
<clipPath id="clip0_388_6113">
<rect width="17" height="20" fill="white"/>
</clipPath>
</defs>
</svg>
