<svg width="375" height="165" viewBox="0 0 375 165" fill="none" xmlns="http://www.w3.org/2000/svg">
<g clip-path="url(#clip0_395_6917)">
<path d="M111.564 135.856C110.274 145.955 105.534 155.195 100.476 164.095C100.309 164.398 100.137 164.697 99.961 165H47.3975C46.3345 164.724 45.2851 164.421 44.2401 164.095C38.3033 162.288 32.6984 159.531 27.6434 155.932C8.3053 142.002 0.864015 115.68 4.22508 92.0946C6.315 77.4412 12.7473 62.4802 25.2729 54.5881C31.8864 50.4137 40.3814 49.0569 47.9946 50.6082C48.1938 50.6444 48.3928 50.6896 48.5962 50.7303C55.1463 52.2047 60.9816 55.8681 64.302 61.7701C70.2729 72.3758 66.7175 85.5141 63.7818 97.3183C60.855 109.122 59.2672 123.251 67.7625 131.957C64.9578 123.704 67.7262 113.858 74.4256 108.277C79.4874 104.066 86.5351 102.488 92.963 103.795C93.5781 103.926 94.1844 104.075 94.7814 104.256C96.2245 104.679 97.6159 105.261 98.9295 105.993C108.949 111.587 113.007 124.472 111.564 135.856Z" fill="#F2F2F2"/>
<path d="M80.3967 164.095C81.8532 164.435 83.3143 164.733 84.7844 165H76.8366C75.7961 164.72 74.7602 164.421 73.7336 164.095C71.4762 163.39 69.2536 162.58 67.0658 161.667C58.2902 157.985 50.2066 152.459 44.0908 145.105C41.0998 141.542 38.6573 137.553 36.8441 133.269C34.878 128.427 33.6285 123.325 33.135 118.123C32.0266 107.449 33.1575 96.4816 35.27 85.9981C37.45 75.1324 40.969 64.5789 45.7465 54.5791C46.321 53.3806 46.9151 52.1896 47.5287 51.0062C47.571 50.9088 47.6349 50.8223 47.7156 50.7533C47.7963 50.6843 47.8917 50.6347 47.9946 50.6082C48.2034 50.5677 48.4197 50.6116 48.5962 50.7303C48.8081 50.8518 48.9652 51.05 49.035 51.284C49.1049 51.518 49.0822 51.7699 48.9717 51.9876C44.0459 61.5919 40.3119 71.7618 37.8529 82.2714C35.4464 92.5243 34.0803 103.252 34.5462 113.794C34.9895 123.645 37.5635 133.332 43.4032 141.387C48.7365 148.741 56.1007 154.539 64.2477 158.487C69.4042 160.954 74.8211 162.835 80.3967 164.095Z" fill="white"/>
<path d="M97.839 165H95.4958C95.2334 164.702 94.98 164.399 94.7313 164.095C89.394 157.612 85.7783 149.887 84.2185 141.636C82.3243 131.339 83.7979 120.706 88.4209 111.311C89.7107 108.677 91.2304 106.162 92.9625 103.795C93.5776 103.926 94.1839 104.075 94.781 104.256C90.2251 110.291 87.1608 117.317 85.8379 124.762C84.6579 131.738 85.0502 138.889 86.9864 145.694C88.9225 152.498 92.3536 158.785 97.0293 164.095C97.2915 164.398 97.563 164.702 97.839 165Z" fill="white"/>
<path d="M308.925 157.308C309.265 159.974 310.516 162.412 311.851 164.761C311.895 164.841 311.94 164.92 311.987 165H325.859C326.14 164.927 326.417 164.847 326.693 164.761C328.26 164.284 329.739 163.557 331.073 162.607C336.176 158.93 338.14 151.984 337.253 145.759C336.702 141.892 335.004 137.943 331.698 135.86C329.903 134.767 327.762 134.392 325.702 134.81C325.649 134.819 325.597 134.831 325.543 134.842C324.686 135.008 323.873 135.353 323.159 135.855C322.444 136.357 321.844 137.005 321.398 137.756C319.822 140.555 320.76 144.022 321.535 147.138C322.308 150.253 322.727 153.982 320.485 156.279C320.813 155.318 320.88 154.287 320.678 153.292C320.476 152.297 320.013 151.373 319.335 150.617C318.658 149.86 317.792 149.297 316.825 148.986C315.858 148.675 314.825 148.627 313.834 148.847C313.671 148.881 313.511 148.921 313.354 148.969C312.973 149.08 312.606 149.234 312.259 149.427C309.615 150.903 308.544 154.304 308.925 157.308Z" fill="#F2F2F2"/>
<path d="M317.15 164.761C316.766 164.851 316.38 164.93 315.992 165H318.09C318.364 164.926 318.638 164.847 318.909 164.761C319.504 164.575 320.091 164.361 320.668 164.12C323.01 163.17 325.09 161.671 326.732 159.749C327.521 158.809 328.166 157.756 328.644 156.626C329.163 155.348 329.493 154.001 329.623 152.628C329.861 149.79 329.671 146.932 329.06 144.15C328.485 141.282 327.556 138.497 326.295 135.858C326.143 135.542 325.987 135.227 325.825 134.915C325.813 134.889 325.797 134.866 325.775 134.848C325.754 134.83 325.729 134.817 325.702 134.81C325.647 134.799 325.589 134.811 325.543 134.842C325.487 134.874 325.445 134.927 325.427 134.988C325.409 135.05 325.415 135.116 325.444 135.174C326.744 137.709 327.729 140.393 328.378 143.166C329.047 145.887 329.34 148.686 329.251 151.486C329.203 154.09 328.39 156.623 326.913 158.768C325.477 160.7 323.588 162.25 321.412 163.281C320.051 163.932 318.622 164.429 317.15 164.761Z" fill="white"/>
<path d="M312.547 165H313.165C313.235 164.921 313.301 164.841 313.367 164.761C314.776 163.05 315.73 161.011 316.142 158.834C316.641 156.116 316.253 153.31 315.032 150.831C314.692 150.135 314.291 149.472 313.834 148.847C313.672 148.881 313.511 148.921 313.354 148.969C314.556 150.561 315.365 152.416 315.714 154.38C316.026 156.221 315.922 158.109 315.411 159.905C314.9 161.701 313.995 163.36 312.761 164.761C312.691 164.841 312.62 164.921 312.547 165Z" fill="white"/>
<path d="M183.886 96.1104H140.469L140.008 82.7637C139.988 82.1852 140.094 81.6091 140.318 81.0753C140.542 80.5415 140.879 80.0626 141.306 79.6715C141.733 79.2804 142.24 78.9865 142.791 78.8099C143.343 78.6334 143.926 78.5784 144.501 78.6487L169.766 81.7419H169.77C173.515 81.752 177.104 83.2462 179.75 85.897C182.396 88.5479 183.883 92.1393 183.886 95.8843V96.1104Z" fill="#F97363"/>
<path d="M164.534 48.7675H134.253C133.85 48.7673 133.451 48.8466 133.079 49.0006C132.707 49.1547 132.369 49.3805 132.084 49.6652C131.8 49.9499 131.574 50.2879 131.42 50.66C131.266 51.032 131.186 51.4307 131.187 51.8334V82.109C131.186 82.5117 131.266 82.9104 131.42 83.2824C131.574 83.6544 131.8 83.9925 132.084 84.2772C132.369 84.5619 132.707 84.7877 133.079 84.9418C133.451 85.0958 133.85 85.175 134.253 85.1749H164.534C164.937 85.175 165.336 85.0958 165.708 84.9418C166.08 84.7877 166.418 84.5619 166.703 84.2772C166.988 83.9925 167.214 83.6545 167.368 83.2824C167.522 82.9104 167.601 82.5117 167.601 82.109V51.8334C167.601 51.4307 167.522 51.032 167.368 50.66C167.214 50.2879 166.988 49.9499 166.703 49.6652C166.418 49.3805 166.08 49.1547 165.708 49.0006C165.336 48.8466 164.937 48.7673 164.534 48.7675Z" fill="#CCCCCC"/>
<path d="M157.714 71.4064L143.417 74.1901C142.569 74.3543 141.691 74.1753 140.974 73.6926C140.258 73.2099 139.763 72.4629 139.596 71.6153L138.497 65.9728C138.333 65.1249 138.512 64.2465 138.995 63.5303C139.478 62.8142 140.225 62.3187 141.073 62.1527L155.37 59.369C156.218 59.2049 157.097 59.3838 157.813 59.8665C158.529 60.3492 159.025 61.0963 159.191 61.9438L160.29 67.5864C160.454 68.4343 160.275 69.3126 159.792 70.0288C159.309 70.745 158.562 71.2404 157.714 71.4064Z" fill="#3F3D56"/>
<path d="M154.854 64.7404L143.943 66.8648C143.743 66.9036 143.537 66.8616 143.368 66.748C143.199 66.6344 143.083 66.4585 143.044 66.2589C143.005 66.0594 143.047 65.8526 143.161 65.684C143.274 65.5154 143.45 65.3989 143.65 65.3601L154.561 63.2357C154.76 63.1968 154.967 63.2388 155.136 63.3525C155.304 63.4661 155.421 63.642 155.46 63.8415C155.499 64.0411 155.457 64.2479 155.343 64.4164C155.229 64.585 155.054 64.7015 154.854 64.7404Z" fill="white"/>
<path d="M152.733 67.8863L147.089 68.9851C146.89 69.0239 146.683 68.9819 146.514 68.8683C146.346 68.7547 146.229 68.5788 146.19 68.3792C146.152 68.1797 146.194 67.9729 146.307 67.8043C146.421 67.6358 146.597 67.5192 146.796 67.4804L152.44 66.3816C152.539 66.3623 152.64 66.3627 152.739 66.3828C152.838 66.4028 152.932 66.4421 153.015 66.4983C153.098 66.5546 153.17 66.6267 153.226 66.7106C153.281 66.7946 153.32 66.8886 153.339 66.9874C153.358 67.0862 153.358 67.1878 153.338 67.2865C153.318 67.3851 153.279 67.4788 153.222 67.5623C153.166 67.6458 153.094 67.7173 153.01 67.7729C152.926 67.8285 152.832 67.867 152.733 67.8863Z" fill="white"/>
<path d="M167.601 51.8334V55.8573H131.187V51.8334C131.186 51.4307 131.266 51.032 131.42 50.66C131.574 50.2879 131.8 49.9499 132.084 49.6652C132.369 49.3805 132.707 49.1547 133.079 49.0006C133.451 48.8466 133.85 48.7673 134.253 48.7675H164.534C164.937 48.7673 165.336 48.8466 165.708 49.0006C166.08 49.1547 166.418 49.3805 166.703 49.6652C166.988 49.9499 167.214 50.2879 167.368 50.66C167.522 51.032 167.601 51.4307 167.601 51.8334Z" fill="#B3B3B3"/>
<path d="M240.317 57.1175C240.107 56.439 239.75 55.8149 239.273 55.2891C238.795 54.7632 238.208 54.3485 237.553 54.074C236.897 53.7996 236.19 53.6721 235.48 53.7006C234.77 53.7291 234.075 53.9128 233.444 54.2389L191.784 39.2948L189.949 49.7002L231.477 61.1179C232.095 62.1416 233.067 62.9031 234.209 63.258C235.352 63.6129 236.584 63.5366 237.674 63.0435C238.764 62.5504 239.635 61.6748 240.122 60.5826C240.609 59.4904 240.678 58.2575 240.317 57.1175Z" fill="#FFB8B8"/>
<path opacity="0.2" d="M240.317 57.1175C240.107 56.439 239.75 55.8149 239.273 55.2891C238.795 54.7632 238.208 54.3485 237.553 54.074C236.897 53.7996 236.19 53.6721 235.48 53.7006C234.77 53.7291 234.075 53.9128 233.444 54.2389L191.784 39.2948L189.949 49.7002L231.477 61.1179C232.095 62.1416 233.067 62.9031 234.209 63.258C235.352 63.6129 236.584 63.5366 237.674 63.0435C238.764 62.5504 239.635 61.6748 240.122 60.5826C240.609 59.4904 240.678 58.2575 240.317 57.1175Z" fill="black"/>
<path d="M199.179 41.1908L195.245 51.4664C195.133 51.7588 194.959 52.0236 194.736 52.2428C194.512 52.462 194.244 52.6305 193.949 52.7368C193.655 52.843 193.341 52.8846 193.029 52.8586C192.717 52.8326 192.414 52.7397 192.141 52.5861L182.58 47.2059C181.087 46.6247 179.886 45.4755 179.239 44.0101C178.593 42.5447 178.554 40.8828 179.131 39.3887C179.708 37.8946 180.854 36.6902 182.318 36.0396C183.782 35.389 185.444 35.3452 186.94 35.9179L197.616 38.2854C197.922 38.3533 198.209 38.4862 198.459 38.6752C198.709 38.8641 198.915 39.1047 199.063 39.3804C199.211 39.6561 199.298 39.9606 199.318 40.273C199.338 40.5854 199.291 40.8984 199.179 41.1908Z" fill="#F97363"/>
<path d="M243.596 66.632L228.668 73.416L230.628 80.7929C234.413 95.0382 235.417 109.879 233.587 124.504L244.501 126.783L253.548 103.718L250.381 77.4864L243.596 66.632Z" fill="#F97363"/>
<path d="M272.886 100.778C263.078 100.778 255.085 107.907 254.697 116.834H291.075C290.687 107.907 282.694 100.778 272.886 100.778Z" fill="#3F3D56"/>
<path d="M265.251 102.317C264.741 62.0203 241.787 65.7275 241.787 65.7275C241.787 65.7275 242.216 78.2703 242.422 78.6604C257.049 106.33 232.909 138.768 202.181 132.801C201.602 132.688 201.045 132.574 200.511 132.458C196.618 131.646 193.18 129.381 190.898 126.124C188.615 122.867 187.659 118.864 188.224 114.927C191.251 90.6243 176.196 91.0544 176.196 91.0544H154.181L142.749 80.7672C142.345 80.4041 141.859 80.1453 141.332 80.0136C140.806 79.8818 140.255 79.8811 139.728 80.0114C139.201 80.1418 138.714 80.3992 138.309 80.7613C137.905 81.1233 137.595 81.5789 137.407 82.0882L135.936 86.0795C135.936 86.0795 114.223 88.3408 116.033 109.597H122.746C122.73 110.201 122.754 110.806 122.818 111.406L172.917 110.999C175.853 110.975 178.445 113.354 178.457 116.291C178.46 117.005 178.319 117.713 178.042 118.372C177.765 119.031 177.358 119.628 176.845 120.126C176.332 120.624 175.724 121.013 175.057 121.271C174.391 121.529 173.678 121.649 172.964 121.625L164.887 121.356C162.399 132.437 168.506 139.899 175.235 144.591C181.57 148.945 189.087 151.254 196.774 151.206H218.717C247.215 151.206 252.191 127.236 252.191 127.236C267.119 120.904 265.251 102.317 265.251 102.317Z" fill="#3F3D56"/>
<path d="M271.529 164.322C285.582 164.322 296.974 152.932 296.974 138.882C296.974 124.832 285.582 113.442 271.529 113.442C257.476 113.442 246.084 124.832 246.084 138.882C246.084 152.932 257.476 164.322 271.529 164.322Z" fill="#3F3D56"/>
<path d="M271.529 145.117C274.973 145.117 277.765 142.325 277.765 138.882C277.765 135.438 274.973 132.646 271.529 132.646C268.085 132.646 265.292 135.438 265.292 138.882C265.292 142.325 268.085 145.117 271.529 145.117Z" fill="white"/>
<path d="M143.061 164.322C159.237 164.322 172.351 151.211 172.351 135.037C172.351 118.864 159.237 105.753 143.061 105.753C126.884 105.753 113.771 118.864 113.771 135.037C113.771 151.211 126.884 164.322 143.061 164.322Z" fill="#3F3D56"/>
<path d="M143.061 142.215C147.025 142.215 150.24 139.001 150.24 135.037C150.24 131.073 147.025 127.86 143.061 127.86C139.096 127.86 135.882 131.073 135.882 135.037C135.882 139.001 139.096 142.215 143.061 142.215Z" fill="white"/>
<path d="M228.711 75.4206L223.34 60.8352C223.06 60.075 222.933 59.2672 222.965 58.4578C222.997 57.6484 223.189 56.8533 223.528 56.1179C223.868 55.3825 224.349 54.7212 224.945 54.1718C225.54 53.6223 226.238 53.1955 226.998 52.9157L242.396 47.2482C243.734 46.7557 245.155 46.5314 246.58 46.5882C248.004 46.645 249.404 46.9818 250.698 47.5793C251.992 48.1768 253.156 49.0233 254.123 50.0705C255.09 51.1177 255.841 52.3451 256.334 53.6826C256.778 54.8831 257.005 56.153 257.004 57.433C256.998 59.0583 256.63 60.6618 255.927 62.1271C255.224 63.5924 254.203 64.8826 252.938 65.904C252.025 66.6366 250.998 67.2154 249.898 67.6176L228.711 75.4206Z" fill="#3F3D56"/>
<path d="M256.778 57.4328C256.776 59.025 256.418 60.5966 255.729 62.032C255.04 63.4675 254.038 64.7302 252.797 65.7274C250.892 65.2251 249.12 64.3141 247.603 63.0578C246.086 61.8014 244.861 60.2299 244.013 58.4523C243.165 56.6748 242.714 54.7339 242.692 52.7646C242.67 50.7953 243.078 48.8448 243.886 47.0488C245.437 46.7115 247.045 46.7258 248.59 47.0909C250.135 47.4559 251.579 48.1623 252.816 49.1582C254.052 50.1542 255.05 51.4143 255.735 52.8462C256.421 54.2781 256.777 55.8453 256.778 57.4328Z" fill="#F97363"/>
<path d="M119.878 112.537C123.375 112.537 126.211 109.095 126.211 104.849C126.211 100.602 123.375 97.16 119.878 97.16C116.38 97.16 113.545 100.602 113.545 104.849C113.545 109.095 116.38 112.537 119.878 112.537Z" fill="#F97363"/>
<path d="M203.591 132.064H209.137L211.775 117.683L203.59 117.684L203.591 132.064Z" fill="#FFB8B8"/>
<path d="M202.176 130.254L213.098 130.253H213.098C214.012 130.253 214.917 130.433 215.762 130.783C216.606 131.133 217.373 131.645 218.02 132.292C218.666 132.938 219.179 133.705 219.529 134.549C219.878 135.393 220.058 136.298 220.058 137.212V137.438L202.177 137.439L202.176 130.254Z" fill="#2F2E41"/>
<path d="M210.027 126.162C209.963 126.162 209.898 126.159 209.833 126.152L202.158 125.594C201.848 125.565 201.548 125.465 201.282 125.302C201.016 125.14 200.792 124.918 200.625 124.654C200.459 124.391 200.355 124.093 200.322 123.783C200.289 123.473 200.328 123.16 200.435 122.867L210.706 99.7947C210.78 99.589 210.81 99.3704 210.794 99.1525C210.779 98.9347 210.719 98.7224 210.617 98.5289C210.516 98.3332 210.375 98.1611 210.202 98.0239C210.03 97.8867 209.831 97.7876 209.617 97.733C204.787 96.4708 192.395 93.1097 181.668 89.1771C177.072 87.4921 174.177 85.0572 173.065 81.9399C171.598 77.8302 173.768 74.0822 173.861 73.925L173.934 73.8018L184.028 74.7191L194.971 75.6497L218.952 88.5066C220.961 89.5931 222.487 91.3964 223.227 93.5575C223.966 95.7185 223.864 98.0787 222.941 100.168L211.885 124.956C211.725 125.315 211.464 125.62 211.135 125.834C210.805 126.048 210.42 126.162 210.027 126.162Z" fill="#2F2E41"/>
<path d="M185.783 29.0722C191.919 29.0722 196.893 24.0989 196.893 17.9641C196.893 11.8292 191.919 6.85596 185.783 6.85596C179.647 6.85596 174.673 11.8292 174.673 17.9641C174.673 24.0989 179.647 29.0722 185.783 29.0722Z" fill="#FFB8B8"/>
<path d="M200.424 133.421H205.97L208.609 119.04L200.423 119.041L200.424 133.421Z" fill="#FFB8B8"/>
<path d="M199.01 131.611L209.931 131.61H209.932C210.846 131.61 211.751 131.79 212.595 132.14C213.44 132.49 214.207 133.002 214.853 133.648C215.5 134.294 216.012 135.062 216.362 135.906C216.712 136.75 216.892 137.655 216.892 138.569V138.795L199.01 138.796L199.01 131.611Z" fill="#2F2E41"/>
<path d="M206.861 127.519C206.797 127.519 206.732 127.516 206.667 127.509L198.992 126.951C198.682 126.922 198.382 126.822 198.116 126.659C197.85 126.496 197.626 126.275 197.459 126.011C197.293 125.748 197.189 125.45 197.156 125.14C197.123 124.83 197.162 124.516 197.269 124.224L207.54 101.152C207.614 100.946 207.643 100.727 207.628 100.509C207.613 100.292 207.553 100.079 207.451 99.8857C207.35 99.69 207.209 99.5179 207.036 99.3807C206.864 99.2436 206.665 99.1444 206.451 99.0898C201.621 97.8276 189.229 94.4665 178.502 90.5339C173.906 88.8489 171.011 86.414 169.899 83.2967C168.432 79.187 170.602 75.439 170.695 75.2818L170.768 75.1586L180.862 76.0759L191.805 77.0065L215.786 89.8634C217.795 90.9499 219.321 92.7532 220.061 94.9143C220.8 97.0753 220.698 99.4355 219.775 101.525L208.719 126.312C208.559 126.671 208.298 126.976 207.969 127.19C207.639 127.404 207.254 127.518 206.861 127.519Z" fill="#2F2E41"/>
<path d="M189.21 35.3711L177.449 31.3007C177.449 31.3007 170.065 36.9721 173.612 51.0414C175.464 58.3018 174.925 65.9656 172.074 72.8951C171.731 73.7524 171.335 74.5879 170.89 75.3967C170.89 75.3967 184.008 91.226 196.221 79.4671L191.472 56.6276C191.472 56.6276 198.935 41.4767 189.21 35.3711Z" fill="#F97363"/>
<path d="M187.163 29.45C185.581 27.0836 184.333 23.8023 186.074 21.5508C187.793 19.3283 191.182 19.6557 193.814 18.6723C197.48 17.3025 199.606 12.9966 198.943 9.14046C198.28 5.28428 195.184 2.08762 191.496 0.779652C187.807 -0.528316 183.648 -0.102934 180.036 1.40327C175.59 3.25743 171.776 6.84417 170.176 11.3876C168.577 15.9311 169.432 21.3864 172.75 24.8786C176.307 28.6226 181.89 29.6204 187.055 29.5598" fill="#2F2E41"/>
<path d="M176.828 9.26417C174.835 10.8859 171.795 10.1656 169.656 8.74231C167.518 7.31901 165.782 5.2923 163.468 4.17637C159.388 2.20904 154.455 3.51686 150.485 5.69604C146.514 7.87521 142.994 10.8858 138.8 12.5959C134.605 14.306 129.253 14.3905 126.077 11.1615C125.296 13.4254 125.232 15.8754 125.894 18.177C126.557 20.4786 127.914 22.5198 129.779 24.0221C131.645 25.5244 133.929 26.4146 136.319 26.5712C138.709 26.7279 141.09 26.1434 143.136 24.8975C147.731 22.0987 150.27 16.2304 155.424 14.6856C158.277 13.8308 161.339 14.5193 164.222 15.265C167.105 16.0107 170.111 16.8164 173.02 16.1816C175.929 15.5468 178.65 12.9329 178.28 9.97888L176.828 9.26417Z" fill="#2F2E41"/>
<path d="M239.764 56.665C239.472 56.0176 239.041 55.4423 238.502 54.9793C237.963 54.5164 237.329 54.1773 236.645 53.9858C235.961 53.7942 235.243 53.755 234.542 53.8709C233.842 53.9867 233.175 54.2548 232.588 54.6562L189.403 44.9655L188.866 55.5177L231.485 61.7253C232.225 62.665 233.284 63.3007 234.461 63.512C235.638 63.7233 236.852 63.4955 237.872 62.8717C238.893 62.248 239.649 61.2717 239.998 60.1277C240.346 58.9838 240.263 57.7517 239.764 56.665Z" fill="#FFB8B8"/>
<path d="M196.975 45.9348L194.339 56.6172C194.264 56.9211 194.124 57.2053 193.929 57.4504C193.735 57.6956 193.489 57.8958 193.21 58.0376C192.931 58.1794 192.624 58.2594 192.312 58.2721C191.999 58.2848 191.687 58.2299 191.397 58.1112L181.245 53.9515C179.691 53.5598 178.356 52.5678 177.532 51.193C176.709 49.8183 176.465 48.1731 176.853 46.6185C177.242 45.0639 178.231 43.7268 179.604 42.9007C180.978 42.0746 182.623 41.8269 184.178 42.212L195.065 43.2443C195.377 43.2739 195.679 43.3704 195.95 43.5271C196.221 43.6839 196.455 43.8971 196.636 44.1525C196.817 44.4078 196.941 44.6992 197 45.0067C197.058 45.3143 197.05 45.6308 196.975 45.9348V45.9348Z" fill="#F97363"/>
<path d="M234.775 65.049C236.524 65.049 237.942 63.6316 237.942 61.8832C237.942 60.1347 236.524 58.7173 234.775 58.7173C233.027 58.7173 231.609 60.1347 231.609 61.8832C231.609 63.6316 233.027 65.049 234.775 65.049Z" fill="#F97363"/>
<path d="M375 164.548C375 164.668 374.952 164.782 374.867 164.867C374.782 164.952 374.668 165 374.548 165H0.452352C0.332381 165 0.217323 164.952 0.132491 164.868C0.0476581 164.783 0 164.668 0 164.548C0 164.428 0.0476581 164.313 0.132491 164.228C0.217323 164.143 0.332381 164.095 0.452352 164.095H374.548C374.668 164.096 374.782 164.144 374.867 164.228C374.952 164.313 375 164.428 375 164.548Z" fill="#3F3D56"/>
</g>
<defs>
<clipPath id="clip0_395_6917">
<rect width="375" height="165" fill="white"/>
</clipPath>
</defs>
</svg>
