<svg width="19" height="19" viewBox="0 0 19 19" fill="none" xmlns="http://www.w3.org/2000/svg">
<path fill-rule="evenodd" clip-rule="evenodd" d="M9.19239 1.58334C4.98998 1.58334 1.58325 4.91483 1.58325 9.02443C1.58325 13.134 4.98998 16.4655 9.19239 16.4655C10.9897 16.4655 12.6416 15.8561 13.9435 14.837L16.4168 17.2494L16.4826 17.3048C16.7122 17.4709 17.0377 17.452 17.2455 17.2483C17.474 17.0242 17.4736 16.6614 17.2444 16.4379L14.8003 14.0539C16.043 12.7295 16.8015 10.9636 16.8015 9.02443C16.8015 4.91483 13.3948 1.58334 9.19239 1.58334ZM9.19239 2.72947C12.7475 2.72947 15.6295 5.54782 15.6295 9.02442C15.6295 12.501 12.7475 15.3194 9.19239 15.3194C5.63726 15.3194 2.75526 12.501 2.75526 9.02442C2.75526 5.54782 5.63726 2.72947 9.19239 2.72947Z" fill="#65656B"/>
</svg>
