<svg width="22" height="22" viewBox="0 0 22 22" fill="none" xmlns="http://www.w3.org/2000/svg">
<path d="M9.80117 0.0687504C9.45742 0.158983 9.16094 0.335155 8.89023 0.601562C8.48203 1.00117 8.29297 1.48672 8.29297 2.10547V2.4793L7.91914 2.62109C7.70859 2.69844 7.39922 2.82734 7.22305 2.90898L6.90078 3.05508L6.66445 2.81875C6.06289 2.23438 5.35391 2.02383 4.61914 2.21289C4.18086 2.32891 3.93164 2.50937 3.21836 3.21836C2.50938 3.93164 2.32891 4.18086 2.21289 4.61914C2.02383 5.35391 2.23438 6.06289 2.81875 6.66016L3.05078 6.90078L2.86172 7.32617C2.75859 7.5625 2.62969 7.87617 2.57812 8.02227L2.4793 8.29297H2.10547C1.48672 8.29297 1.00547 8.48203 0.597266 8.89023C0.0988281 9.39297 0 9.73672 0 11C0 12.2676 0.0945313 12.5941 0.601562 13.1098C1.00117 13.518 1.48672 13.707 2.10547 13.707H2.4793L2.62109 14.0809C2.69844 14.2914 2.82734 14.6008 2.90898 14.777L3.05508 15.0992L2.81875 15.3355C2.68984 15.4688 2.52656 15.6707 2.45352 15.791C2.0668 16.4098 2.04961 17.2262 2.41484 17.8707C2.59531 18.193 3.80703 19.4047 4.1293 19.5852C4.73945 19.9289 5.5 19.9375 6.11875 19.6023C6.23906 19.5379 6.4625 19.366 6.62148 19.2199L6.90508 18.9492L7.33047 19.134C7.5668 19.2371 7.87617 19.366 8.02656 19.4219L8.29297 19.5164V19.8902C8.29297 20.5133 8.48203 20.9988 8.89023 21.3984C9.40586 21.9055 9.73242 22 11 22C12.2633 22 12.607 21.9012 13.1098 21.4027C13.518 20.9945 13.707 20.5133 13.707 19.8902V19.5164L13.9777 19.4219C14.1238 19.366 14.4332 19.2371 14.6695 19.134L15.0949 18.9492L15.3785 19.2199C15.5375 19.366 15.7609 19.5379 15.8813 19.6023C16.4871 19.9289 17.2391 19.9289 17.8492 19.6023C18.1371 19.4477 19.3961 18.193 19.5809 17.875C19.9289 17.2777 19.9375 16.5043 19.6023 15.8812C19.5379 15.7609 19.366 15.5375 19.2199 15.3785L18.9492 15.0949L19.134 14.6695C19.2371 14.4332 19.366 14.1238 19.4219 13.9734L19.5164 13.707H19.8902C20.5262 13.707 20.9902 13.5223 21.3984 13.1098C21.9055 12.5941 22 12.2676 22 11C22 9.73242 21.9055 9.40586 21.3984 8.89023C20.9902 8.47773 20.5262 8.29297 19.8902 8.29297H19.5164L19.4219 8.02227C19.366 7.87617 19.2371 7.5668 19.134 7.33047L18.9492 6.90508L19.2199 6.62148C19.366 6.4625 19.5379 6.23906 19.6023 6.11875C19.9375 5.5 19.9289 4.73945 19.5852 4.1293C19.4047 3.81133 18.15 2.55664 17.8492 2.39766C17.2047 2.04961 16.3969 2.07109 15.791 2.45352C15.675 2.52656 15.4688 2.68984 15.3355 2.81875L15.0992 3.05508L14.777 2.90898C14.6008 2.82734 14.2914 2.69844 14.0852 2.62109L13.707 2.4793V2.10547C13.707 1.48672 13.518 1.00547 13.1098 0.597265C12.8391 0.326563 12.5469 0.16328 12.173 0.0644531C11.8336 -0.0257816 10.1363 -0.0214844 9.80117 0.0687504ZM12.0184 1.3793C12.143 1.43945 12.2418 1.52969 12.3105 1.65C12.4094 1.82187 12.418 1.87344 12.418 2.44062C12.418 3.11953 12.4695 3.33867 12.6715 3.47187C12.7316 3.51484 13.0367 3.63086 13.3418 3.73398C13.6512 3.83281 14.1711 4.05195 14.502 4.21523C14.8328 4.37852 15.1465 4.51172 15.2023 4.51172C15.4086 4.51172 15.6277 4.36563 16.0445 3.95312C16.4914 3.51484 16.616 3.4375 16.8652 3.4375C17.123 3.4375 17.2434 3.51914 17.8492 4.11641C18.4551 4.71797 18.5625 4.86836 18.5625 5.13047C18.5625 5.38398 18.4852 5.50859 18.0469 5.95547C17.6301 6.37656 17.4883 6.59141 17.4883 6.80195C17.4883 6.85781 17.6215 7.17578 17.7891 7.50664C17.9523 7.8418 18.1672 8.36172 18.266 8.6625C18.3691 8.96758 18.4852 9.26836 18.5281 9.32852C18.6613 9.53047 18.8805 9.58203 19.5594 9.58203C20.1266 9.58203 20.1781 9.59062 20.35 9.68945C20.6723 9.87852 20.7109 10.0246 20.7109 11C20.7109 11.9754 20.6723 12.1215 20.35 12.3105C20.1781 12.4094 20.1266 12.418 19.5594 12.418C18.8805 12.418 18.6613 12.4695 18.5281 12.6715C18.4852 12.7316 18.3691 13.0324 18.266 13.3375C18.1672 13.6383 17.9523 14.1582 17.7891 14.4934C17.6215 14.8242 17.4883 15.1422 17.4883 15.198C17.4883 15.4086 17.6301 15.6234 18.0469 16.0445C18.4852 16.4914 18.5625 16.616 18.5625 16.8652C18.5625 17.123 18.4809 17.2391 17.8879 17.8406C17.2777 18.4551 17.1273 18.5625 16.8738 18.5625C16.616 18.5625 16.4957 18.4852 16.0445 18.0469C15.6234 17.6301 15.4086 17.4883 15.1938 17.4883C15.1379 17.4883 14.8199 17.6215 14.4934 17.7848C14.1668 17.948 13.6512 18.1672 13.3418 18.266C13.0367 18.3691 12.7316 18.4852 12.6715 18.5281C12.4695 18.6613 12.418 18.8805 12.418 19.5594C12.418 20.1266 12.4094 20.1781 12.3105 20.35C12.1215 20.6723 11.9754 20.7109 11 20.7109C10.0246 20.7109 9.87852 20.6723 9.68945 20.35C9.59062 20.1781 9.58203 20.1266 9.58203 19.5594C9.58203 18.8805 9.53047 18.6613 9.32852 18.5281C9.26836 18.4852 8.96758 18.3648 8.6582 18.266C8.35313 18.1629 7.82891 17.948 7.50234 17.7848C7.17148 17.6215 6.85781 17.4883 6.80195 17.4883C6.59141 17.4883 6.37656 17.6301 5.95547 18.0469C5.50859 18.4852 5.38398 18.5625 5.13047 18.5625C4.86836 18.5625 4.71797 18.4551 4.11641 17.8492C3.51914 17.2434 3.4375 17.123 3.4375 16.8652C3.4375 16.616 3.51484 16.4914 3.95312 16.0445C4.36992 15.6234 4.51172 15.4086 4.51172 15.198C4.51172 15.1422 4.37852 14.8242 4.21094 14.4934C4.04766 14.1582 3.83281 13.6383 3.73398 13.3375C3.63086 13.0324 3.51484 12.7316 3.47188 12.6715C3.33867 12.4695 3.11953 12.418 2.44062 12.418C1.87344 12.418 1.82188 12.4094 1.65 12.3105C1.32773 12.1215 1.28906 11.9754 1.28906 11C1.28906 10.0246 1.32773 9.87852 1.65 9.68945C1.82188 9.59062 1.87344 9.58203 2.44062 9.58203C3.11953 9.58203 3.33867 9.53047 3.47188 9.32852C3.51484 9.26836 3.63516 8.96328 3.73398 8.6582C3.83281 8.34883 4.05195 7.82891 4.21523 7.50234C4.37852 7.17148 4.51172 6.85781 4.51172 6.80195C4.51172 6.59141 4.36992 6.37656 3.95312 5.95547C3.51484 5.50859 3.4375 5.38398 3.4375 5.13047C3.4375 4.86836 3.54492 4.71797 4.15078 4.11641C4.75664 3.51914 4.87695 3.4375 5.13477 3.4375C5.38398 3.4375 5.50859 3.51484 5.95547 3.95312C6.37656 4.36992 6.59141 4.51172 6.80195 4.51172C6.85781 4.51172 7.17578 4.37852 7.50664 4.21094C7.8418 4.04766 8.36172 3.83281 8.6625 3.73398C8.96758 3.63086 9.26836 3.51484 9.32852 3.47187C9.53047 3.33867 9.58203 3.11953 9.58203 2.44062C9.58203 1.87344 9.59062 1.82187 9.68945 1.6543C9.7582 1.53398 9.85703 1.43945 9.97734 1.3793C10.1449 1.29766 10.2352 1.28906 10.9957 1.28906C11.7563 1.28906 11.8508 1.29766 12.0184 1.3793Z" fill="black"/>
<path d="M10.0333 6.3164C8.2458 6.70312 6.84502 8.02656 6.36807 9.78828C6.26494 10.1664 6.25635 10.2781 6.25635 11C6.25635 11.7219 6.26494 11.8336 6.36807 12.2117C6.81924 13.8746 8.12549 15.1809 9.78837 15.632C10.1665 15.7352 10.2782 15.7437 11.0001 15.7437C11.722 15.7437 11.8337 15.7352 12.2118 15.632C13.8747 15.1809 15.1809 13.8746 15.6321 12.2117C15.7352 11.8336 15.7438 11.7219 15.7438 11C15.7438 10.2781 15.7352 10.1664 15.6321 9.78828C15.1809 8.12538 13.8661 6.80624 12.2247 6.37656C11.6274 6.21757 10.6091 6.19179 10.0333 6.3164ZM11.8036 7.60546C13.3934 7.98788 14.4806 9.36288 14.4806 11C14.4806 12.9508 12.9509 14.4805 11.0001 14.4805C10.0376 14.4805 9.21689 14.141 8.53369 13.4664C7.36924 12.3105 7.17588 10.4672 8.07822 9.09648C8.57236 8.34023 9.38447 7.77304 10.2438 7.58398C10.652 7.49804 11.3868 7.50663 11.8036 7.60546Z" fill="black"/>
</svg>
