<svg width="20" height="19" viewBox="0 0 20 19" fill="none" xmlns="http://www.w3.org/2000/svg">
<path fill-rule="evenodd" clip-rule="evenodd" d="M9.0165 0.523539C9.71456 -0.174513 10.8463 -0.174513 11.5444 0.523538L12.455 1.43417C12.902 1.88112 13.5082 2.13222 14.1402 2.13222H15.6066C16.5938 2.13222 17.394 2.9325 17.394 3.91969V5.38602C17.394 6.01811 17.6451 6.62431 18.0921 7.07126L19.0708 8.04995C19.7688 8.748 19.7688 9.87977 19.0708 10.5778L18.0921 11.5565C17.6451 12.0035 17.394 12.6097 17.394 13.2418V14.5637C17.394 15.5508 16.5938 16.3511 15.6066 16.3511H14.2847C13.6526 16.3511 13.0464 16.6022 12.5994 17.0492L11.5444 18.1042C10.8463 18.8023 9.71455 18.8023 9.01651 18.1042L7.96144 17.0492C7.51449 16.6022 6.90829 16.3511 6.2762 16.3511H4.96262C3.97542 16.3511 3.17514 15.5508 3.17514 14.5637V13.2501C3.17514 12.618 2.92405 12.0118 2.47709 11.5648L1.49009 10.5778C0.79204 9.87977 0.79204 8.748 1.49009 8.04996L2.47709 7.06295C2.92405 6.616 3.17514 6.0098 3.17514 5.37771V3.91969C3.17514 2.9325 3.97542 2.13222 4.96261 2.13222H6.42063C7.05272 2.13222 7.65892 1.88112 8.10588 1.43417L9.0165 0.523539ZM12.262 6.79968C11.9828 6.52049 11.5301 6.52049 11.2509 6.79968L7.44632 10.6043C7.16712 10.8835 7.16712 11.3362 7.44632 11.6154C7.72551 11.8946 8.17818 11.8946 8.45737 11.6154L12.262 7.81074C12.5412 7.53154 12.5412 7.07888 12.262 6.79968ZM8.98428 7.21279C8.98428 7.83325 8.4813 8.33624 7.86083 8.33624C7.24037 8.33624 6.73738 7.83325 6.73738 7.21279C6.73738 6.59232 7.24037 6.08934 7.86083 6.08934C8.4813 6.08934 8.98428 6.59232 8.98428 7.21279ZM11.9453 12.4223C12.5658 12.4223 13.0688 11.9193 13.0688 11.2988C13.0688 10.6783 12.5658 10.1754 11.9453 10.1754C11.3249 10.1754 10.8219 10.6783 10.8219 11.2988C10.8219 11.9193 11.3249 12.4223 11.9453 12.4223Z" fill="#F88922"/>
</svg>
