<svg width="36" height="36" viewBox="0 0 36 36" fill="none" xmlns="http://www.w3.org/2000/svg">
<circle cx="18" cy="18" r="18" fill="#F0F0F0"/>
<g clip-path="url(#clip0_388_5725)">
<path fill-rule="evenodd" clip-rule="evenodd" d="M27.5104 13.0117L29 16.2582L25.8668 19.5067L26.2392 18.0335L27.9526 16.2582L27.138 14.4829L27.5104 13.0117Z" fill="#0E8635"/>
<path fill-rule="evenodd" clip-rule="evenodd" d="M26.4631 13.0117L27.9527 16.2582L24.8177 19.5067L26.4631 13.0117Z" fill="#E97208"/>
<path d="M7.22919 20.7387H7.40285L7.24172 21.4743C7.21845 21.5841 7.22203 21.6665 7.25604 21.7214C7.28827 21.7764 7.35093 21.8038 7.44045 21.8038C7.52997 21.8038 7.60158 21.7764 7.65888 21.7214C7.71617 21.6665 7.75556 21.5841 7.78062 21.4743L7.94175 20.7387H8.11721L7.95071 21.4939C7.9149 21.6587 7.85044 21.7803 7.75914 21.8627C7.66783 21.9451 7.54787 21.9843 7.39927 21.9843C7.25067 21.9843 7.14862 21.9431 7.09312 21.8627C7.03762 21.7823 7.02867 21.6587 7.06447 21.4939L7.22919 20.7387ZM23.8366 19.4793H22.6586L24.2967 13H25.4748L23.8366 19.4793ZM14.0433 19.0732C13.9789 19.3282 13.764 19.5087 13.5223 19.5087H7.44761C7.28111 19.5087 7.15757 19.4459 7.07701 19.3243C6.99644 19.2007 6.97854 19.0477 7.02688 18.8653L8.50751 13.0177H9.68557L8.36428 18.2415H13.0783L14.4014 13.0177H15.5794L14.0433 19.0732ZM23.2261 13.204C23.1455 13.0804 23.0184 13.0196 22.8483 13.0196H16.3726L16.0539 14.2908H21.9442L21.6004 15.6463H16.8864V15.6423H15.7084L14.7308 19.5107H15.9089L16.5641 16.9154H21.86C22.0266 16.9154 22.1823 16.8546 22.3273 16.731C22.4724 16.6075 22.569 16.4544 22.6138 16.272L23.2691 13.6768C23.3228 13.4826 23.3067 13.3276 23.2261 13.204ZM28.0905 21.951L28.3555 20.7387H28.9571L28.9212 20.9054H28.4951L28.4289 21.2095H28.855L28.8174 21.3821H28.3913L28.3054 21.7744H28.7315L28.6939 21.951H28.0905ZM28.0726 21.0329C28.0332 20.9858 27.9885 20.9505 27.9383 20.927C27.8882 20.9034 27.8327 20.8917 27.7718 20.8917C27.6537 20.8917 27.548 20.9348 27.4567 21.0192C27.3636 21.1035 27.3028 21.2153 27.2741 21.3507C27.2455 21.4821 27.258 21.59 27.3117 21.6744C27.3654 21.7587 27.446 21.8019 27.557 21.8019C27.6214 21.8019 27.6841 21.7881 27.7468 21.7626C27.8094 21.7371 27.8739 21.6979 27.9383 21.6469L27.89 21.8705C27.8345 21.9078 27.7772 21.9372 27.7181 21.9549C27.659 21.9725 27.5964 21.9823 27.5319 21.9823C27.4496 21.9823 27.3762 21.9667 27.3135 21.9372C27.2508 21.9078 27.1989 21.8627 27.1577 21.8038C27.1183 21.7469 27.0915 21.6783 27.0808 21.5998C27.07 21.5214 27.0736 21.437 27.0933 21.3487C27.113 21.2605 27.1452 21.1761 27.19 21.0976C27.2347 21.0192 27.292 20.9505 27.3583 20.8917C27.4245 20.8328 27.4961 20.7877 27.5713 20.7563C27.6465 20.7249 27.7253 20.7112 27.8058 20.7112C27.8685 20.7112 27.9276 20.721 27.9795 20.7426C28.0314 20.7642 28.0816 20.7956 28.1263 20.8367L28.0726 21.0329ZM26.746 21.951L26.6922 21.6391H26.2643L26.071 21.951H25.8866L26.6851 20.6896L26.9322 21.951H26.746ZM26.3646 21.4743H26.6654L26.6153 21.1977C26.6135 21.18 26.6099 21.1604 26.6081 21.1369C26.6063 21.1133 26.6045 21.0878 26.6045 21.0604C26.592 21.0859 26.5812 21.1114 26.5687 21.1349C26.558 21.1585 26.5454 21.1781 26.5347 21.1977L26.3646 21.4743ZM25.2958 21.951L25.5607 20.7387H26.1623L26.1265 20.9054H25.7004L25.6341 21.2075H26.0602L26.0226 21.3801H25.5965L25.4712 21.951H25.2958ZM24.7318 21.4095L24.6136 21.9529H24.4489L24.7139 20.7406H24.9592C25.0308 20.7406 25.0845 20.7465 25.1221 20.7563C25.1597 20.7661 25.1901 20.7838 25.2116 20.8093C25.2385 20.8387 25.2564 20.876 25.2635 20.9231C25.2707 20.9701 25.2689 21.0211 25.2582 21.0761C25.2367 21.1741 25.1991 21.2487 25.1454 21.3036C25.0917 21.3585 25.0218 21.3919 24.9395 21.4017L25.1901 21.9529H24.9914L24.7515 21.4095H24.7318ZM24.7766 21.2546H24.8088C24.9019 21.2546 24.9663 21.2428 25.0021 21.2173C25.0379 21.1938 25.063 21.1506 25.0755 21.0878C25.0899 21.0211 25.0845 20.9741 25.0576 20.9466C25.0308 20.9191 24.9735 20.9054 24.8858 20.9054H24.8535L24.7766 21.2546ZM23.6468 21.951L23.9118 20.7387H24.5134L24.4776 20.9054H24.0515L23.9852 21.2095H24.4113L24.3737 21.3821H23.9476L23.8617 21.7744H24.2878L24.2484 21.951H23.6468ZM23.4553 20.9054L23.2261 21.951H23.0506L23.2798 20.9054H22.9933L23.0292 20.7387H23.7757L23.7399 20.9054H23.4553ZM21.6667 21.951L21.9424 20.6896L22.4652 21.4311C22.4795 21.4527 22.4938 21.4743 22.5064 21.4978C22.5207 21.5214 22.535 21.5488 22.5493 21.5782L22.7337 20.7367H22.8967L22.621 21.9961L22.0856 21.2408C22.0713 21.2212 22.0588 21.1997 22.0462 21.1761C22.0337 21.1526 22.023 21.129 22.0122 21.1055L21.8278 21.949H21.6667V21.951ZM21.2388 21.951L21.5038 20.7387H21.6792L21.4142 21.951H21.2388ZM19.9426 21.7077L20.0983 21.6351C20.1001 21.6901 20.1144 21.7313 20.1449 21.7587C20.1735 21.7862 20.2165 21.8019 20.272 21.8019C20.3239 21.8019 20.3687 21.7862 20.4063 21.7528C20.4439 21.7195 20.4689 21.6763 20.4815 21.6214C20.4976 21.5508 20.4582 21.486 20.3651 21.4311C20.3526 21.4233 20.3418 21.4174 20.3347 21.4135C20.2308 21.3487 20.1628 21.2899 20.1359 21.2369C20.1073 21.184 20.1019 21.1192 20.1198 21.0427C20.1413 20.9446 20.1878 20.8642 20.2613 20.8034C20.3347 20.7426 20.4188 20.7112 20.5155 20.7112C20.5943 20.7112 20.6569 20.7289 20.7035 20.7622C20.75 20.7975 20.7751 20.8466 20.7822 20.9113L20.6283 20.9917C20.614 20.9544 20.5978 20.925 20.5746 20.9074C20.5531 20.8897 20.5244 20.8819 20.4922 20.8819C20.4457 20.8819 20.4045 20.8956 20.3705 20.9231C20.3364 20.9505 20.315 20.9878 20.3042 21.0349C20.2881 21.1075 20.3347 21.1761 20.4421 21.2389C20.451 21.2448 20.4564 21.2467 20.4618 21.2507C20.5567 21.3056 20.6175 21.3605 20.6462 21.4135C20.6748 21.4664 20.6802 21.5312 20.6623 21.6116C20.6372 21.7273 20.5853 21.8176 20.5065 21.8862C20.4278 21.9529 20.3329 21.9882 20.2237 21.9882C20.1323 21.9882 20.0607 21.9647 20.0142 21.9176C19.9658 21.8646 19.9426 21.798 19.9426 21.7077ZM19.7599 20.9054L19.5326 21.951H19.3571L19.5863 20.9054H19.2998L19.3374 20.7387H20.084L20.0482 20.9054H19.7599ZM17.9714 21.951L18.2471 20.6896L18.7699 21.4311C18.7842 21.4527 18.7985 21.4743 18.8111 21.4978C18.8254 21.5214 18.8397 21.5488 18.854 21.5782L19.0384 20.7367H19.2014L18.9256 21.9961L18.3903 21.2408C18.376 21.2212 18.3635 21.1997 18.3509 21.1761C18.3384 21.1526 18.3277 21.129 18.3169 21.1055L18.1325 21.949H17.9714V21.951ZM17.1675 21.951L17.4325 20.7387H18.034L17.9982 20.9054H17.5721L17.5059 21.2095H17.932L17.8944 21.3821H17.4683L17.3823 21.7744H17.8085L17.7691 21.951H17.1675ZM16.8757 21.3527C16.8757 21.3429 16.8775 21.3173 16.8828 21.2742C16.8864 21.2389 16.89 21.2095 16.8918 21.1859C16.881 21.2134 16.8685 21.2408 16.8542 21.2683C16.8399 21.2958 16.8238 21.3232 16.8058 21.3527L16.3815 21.998L16.2437 21.3389C16.2383 21.3115 16.2329 21.286 16.2311 21.2605C16.2276 21.235 16.2258 21.2095 16.2258 21.1859C16.2204 21.2114 16.2114 21.2369 16.2025 21.2663C16.1935 21.2938 16.1828 21.3232 16.1685 21.3546L15.9214 21.951H15.7603L16.292 20.6857L16.4424 21.4507C16.4442 21.4625 16.4478 21.4841 16.4514 21.5116C16.4549 21.539 16.4603 21.5743 16.4657 21.6155C16.4836 21.5802 16.5086 21.5371 16.5427 21.4821C16.5516 21.4684 16.5588 21.4566 16.5624 21.4488L17.0404 20.6837L17.0243 21.949H16.8649L16.8757 21.3527ZM15.2035 21.951L15.3252 21.3958L15.105 20.7387H15.2894L15.4255 21.1506C15.4291 21.1604 15.4326 21.1761 15.4362 21.1918C15.4398 21.2095 15.4452 21.2271 15.4488 21.2467C15.4595 21.2271 15.472 21.2095 15.4828 21.1918C15.4935 21.1741 15.506 21.1585 15.5168 21.1447L15.8373 20.7387H16.0127L15.4971 21.3958L15.3753 21.951H15.2035ZM14.7666 21.951L14.7129 21.6391H14.285L14.0917 21.951H13.9072L14.7058 20.6896L14.9528 21.951H14.7666ZM14.3853 21.4743H14.6861L14.6359 21.1977C14.6341 21.18 14.6306 21.1604 14.6288 21.1369C14.627 21.1133 14.6252 21.0878 14.6252 21.0604C14.6144 21.0859 14.6019 21.1114 14.5894 21.1349C14.5786 21.1585 14.5661 21.1781 14.5554 21.1977L14.3853 21.4743ZM13.6172 21.4076L13.499 21.9529H13.3343L13.5993 20.7406H13.8643C13.9431 20.7406 14.0003 20.7446 14.0344 20.7544C14.0684 20.7642 14.0988 20.7799 14.1203 20.8014C14.1472 20.8289 14.1669 20.8681 14.174 20.9152C14.183 20.9623 14.1812 21.0153 14.1686 21.0721C14.1561 21.129 14.1346 21.182 14.106 21.231C14.0755 21.2801 14.0415 21.3173 14.0021 21.3448C13.9699 21.3664 13.9341 21.3821 13.8947 21.3919C13.8553 21.4017 13.7962 21.4056 13.7175 21.4056H13.6172V21.4076ZM13.662 21.2448H13.7067C13.8034 21.2448 13.8714 21.233 13.909 21.2095C13.9466 21.1859 13.9717 21.1447 13.986 21.0839C14.0003 21.0192 13.9932 20.9741 13.9645 20.9466C13.9359 20.9191 13.875 20.9074 13.7819 20.9074H13.7372L13.662 21.2448ZM11.7606 21.951L12.0256 20.7387H12.2619C12.4159 20.7387 12.5215 20.7465 12.5806 20.7642C12.6397 20.7818 12.688 20.8112 12.7256 20.8524C12.7757 20.9054 12.808 20.9741 12.8223 21.0584C12.8366 21.1428 12.8312 21.2389 12.808 21.3468C12.7847 21.4547 12.7471 21.5508 12.697 21.6332C12.6468 21.7156 12.5842 21.7842 12.5108 21.8391C12.4553 21.8803 12.3944 21.9098 12.3299 21.9274C12.2655 21.9451 12.1706 21.9529 12.0435 21.9529H11.7606V21.951ZM11.9754 21.7724H12.1223C12.2028 21.7724 12.2655 21.7666 12.3085 21.7548C12.3514 21.743 12.3908 21.7214 12.4284 21.694C12.4785 21.6548 12.5197 21.6057 12.5519 21.5469C12.586 21.488 12.611 21.4213 12.6271 21.3428C12.6433 21.2663 12.6486 21.1977 12.6415 21.1388C12.6343 21.08 12.6146 21.031 12.5824 20.9917C12.5573 20.9623 12.5269 20.9427 12.4857 20.9309C12.4463 20.9191 12.3801 20.9133 12.2905 20.9133H12.1634L11.9754 21.7724ZM10.9567 21.951L11.2217 20.7387H11.8233L11.7875 20.9054H11.3614L11.2951 21.2095H11.7212L11.6836 21.3821H11.2575L11.1716 21.7744H11.5977L11.5583 21.951H10.9567ZM10.5288 21.951L10.7938 20.7387H10.9693L10.7043 21.951H10.5288ZM9.73391 21.951L9.99888 20.7387H10.6004L10.5646 20.9054H10.1385L10.0723 21.2075H10.4984L10.4608 21.3801H10.0347L9.90936 21.951H9.73391ZM9.3078 21.951L9.57278 20.7387H9.74823L9.48326 21.951H9.3078ZM8.09214 21.951L8.36786 20.6896L8.89065 21.4311C8.90497 21.4527 8.91929 21.4743 8.93182 21.4978C8.94615 21.5214 8.96047 21.5488 8.97479 21.5782L9.1592 20.7367H9.32212L9.04641 21.9961L8.51288 21.2408C8.49856 21.2212 8.48602 21.1997 8.47349 21.1761C8.46096 21.1526 8.45022 21.129 8.43947 21.1055L8.25328 21.951H8.09214Z" fill="#66686C"/>
</g>
<defs>
<clipPath id="clip0_388_5725">
<rect width="22" height="9" fill="white" transform="translate(7 13)"/>
</clipPath>
</defs>
</svg>
